/* XPM */
static char *a32f2377b0304ae5c1a443d0230b16f4COo4DtjFzyXMl1In[] = {
/* columns rows colors chars-per-pixel */
"64 64 256 2 ",
"   c #151710",
".  c #241B18",
"X  c #002B05",
"o  c #023609",
"O  c #1A2418",
"+  c #1A3A15",
"@  c #11340E",
"#  c #26261C",
"$  c #2A331C",
"%  c #33341E",
"&  c #1C1B22",
"*  c #241D28",
"=  c #172E24",
"-  c #292726",
";  c #343628",
":  c #352C34",
">  c #3A3737",
",  c #2C312D",
"<  c #44383A",
"1  c #423A27",
"2  c #18550A",
"3  c #044716",
"4  c #1A451B",
"5  c #07551A",
"6  c #165715",
"7  c #094B0B",
"8  c #274817",
"9  c #285718",
"0  c #305516",
"q  c #066819",
"w  c #166A1A",
"e  c #0D6D16",
"r  c #2A661A",
"t  c #35671C",
"y  c #2C7816",
"u  c #337A19",
"i  c #296F0B",
"p  c #175928",
"a  c #1B5A33",
"s  c #115124",
"d  c #264626",
"f  c #374728",
"g  c #275728",
"h  c #375A28",
"j  c #3B4637",
"k  c #295736",
"l  c #385838",
"z  c #254E30",
"x  c #086926",
"c  c #17692B",
"v  c #037323",
"b  c #0A7628",
"n  c #167728",
"m  c #1A6B35",
"M  c #0B7634",
"N  c #137435",
"B  c #177938",
"V  c #0A6D34",
"C  c #266627",
"Z  c #376928",
"A  c #267729",
"S  c #397629",
"D  c #256A39",
"F  c #396735",
"G  c #277839",
"H  c #387A38",
"J  c #454839",
"K  c #455739",
"L  c #42582A",
"P  c #436928",
"I  c #46762C",
"U  c #486937",
"Y  c #536B39",
"T  c #487736",
"R  c #557938",
"E  c #54772C",
"W  c #4B6A25",
"Q  c #3B3845",
"!  c #473C49",
"~  c #365146",
"^  c #1B7C44",
"/  c #157046",
"(  c #286A43",
")  c #287846",
"_  c #377A47",
"`  c #387A54",
"'  c #2E754D",
"]  c #3E7C63",
"[  c #494746",
"{  c #495746",
"}  c #555849",
"|  c #544D56",
" . c #5B5757",
".. c #504E4E",
"X. c #645B58",
"o. c #6D5A5B",
"O. c #496847",
"+. c #56684A",
"@. c #497848",
"#. c #567A47",
"$. c #586857",
"%. c #497853",
"&. c #577757",
"*. c #4B6755",
"=. c #627B46",
"-. c #66665A",
";. c #667958",
":. c #6F6E58",
">. c #5A5362",
",. c #645C65",
"<. c #715D62",
"1. c #596E63",
"2. c #6A6667",
"3. c #736967",
"4. c #687668",
"5. c #77756A",
"6. c #756C73",
"7. c #7C7676",
"8. c #6B7277",
"9. c #847977",
"0. c #83746F",
"q. c #178338",
"w. c #168131",
"e. c #268439",
"r. c #368638",
"t. c #2F8B30",
"y. c #378119",
"u. c #55873B",
"i. c #4A8839",
"p. c #69843D",
"a. c #1B8446",
"s. c #1F8651",
"d. c #278748",
"f. c #398648",
"g. c #288A53",
"h. c #378B57",
"j. c #2B9255",
"k. c #339456",
"l. c #3D9C62",
"z. c #488649",
"x. c #588647",
"c. c #498956",
"v. c #588756",
"b. c #57935B",
"n. c #4A934E",
"m. c #658849",
"M. c #66944A",
"N. c #678858",
"B. c #758A5A",
"V. c #699553",
"C. c #759559",
"Z. c #598A64",
"A. c #599467",
"S. c #4D8B69",
"D. c #678968",
"F. c #798867",
"G. c #669669",
"H. c #789468",
"J. c #6B8876",
"K. c #788A76",
"L. c #6D9577",
"P. c #799778",
"I. c #4FA96F",
"U. c #6FA474",
"Y. c #66A55A",
"T. c #64CB7A",
"R. c #858A6C",
"E. c #849469",
"W. c #88867A",
"Q. c #879878",
"!. c #918A7C",
"~. c #8AA577",
"^. c #90AB77",
"/. c #7E7884",
"(. c #867B82",
"). c #7A9887",
"_. c #788D85",
"`. c #7DAA86",
"'. c #70CE91",
"]. c #8C8484",
"[. c #8B8887",
"{. c #948A89",
"}. c #889884",
"|. c #979688",
" X c #958C91",
".X c #9B9895",
"XX c #869894",
"oX c #A69C98",
"OX c #A2968D",
"+X c #8AA785",
"@X c #98A588",
"#X c #89A795",
"$X c #98A997",
"%X c #9AB39B",
"&X c #93B591",
"*X c #ACA39C",
"=X c #A8A698",
"-X c #B5AA9B",
";X c #ADB394",
":X c #A79CA3",
">X c #99B1A7",
",X c #ACA8A5",
"<X c #B5AAA6",
"1X c #A8B9A7",
"2X c #B8B5A9",
"3X c #BBBAB5",
"4X c #B0AEB4",
"5X c #9B9EA2",
"6X c #C2B8A7",
"7X c #C4BAB5",
"8X c #D1BEB6",
"9X c #95C691",
"0X c #ABCE98",
"qX c #B6C7A7",
"wX c #B9D5A5",
"eX c #B9C8B6",
"rX c #AECDB1",
"tX c #B7ECB2",
"yX c #8EDFA6",
"uX c #C8C6AC",
"iX c #C9C6B8",
"pX c #D5CDB6",
"aX c #C7D7BA",
"sX c #D7D5BC",
"dX c #C7D3AC",
"fX c #D3E0BB",
"gX c #C5BDC8",
"hX c #B7CCC4",
"jX c #BEF3CD",
"kX c #C9C8C5",
"lX c #D4CAC7",
"zX c #C8D8C6",
"xX c #DAD6C8",
"cX c #D7D8D6",
"vX c #CBD5D6",
"bX c #E5DBC8",
"nX c #E3DAD8",
"mX c #E1CED0",
"MX c #C8E6C9",
"NX c #D6E5CA",
"BX c #CBE7D7",
"VX c #D7E6D7",
"CX c #D1F6D3",
"ZX c #E7E3CA",
"AX c #EAE6D6",
"SX c #F0EBD7",
"DX c #D7DBE3",
"FX c #D9E8E5",
"GX c #D7F5E9",
"HX c #E7E5E7",
"JX c #F9F6EA",
"KX c #FDFDF4",
"LX c #FEFEFD",
"PX c #F8F8F5",
"IX c #EEEDED",
"UX c #E2DEE1",
/* pixels */
".   .     # #   O # . . - # & - - # # $ $ $ - - - # $ $ % # : : < ; ; % % ; $ ; ; > > ; ; ; , > ; ; > > ; ; > , ; ; % % 1 ; ; f ",
"[ { [ [.7.[ $.5.K.F.R.-.}.$X$.4.4.} K { K { { $.{ } { } { J [ 2.3.} J } { { { { $...[ $.} } 2.} { { }  .-.[ } { { -...].3.-.$.4.",
"O.O.+.+.%X$.&.O.U U U O.O.O.&.O.*.&.O.@.&.%.&.&.*.4.+.+.+.+.$.3X.X5.7.=X@XF.4.4._.J.J.J.J.J.)._.).).XX_.}.XX_.).J._.2.5X3X#X)._.",
"L.D.P.P.%X~.N.N.v.#.@.@.v.&.v.v.v.%.v.v.G.v.Z.D.D.&.f f j j $ $...J J J ; f $.4.J.J.).D.L.L.).J.L.1.4.4.P.J.J.).J.XX1.>XXXXXJ.J.",
"G.v.;.E.aXE.N.N.#.U v.#.#.N.x.x.v.@.v.v.v.&.D.+.} $.F.R.Q.Q.W.|.}.W.!.R.R.R.+.j l &.Z.Z.%.&.O.L.v.%.&.&.&.H.&.L.&.&.*.>X#X).L.%.",
"v.v.N.@XdXQ.~.N.x.x.#.x.m.#.#.T x.z.x.v.N.;.+.+.:.W.uXuXuXuXiXuXiXuXpXpXpX-XR.:.+.&.l v.Z.%.%.v.v.#.%.l #.N.N.N.N.N.l eX#XP.H.x.",
"c.v.N.Q.dXQ.B.B.x.T x.x.T T x.x.V.T V.x.#.+.f |.2XiXZXZXAXAXSXAXAXSXSXbXbXSXsX-X|.f O.O.#.O.@.O.O.rX*.O.;.C.N.m.N.N.}   F.Q.C.V.",
"z.v.D.Q.dXE.B.N.V.x.T T x.M.x.i.u.u.V.x.Y L |.;XpXZXAXbXJXJXKXKXKXLXKXJXnXbXAXiX-X|.f F.&.#.@.v.&.rXeXrXO.#.U N.x.&.{ $X=XQ.C.C.",
"@.v.H.~.dX^.E.C.V.m.R I u.u.x.u.u.I M.#.Y f @XsXZXxXSXJXKXLXLXLXLXLXLXKXJXSXxXZXpX;XJ f U v.9X@.G.%.L.MXtXv.v.T N.N.$.*.}.Q.C.M.",
"x.v.N.^.dX^.^.C.C.u.^.M.M.M.V.u.u.I m.R Y F.;XxXZXAXJXKXLXLXLXLXLXLXLXLXKXJXAXZXsX;XF.Y f U 0XF H _ ( F F ^.x.@.#.%.hX$X$X+XN.M.",
"x.v.m.0XwXE.B.C.M.u.^.I M.u.u.u.M.R =.L Y @X2XbXAXSXKXLXLXLXLXLXLXLXLXPXPXPXAXZXsX2X@X+.8 T Z z.H T #.F T Z F v.U D.zX_.qXQ.B.m.",
"z.x.H.^.dXH.N.#.M.u.P P I I x.I R P Y L -.;X-XsXZXSXLXLXLXLXLXLXLXLXLXPXPXPXSXZXbX;X;X+.$ #.Z Z r Z F Z 0 #.x.@.U ;.$.eX}.F.H.H.",
"O.=.B.E.dXF.F.=.m.U =.U L L h R U P L % } OX6XbXZXHXLXLXLXLXLXLXLXLXLXLXLXLXSXZXbX-XoX-.$ f K F P h Y Y U 8 &.K O.K ; 2X3X}.;.4.",
"Q.F.|.@X2X@XB.@X;X^.H.@X^.~.^.~.~.~.F.+.-.=X2XsXZXSXKXLXLXLXLXLXLXLXLXLXLXLXSXZXbX7X*XX.5.2X1XqXwX0XqXqXqX;XeXqXqX2X2X3X,X=X$X1X",
"zXNXiXaXNXeXzXrXrXaXqXqXNXaXaXMXwXqXiX5.-.*X6XbXZXSXKXLXLXLXLXLXLXLXLXLXLXKXSXZXsX6X=XX.=XxXNXNXdXsX@X-X2XeXVXzXaXeX<X2X2XiXeX$X",
"P.P.Q.}.K.J.P.L.L.L.P.H.P.P.L.L.P.P.aX3.X.oX-XbXZXSXJXLXLXLXLXLXLXLXLXLXKXJXSXbXbX-X*X-.2.xXiXR.F.Q.Q.R.R.F.;.W.|.$XW.W.5.Q.}.$X",
"A.U.v.`.c.z.c.c.c.S.A.c.c.S.b.A.b.Z.xX-.X.*X<XxXZXZXSXJXLXLXKXKXKXKXLXKXJXSXZXZXpX6X|.X. .iX2XR.B.=.=.E.E.N.H.F.;.Q.F.;.R.;.B.B.",
"h.f.c.c.n.f.h.d.' l.h.g.h.h.f.n.d.Z.F.o.J 7.2X2XpXbXAXAXJXKXKXAXAXKXKXJXAXZXbXpX6X-X9.J ..xX=XF.=.m.C.m.=.m.m.N.B.#.#.H.=.B.B.=.",
"h.g.h.g.G d.k.k.^ ) ^ g.^ g.h.h.) c.zXX.[ 7.oX2XuXsXbXZXSXSXSXZXZXAXSXSXZXZXsXuX-X,X7.[ > iX2X=.x.R m.R R #.R m.=.#.Y m.m.#.m.V.",
"s.s.^ j.N a.a.g./ s./ s.g.^ d.d.^ S.VX} J 5.{.oX2X6XpXZXZXbXbXSXZXbXbXZXZXpX6X2X*X].6.> [.eXaX;.R E E m.R U Y R B.#.R R R 0 P m.",
"a.a.a.j.q.d.j.j.a.j.s.g.k.d.j.d.s.S.MX} J $.-.].oX2XuXpXsXZXbXsXsXZXZXsXpXuX<X*X{.,.2...$XzXqXU P P I R U =.fXN.wXY Y R I x.T T ",
"a.a.g.a.M j.d.j.a.a.s.s.d.B k.d.V S.CX+.K O [ 3.].*X2X-X6XpXpX6X6XpXpX6X-X2X,X].2...& j l MXqXY 0 I P P Y wXwXU wXY L R I I 9 I ",
"g.g.g.d.N k.d.a.^ g.s.^ k.d.d.d.V I.MX+.f O [ 2.6.{.oX*X-X2X7X3X7X7X2X-X*XoX X6.2...O K &.aXqXU t M.R x.U H.wX#.P E I t t t S T ",
"j.j.g.d.N B g.g.d.g.g.g.g.d.f.G x f.tX&.f f , |  .2.7.].].[.[.[.].{.{.].].9.2.>.| : j K K dXwXY m.t I Z F U 0Xx.T 2 t I S S t 2 ",
"g.j.a.a.M B g.j.B d.d.N G G G d.c z.&Xf $ , # : > [ ,.2.>.,.2.>.,.,.,.,.,.,.[ Q : . ; ; f ;XqXY t I I T U 9XwXh Z Z Z r u.t Z 9 ",
"M a.s.a.a.B d.d.a.j.d.k.e.e.d.G 6 x.D.5.K.4.3.,.| ..! ! ! ..2. X2.| | [ ! [ [ | 2.3.3.R.;.F.;Xf 0 0 0 Z wXh T 9 6 S i.r I 9 9 Z ",
"s.q.a.a.x B d.a.q.d.q.d.d.e.c c C l |.iXkX<X7X<X X,.: * * .. XnX/.,.[ - - : >. X,X3X<XaXaX!.} f 0 2 2 2 Z 6 6 6 w 7 2 2 r 2 2 Y.",
"^ a.B ^ ^ d.^ a.^ B B B d.G G D l @X3.[ -.9.oX:X(.9.2.>...7.2XxX[..X/.[ | 2.6.[..XoXW.} [ 5.-XJ 8 Z 7 6 b.7 7 7 C 6 6 6 7 7 g 7 ",
") ' ' / h.) ' ' h.' D ) ( D A.k K 2XiX7X,XJ <.<.2.|  .,.2.0.OX<X2.6.7.6.2.X. .2.3.-.J -XiX2X,XJ 4.d 8 4 v.d d 4 d z l @ z %.+ 4 ",
"( ] S.` ` ( a ( a a s z l Z.).&.$X|.oXbXxX9. .<.7.5X4X2.X.2.|.7X X7.2. .,.4XoX7. .[ W.xXnX=X|.@XK.@XK.K.}.%X}.$X#X%X%XrXrXrX1XrX",
"BXBXGXGXBXGXMXBXBXCXGXCXBXVX}.}.AX.X|.2XxX2XoXoXkXcXcX .2.!.<XlX*X*X{.6.,.nXnX7X,XoX2XxX2X|.OXAXQ.@XdXaXaXsXsXNXeXzX3XzX}.$X1X%X",
"`.#X#XXXvXFX_.}.+XQ.Q.Q.K.Q.-.|.JXAXbX-XQ.2XbXJXLXPXIX3..XkXlX*X:.7XlX.X6.PXJXKXJXxX7X!.2XZXZXJX|.:.E.B.E.E.;.B.E.F.F.xXK.K.L.D.",
"U.A.A.).GXBX#X%.H.C.B.H.G.D.*.{ }.JXlXoX!.6X8X6XxXAXVX2.} 5.2XJX2X|.5. .3.nXAXxXiX2X7X!.OXxXJX{.[ W.=.p.p.R m.C.E R B.dXD.Z.%.c.",
"f.c._ A.BX>XS.S.@.x.x.z.b.G.4.{  .kX.XX.3.OX*X-X6XiXxX2. X2XkX7XW.2X3X{.2.mXxX6X=X*X!.3.-. XkXX.].$X=.E E E R E u.M.E wX9XD _ f.",
"h.f.) ` BX#Xc.c.z.H z.f.G z.Z.$..XcX,X2...| 0.OX,X7X7XX.9.,XkXlXoX,X,X(.X.3X7X*XOX9.o.[ 6.,XcX.X_.*.#.T 0X0XwXN.R m.P 0XS.) m c ",
"B a.) ` MX#X` d.G d.d.d.e.c.z 4.4XIXgX7.& & [ 7.oXoX X .6.{.2XAX,XoX X6.|  X*X.XW.> * & 7.gXPX4X$.*.@.tXx.#.B.N.x.T P 0XU.m yXd.",
"M V B m CXP.G q.B n w.q.q.x %.{ |.cX5X1.& = ..j X.3.3.!  XlXlX*X3.7XlX X< 6.5.X.< - | & ,..XnX}.K h S r T #.Y U Z S T 9XC B x l.",
"a.M x N MX+Xc w.v v v v v d.Z.}.AX.XkX5X, hXcX[ - 2. X9.<.3.2XSX=X{.3.2.7. X .- [ 5.cX7.:XiX].IX+X9 r Z 9X#.U ^.u.I x.9Xz.x x x ",
"M M b x MX+Xc v q n v b v c z F.iX5.3XXX~ *.$XK.5.3.<.{.oX6XiXsXW.<X7XoX[.3.2.2.5...cX . X3X7.3X5.d v.tXT wX0XwX9XT I ^._ c 5 M ",
"M a.v 5 CX+Xq b e e v q.b m d J 5.5.[.,., XX..3X3X9.o.0.{.oX7XiX!.-XoX].7.X.7.3X3X..[ 2.2.].3.9.[ J @.tXZ g F tX0XZ Z ~.z.I.x l.",
"b w.v x CXP.c q n q b q q D { 5.|.{.,.> & , ,.cXUXgX:X< [ 2.oXxXOX9.3.! < :XkXUXcX2.- & : 2.[..X7...P.g C H tXZ 6 Z 8 U.z.x M M ",
"v b v c CX}.5 B q e w.n 5 o F.iXKX7X{. .& * [ 5XUXLXPX9.> 7.,X2X<.{.6.! (.PXLXcXoX..* &  .{.2XKXlX7.+ 9 C 6 w 2 c 6 F b._ x x M ",
"v v b x CX+Xp x q q q q n 6 P.iXxX{.6. .: . . oX7XcXLXPXoXX.*XxXoX].<.oXIXLXcX7XoX# . : X.6.{.xX7XW.+ H 2 e e n q G H c.m x B M ",
"M M M m MX#X( N x q q q q 7 &.=XuXX.{.7.X.].3X{.oX3XlXkXoX2XlXJXnXiX4XoXlXlX7X|.{.3X].X.7. XX.7X*X4.4 C 2 2 e n n G C G.S.5 V I.",
"B B m ( MX).a m c c c c G 6 { :.|.=X2XW.3.<X7XOX!.|.[. X.X,XiXxXlX7X<XoX X X{.W.OXiX<X3.W.2X*X.X6.~ k k D c C f.m G _ Z.A.c a ) ",
"3 3 s X BXJ.X o o o _ o X o   J :.uX*X7.X.,X2X2X9.- [ 2.{.9.9.oXoX9.7.{.2.< ; 9.2X2X*XX.5.,X7X5.> O @ X X X X X X 3 %.%.k 4 X X ",
"BXMXMXNXkXcXeXMXeXMXVXaXMXaXiX=XJ J [ , [ [.xX7XW.> : 2.| : : ....- Q | 6.: > !.7XxX].[ : [ > J 2XzXVXNXNXNXxXNXBXCXaXNXaXCXCXMX",
"%XQ.Q.Q.=X|.rXrX$X+X$X%X&X+XE.Q.W.zXcX$.j W.nXJX7Xo.< : - # O O O O O - : > X.7XJXnXW.[ 2.vXkXK.Q.+XQ.H.~.Q.@X}.P.}.Q.~.+X+XP.}.",
"c.U.C x.x.@.U.Z.b.v.b.z.b.n.b.z.@.rXMX&.$.:.JXbXlX,X> O { N.R x.R #.E Y & Q 4XlXnXIX5.4.8.GX1Xv.v.c.z.b.v.b.N.v.N.#.v.b.v.z.A.b.",
"_ A A r.r.z.c._ _ f.A f.G e.r.G f.9XCX&.$.} xX<X<X<X>   ;.V.u.u.i.x.u.U O Q ,X,X2XcX} 4.8.GX#Xv.G f.r.f.H H z.b.z.z.z.H z.H H f.",
"G n t.A r.f.) ' I.'.N B n n e n G 9XCX+.*.j |.oX.XW., d F I S u.V.x.R #.~ , W..X.X.Xf ;.8.GX&XD m q 5 e.n n A w r.w c r.r.n w A ",
"c B n e.e.c x l.yXh.e.b x b e e c U.MX+.{ = $.iX2X-.+ O.Z i.S S @.T i.@.&.$ -.-XiX} $ $.$.GXjXD x e q n n b b e e e A n w n n n ",
"N d.n e.q d.B B I.B n q x x b q p 9X}., , ,.AXiX,X}.+ #.S S F _ Z.CXI S +X$ |.-XiXAX .* , XXhXD x q v w.v b q.q T.b q A w q w e.",
"d.V x yXn n x d.B n n n x q v x p &.K.6.>  .AXoX|.Q.@ 9 r z.CXA.A.CXS I U @ {.{.=XAX,.! 2.XX%.a x b b w.b v b b v n b q e n q e ",
"M x b e.x x g.V N q.N x B v q.q c l =X,X3. .iX0.5.R.o Z u S f.jXz.r.r.r T + W.W.9.7X| 3.=X>X= D k.e e w.b w.w.b n e q b q e q e ",
"N N N x B I.N V N V q.M b a.q x c d 3X7XoX} {.0.W.F.@ t y.y A S y.y A i.r @ K.(.9.|...oXiXeX= a c q n n x n n n n b x n q n n b ",
"g.V M V V ^ g.N ^ ^ '.M M B B q C 4 W.lX8X< 0.<XoX-.@ T u y u y y.u i n.T +  .:X,X0.< 8X7X[.= k D ) m p c m m c G m c x c '.q.b ",
"B B N N N B V N V N M yXV ^ N x 6 4 [  XoX9.mXnX4X .+ Z y.y.y u u i y Y.Z @ 2.4XnXlX0.*X|.. , @ o o o 3 o 3 3 o 3 3 o 3 5 h.d.B ",
"d.j.N a.B N B N e.B M a.'.a.q x p G.4.W.|.5.xXkX:X .@ Z i.y y u u i y y x.+ } .XiXxX3.OX3.; #X%X@ 9XZ.z _ _ Z.Z.z z v.p s m c c ",
"V N V B N M B b n q N B g.x x q C U.1X+.;.K %XQ.-.{ g T S u y y u u r r r 9 { ;.E.@XK :.{ +.#X*.+ s k a A.Z.%.%.G.s %.a 5 m m m ",
"c q c x ) N x B x G yXB N B q q 5 9XCXk @ 4 @ 8 $ 8 H tXtXn.i.S u u tXCXZ T g + 8 8 8 8 f P.z @ 3 3 5 5 5 5 3 3 3 s 3 3 5 N V V ",
"p c D p ( m ( m D D m ( ` p 6 c g +XhXl g F F h h F F F Z.tX9 r r 9 %.Z.h 9XU U #.U L U l CXD.z 4 s a a p a ( D a D s ` ` ' ' m ",
").>X>X#X).J.P.J.D.D.).).>XrXP.l Q.vXFXhXrX%X1X1X$X%XeXzXFXcXzX1XzXVXFXFXzXNXzX1X1X}.VXVX_.FXVXzXVXzXvXBXGXGXGXGXGXBXhXeX>X>X>X#X",
"vXhXhXhXvXFX1XVXaXeXzXvXPXFXzXzX3X7XvXDXFXFXFXFXVXcXFXDXvXgXcXcXcXvXHXIXkXiXcXVXVXvXDXDXDXvXcXxXcXHXUXHXcXIXFXDXIXHXHXHXHXvXDXDX"
};
