/* XPM */
static char *_9aa744344f34aefa29de972fba1328dDzRPCLfyLvS8Ddof[] = {
/* columns rows colors chars-per-pixel */
"64 64 252 2 ",
"   c #1A160B",
".  c #1A1915",
"X  c #071707",
"o  c #241A16",
"O  c #012A06",
"+  c #17280A",
"@  c #01360B",
"#  c #1B2616",
"$  c #1A3A19",
"%  c #0F3614",
"&  c #27261B",
"*  c #2C3519",
"=  c #172E23",
"-  c #2A2926",
";  c #342D28",
":  c #293726",
">  c #353729",
",  c #393736",
"<  c #322F34",
"1  c #1F1422",
"2  c #443938",
"3  c #41392A",
"4  c #17560C",
"5  c #044716",
"6  c #184718",
"7  c #06561A",
"8  c #175A18",
"9  c #0C4D08",
"0  c #285A18",
"q  c #2A5017",
"w  c #066819",
"e  c #15681B",
"r  c #06731D",
"t  c #0D6710",
"y  c #2A681A",
"u  c #35671C",
"i  c #2A7817",
"p  c #2F7515",
"a  c #175927",
"s  c #1C5A34",
"d  c #115025",
"f  c #284827",
"g  c #364428",
"h  c #265828",
"j  c #375A27",
"k  c #384736",
"l  c #385737",
"z  c #275435",
"x  c #086926",
"c  c #166A2A",
"v  c #087527",
"b  c #167629",
"n  c #196B35",
"m  c #0A7634",
"M  c #1B7C3C",
"N  c #157737",
"B  c #0B6D33",
"V  c #286725",
"C  c #376726",
"Z  c #277829",
"A  c #3A762A",
"S  c #246837",
"D  c #3A6836",
"F  c #277838",
"G  c #377838",
"H  c #46463A",
"J  c #455538",
"K  c #48532B",
"L  c #456927",
"P  c #46752B",
"I  c #486938",
"U  c #546C3A",
"Y  c #487737",
"T  c #567839",
"R  c #517D2E",
"E  c #426F1E",
"W  c #3C3741",
"Q  c #473B46",
"!  c #197D43",
"~  c #147142",
"^  c #286844",
"/  c #277844",
"(  c #387B49",
")  c #35734E",
"_  c #39614F",
"`  c #4A4946",
"'  c #554B4B",
"]  c #495647",
"[  c #53574A",
"{  c #574D54",
"}  c #4B5A52",
"|  c #585856",
" . c #4E4B52",
".. c #635A5A",
"X. c #625553",
"o. c #486846",
"O. c #546849",
"+. c #4A7648",
"@. c #567A47",
"#. c #576856",
"$. c #4A7854",
"%. c #567856",
"&. c #4A6855",
"*. c #637B49",
"=. c #656759",
"-. c #687958",
";. c #73745C",
":. c #5B5761",
">. c #675B65",
",. c #597566",
"<. c #696766",
"1. c #746B69",
"2. c #687866",
"3. c #76776A",
"4. c #776C75",
"5. c #797676",
"6. c #6B6F72",
"7. c #84787A",
"8. c #837D67",
"9. c #178437",
"0. c #0A8036",
"q. c #25833A",
"w. c #368638",
"e. c #358529",
"r. c #328216",
"t. c #55853B",
"y. c #4A8535",
"u. c #66883E",
"i. c #1D8347",
"p. c #188D49",
"a. c #268749",
"s. c #378647",
"d. c #278B53",
"f. c #368A55",
"g. c #2B9257",
"h. c #359459",
"j. c #30944E",
"k. c #3E9C5F",
"l. c #498749",
"z. c #588648",
"x. c #498955",
"c. c #588857",
"v. c #559353",
"b. c #658849",
"n. c #66944A",
"m. c #668857",
"M. c #748A5B",
"N. c #679556",
"B. c #749559",
"V. c #5A8B65",
"C. c #549167",
"Z. c #668A69",
"A. c #788767",
"S. c #669769",
"D. c #789468",
"F. c #6C8A76",
"G. c #768876",
"H. c #6B9576",
"J. c #779777",
"K. c #4EA96D",
"L. c #70A671",
"P. c #65A356",
"I. c #64CB7A",
"U. c #82896B",
"Y. c #888679",
"T. c #869977",
"R. c #88956F",
"E. c #8CA876",
"W. c #7E7D82",
"Q. c #887C83",
"!. c #7B9788",
"~. c #779286",
"^. c #7CAC8A",
"/. c #70CE91",
"(. c #8A8884",
"). c #948A88",
"_. c #889985",
"`. c #969589",
"'. c #9B9695",
"]. c #8E9293",
"[. c #A3998A",
"{. c #A59A99",
"}. c #B19F9B",
"|. c #89A687",
" X c #98A587",
".X c #89A696",
"XX c #98A896",
"oX c #93B592",
"OX c #A8A599",
"+X c #AAB699",
"@X c #B4B29C",
"#X c #B2A897",
"$X c #A69CA3",
"%X c #97B4A4",
"&X c #9BADA8",
"*X c #AAA8A5",
"=X c #B6AAA7",
"-X c #AAB7A8",
";X c #B7B6AA",
":X c #BAB9B6",
">X c #ABB9B2",
",X c #969FA4",
"<X c #C5B8AA",
"1X c #C4BCBA",
"2X c #C1ADAA",
"3X c #92CC94",
"4X c #ABCE97",
"5X c #B6C5A9",
"6X c #B9D5A7",
"7X c #A8C4B5",
"8X c #BAC7B6",
"9X c #B9D9B6",
"0X c #ABC4A7",
"qX c #B4EBB2",
"wX c #91DDAB",
"eX c #C7C7B8",
"rX c #C7D6B9",
"tX c #CECDB3",
"yX c #CFE7BE",
"uX c #BEBEC2",
"iX c #C6BEC3",
"pX c #BACDC5",
"aX c #BCE6CD",
"sX c #C9C8C4",
"dX c #D4CBC6",
"fX c #C7D7C5",
"gX c #D8D7C8",
"hX c #CCD9D5",
"jX c #DAD9D6",
"kX c #D1CDD6",
"lX c #E6DCC8",
"zX c #E5DBD9",
"xX c #C7E6C9",
"cX c #D7E5CB",
"vX c #CCEAD7",
"bX c #D6E7D7",
"nX c #D0F5D2",
"mX c #EBE4CC",
"MX c #E6E4CC",
"NX c #E7E6D6",
"BX c #F1ECD9",
"VX c #D7DCE1",
"CX c #E4DCE6",
"ZX c #DAE8E6",
"AX c #D7F3EB",
"SX c #E9E7E6",
"DX c #EBF3E9",
"FX c #F8F9EA",
"GX c #FDFEF3",
"HX c #FDFEFD",
"JX c #F6F7F3",
"KX c #F1ECF0",
/* pixels */
".   o     & & . # & o o - & o - - - & ; & & - - - & : * & - ; , 3 ; ; > > > > > > > , , ; , , , > > , , > > , ; > ; ; ; 3 > > g ",
"` ] ` ).5.` #.3.G.A.U.=.(.XX#.2.<.[ [ J ] ] [ [ ] ] ] ] ] H H 1.1.` ` [ ] [ ] ] ] [ ] [ #.] | #.] ] } | =.` } ] ] =.' (.<.=.#.2.",
"o.o.O.O.XX#.%.o.I I I o.O.o.%.o.%.%.+.+.%.+.%.,.%.2.#.#.#.O.#.>X`.A.G.OXXXG.G.2.G.F.G.F.F.!._.F.~.!..X~._._.~.!.F.~.<.,X:X.X!.~.",
"H.Z.J.J.+XT.m.m.c.@.+.+.c.%.c.c.c.$.c.c.c.Z.V.,.Z.%.k f k J : } ] H g J k : #.F.G.%.H.Z.H.Z.H.H.H.,.2.2.J.F.F.!.F..X,.&X]..XF.V.",
"S.c.-.J.rXR.M.m.@.Y c.@.@.m.z.z.c.+.c.m.c.%.Z.O.[ =.3.U.Y.T.Y.`._._.`.Y.Y.5.[ g l %.Z.c.o.c.o.H.c.$.%.%.%.J.%.H.%.%.&.>X.X!.H.$.",
"l.c.m. XtXR.E.m.z.z.@.z.b.@.@.Y z.z.z.c.z.c.O.=.;.U.#X<XeXtXtXeXeXeXtXeX<XOXY.2.#.#.l %.Z.+.+.c.c.@.$.l @.m.m.m.m.m.k 8X.XJ.D.z.",
"x.c.m.T.tXR.A.M.z.P z.z.Y Y z.z.N.t.z.@.@.-.J U.@X<XtXlXmXMXmXMXMXmXlXmXlXtX<X@XY.J O.o.%.o.+.+.o.6X&.J -.D.m.m.m.m.} X A.T.B.N.",
"x.c.M.R.rXU.M.m.N.z.Y Y z.n.z.y.t.z.N.m.@.+ T.+XtXmXlXmXmXMXlXMXMXmXmXmXlXmXMXtX@X`.+ _.%.$.$.$.%.9X9X0Xo.@.I m.z.%.} XX+XT.B.B.",
"+.z.D.E.tXE.R.B.N.n.y.P t.t.z.t.z.P z.b.*.+ R.eXgXmXgXNXDXGXGXFXFXFXFXBXNXgXNXgXtX X+ l I l.3Xl.S.$.H.xX9Xc.c.Y N.m.#.} _.T.B.n.",
"z.c.m.E.tXE.E.B.B.t.E.n.n.n.N.t.y.R n.U K U.#XtXMXMXMXDXGXGXGXGXGXGXGXGXDXNXNXMXtX+XU.g j D qXV G ( _ D D E.z.+.@.+.pXXXXX|.m.b.",
"z.c.m.4X6XR.B.B.n.t.E.P n.t.t.t.n.y.T U 3 [.#XlXMXMXFXGXHXHXHXHXHXHXHXHXGXDXMXMXrX@X Xg j Y u y.G +.+.D Y C D c.I Z.fX~.0XT.M.b.",
"l.z.D.E.tXD.M.@.n.t.L L P R z.P P L U K K [.@XtXMXNXGXHXHXHXHXHXHXHXHXHXGXGXNXMXtX@X[.K * I C C y C D C 0 @.z.+.I -.#.8X_.A.D.D.",
"O.*.M.R.tXA.M.*.b.I *.L L L j T P u K * 3 #X@XlXMXBXGXHXHXHXHXHXHXHXHXGXGXGXBXMXgX=X`.3 > g U j L j U U I q %.J O.J > ;X;X_.2.2.",
"T.A._. X@X XM. X+XE.D. XE.E.E.E.E.R.A.2.H [.#XtXMXNXGXGXHXHXHXHXHXHXGXGXGXFXNXlXdX=X}.2 Y.@X+X6X6X4X0X6X5X+X8X0X0X5X;X:X*XOXXX-X",
"fXcXeXrXcX8XfX5X9XrX0X5XcXrXrXyX6XtXeX`.2 [.2XeXtXmXBXGXGXHXHXHXHXHXGXGXFXBXMXgX<X=X{.2 ;XjXgXgXeXyX X+X;X8XjXfXrX8X-X;X;XeX8XXX",
"J.T.T._.G.F.J.H.H.H.J.D.J.J.H.H.E.J.fX(., {.=X#XtXlXmXFXGXGXGXHXHXHXGXFXDXMXlXtX2X2X{.2 Y.dXsXY.U.R.T.U.U.A.-.Y._.XXY.Y.3.T._.XX",
"S.L.c.^.c.l.x.x.x.x.C.x.x.C.c.C.C.S.fX3.> ).2X=X<XtXNXBXFXGXJXJXJXFXFXFXBXMXtX<X#X=X).2 ..eX;XU.M.*.*.U.R.M.D.M.m.R.M.-.U.-.A.A.",
"f.s.x.x.x.f.x.s./ h.f.a.f.f.f.x.s.( A.=.: ..=X=X[.=XNXFXGXFXNXNXNXNXFXGXFXNX@X[.=X}...- =.rXOXU.*.b.B.b.*.b.*.b.B.T T B.*.M.M.*.",
"h.d.h.d./ a.g.h.! ! ! d.! d.h.f./ x.xX2.# ' ).{.(.(.HXGXFXGXFXbXMXFXGXFXGXGX).(.}.'.' & k rX5X-.b.R b.T T @.T b.*.T U b.b.z.m.M.",
"i.i.! g.N i.i.d.m i.~ i.d.i.a.a.M x.9X2.] - '.Q.*XKXHXSXJXKXGXGXGXGXKXKXSXHXKX$XQ.(.- ] -X5XrXU R R R b.T I U @.M.@.T T T 0 L b.",
"i.! i.g.! a.d.g.i.g.a.d.h.a.j.d.M C.xX$._ % =.| ;XJX*X'.'.dXDXDXDXKXdX'.'.*XJX=X..=.# o.0XxX0X@.L E P T I @.yXm.6XU U T P t.P P ",
"i.! d.a.m d.d.g.i.i.a.a.a.! h.a.n C.aX+.D f : =.=XzX. ; ..`.eXbXNXeX'.>.; . zX=X=.[ f j o.9X6XU 0 P L L I 6X6XI 6XU L T P P 0 P ",
"d.d.d.a.N h.a.i.! g.a.! g.a.d.a.n C.xX+.h h 6 -.#XdX' ' ' =.).sXsX(.<.{ { ' dX*X;.g I C %.9X0XU u n.R t.I D.6X@.I U Y u u u u y.",
"g.g.d.a.N N g.d.a.g.d.d.d.a.d.M n x.9XO.j q f * =.[.{.7.<.`.OXo # OX'.<.Q.{.'.<.g J j j I 6XrXI b.u P C D I 4Xc.Y q u P A A y 4 ",
"d.g.p.p.m N d.d.M a.a.N N a.F a.c v. X* + + # . ; ' 5.'.pXNXlXH J cXNX1X'.Q. .; & # + + +  XeXO.L R P Y Y oX4XC C C C 0 t.u A 0 ",
"m i.p.i.i.9.a.a.i.d.a.h.i.q.q.F a ( +XtX;X_.;X'. .W 6.,XsXSXBXlXeXcXNXgX{.4.,  .].>XT.5XfX;X`.J q u u C 6XC Y 4 4 A y.y Y 0 q C ",
"d.! i.a.x N a.i.9.a.a.j.q.q.x c d Z.OXdX;X(.:X$X:., <.4.*XjXzXeXDXeXdX1X4.>.Q :.$X>X(.-XdX*X(.: j 4 9 4 A 9 y 9 e 9 4 4 V 4 4 P.",
"! i.N M M a.M ! / n n N f.F F ( % 2.*X1X*X1.Q.4.{  .Q ` , $XiX..dXY.`.{.Q Q  .{ 5.5.4.*X:X;X5.. f j q 4 v.4 9 9 y 4 4 4 9 6 h 6 ",
"/ ) ) ~ f./ / / ) f./ n / S C.S = , 1XKXSX5.5.<.(.).>.X.Q Q W < - , 2 Q ' 7.(.5.<.5.7.JXJX:X, . _.f f $ %.f 6 6 f h l % z &.$ f ",
"^ $.C.) ) s s ^ s d s ^ s V.oX$ . - ` Q.:XHXKXKXSXGXHX=X$X(.4.6.4.1.).{.=XSXGXSXKXJXKX=X7.Q - - 3.+XG.G._..X|..X|.oXoX7X7X7X>X7X",
"vXvXAXAXvXAXxXvXvXvXbXbXbXcXfX8X=.*X{., | W.].W.(.).`.dXgX;X'.SXgX`.=XzXdX`.].(.5.].).X.2 {.XXO.tXrXtXtXgXcXrXcX5XrX0XfX_.XX-X%X",
"!..X.X.XhXZX~._.|._.T.T.T.T._.G.g {.{.... .  . .Q.;XY.OXOX{.1XNXgXOXOXOX{.(.>XW. . .o   ..'. Xg U.R.R.M.U.U.-.U.R.M.A.cXG.H.H.Z.",
"L.S.V.~.AXaX.X$.D.m.N.S.N.S.Z.%.;.T.Y.=._ # | 5.'.:XdXsX*X'.:XBXdX#X`.=X1XsX1X'.5.| ; [ ..Y.Y.;.Y.+X*.b.t.t.u.B.T T M.6XZ.V.( x.",
"s.x.( H.vX>XV.C.G N.l.l.l.C.%.$ T.Y.X.] ,.= | Q.).{.SXSXjX;XOXFXjX`.=XjXSXSX$X(.(.| - 3.H [ 3.).- XX@.P y.R T T t.n.T 6X3XS / a.",
"f.s./ ) vXXXx.x.l.G l.s.G x.,.# ] 2 & k ,.= ` { {.kX<.3.<.(.eXzX;X;X).<.1...dX*X' ` - *X` & H ` = &.+.@.4X4XrX@.T b.L 4Xc./ n c ",
"M i.i.( xX.X( s.s.F s.s.a.( &.- OX{.1.k ,.= - 7.).'.KXSXjX=X{.GXNX`.*XjXKXJX'.(.5.< , sX` 6.'.OX= ,.+.qXz.@.M.D.b.R L 4XL.n wXq.",
"m v 9.n nXJ.S q.b M M N a.n F.: jX1X5.2.^ = . X.7.`.*X>XXX).`.OX`.`.`.{.=X*X'.5. .. ` | 5.5.1XjXf D P u Y @.U L C L P 3XV F x K.",
"p.m w c xX|.c 9.x v v m x N H.k KXsX6.: _ ^.<.2 7.}.*X*X'.(.1.2 , 1.Q.'.=X=X*X5.` < >XsX(.5.sXDXf D y u 4XT I  Xt.P t.3Xl.c x x ",
"0.m v x xX|.c r r v v v m B S f KXuX<.: ,._ 3.' 7.'.sXkX*X1.{ >.' ` 4.*XkX1X'.5.' ` :X'.4.<.iXSXf f z.6XY 6X6X4X3XY P E.s.c 7 b ",
"m p.v 7 nX|.w v r v r p.v B S f ZX].# 6.} : | { ` ' ..4...` { '.4.W Q >.4...{ ` | | - sX` . ].SXk ] %.qX0 j C qX4XC u L.s.K.w k.",
"m 9.v x nXJ.c w r w r r r N z + #.[ ` k k X *XOX(.' {.{.Q.{ 2 4.:.< { Q.$X{.| 7.*XOX  > ` ` ' :.= ] L.V 8 G qXV 8 Z 8 L.s.w B m ",
"v m v x nX!.7 9.w w 9.r t e f ] :XjXSXjX8X, ;X1X7.2 ..>.Q < >.].4.Q < Q ..>.2 Y.:X1X, :XNXNXjXsX .: h 8 V 4 e 4 c 7 G C.F x x m ",
"v v m x vX|.x x w w w w b e o.;XSXGXjXeXjX` (.:X=X4.; 2 < o Q 6.{ < 1 < , < 1.=X1X).H jXeXjXGXNX:X#.h G t t i e w F G x.n x N m ",
"0.m m n xX.X/ m w w w w w a %.dXjXSXsXY.*X2 , `.*X7.2 7.4.4.1., , 6.4.4.Q., 7.OX`., H ;X5.eXKXjXgX&.h V 9 t t c b F h S.x.7 B K.",
"! N B S xX!.s n c F 8 S n a J `.=.dXeX5...o Y.(.5.' - '.{.{.'.{ | '.{.'.{.o | 3.(.Y.& ..5.eXsX<.].} l S S V V x.S ^ _ Z.S.s s / ",
"5 5 d O cXG.O @ @ O +.O @ O # & '.1.*XdX{.; dXDXSX=X  . - ; ' 1.1.` ; & o o *XSXJXeX; `.dX*X6.'.- = X O O O % X O $ &.O.j 6 O O ",
"xXxXfXcXsXjX8XxXfXfXbXfXrXfX;X;X.., { | 2 o jXzX1X}.& .   # & > > & & o   & }.1XzXgX- ` =.` , <.eXfXcXxXcXnXcXbXvXbXfXcXrXnXnXxX",
"+XT.T.T.XX|.0X0XXX|.%XoXoXE.T.T.G.:X8X| o   {.OX).Y.& -.-.2.*.m.-.-.;.A.=.& Y.).{.}.  . 6.:X*X2._.T.T.J.E.J. X_.J._.T.E.|.|.J._.",
"x.L.V l.z.+.L.V.c.c.v.l.v.v.v.x.$.7XvX=.; 1.;X:X'.<.  -.m.N.n.n.b.n.u.b.-.+ =.{.<X:X4.< 6.DX-Xc.c.x.l.v.c.c.m.c.m.@.c.m.c.l.S.v.",
"( Z Z w.w.l.x.( ( s.Z s.F q.w.F ( 7XnX[ 2 `.SXSX:X| + U N.N.t.y.y.n.y.b.@.+ #.:XKXSX].W 6.DX|.c.F s.w.s.G G l.v.l.l.l.w.l.G G s.",
"F b w.Z w.s./ / K./.b N b b r b F 3XnXO.- 1.SXkX].= 6 L P P A v.P.y.t.z.Z.: = ].gXNX5.- :.AX%Xn b w w q.b b Z e w.8 c w.w.b e Z ",
"c N b q.q.c x k.wXj.q.v x v r w e L.xX] ] *X].<., $ C Y C y.A A l.G l.Y o.%.: : =.Y.=X` } AXaXn x v w b 9.v v r w w Z b e b b b ",
"n a.b q.w a.N N K.N b w w x b w w 3XaXG.] gXG.OXXX* P y.y A D +.V.nXG A |.%.> OX[.8.gX[ l nXqXn w r v 9.v b 9.w I.v w b e w e q.",
"a.B x wXb b x a.N b v b x w v x n ^.aX#.] sX1.OXtXM.j y p y.nXV.V.nXA A D l A.tX#X;.eX[ k xXoXc x v b 9.v v v v v b v w r b t w ",
"m x v q.x x d.B N 9.N x N v q.w a xXfX| ` *X=.OX;X`.X j y e.A nXt.y.e.C j + '.<XOX=.$X' > fXS.S j.r r 9.b 0.b b b r w r w w w w ",
"N N N x M K.N B N B 9.m v i.r x S |._.k 5.`.5.).`.Y.> + y p A y A p p A + > 7.[.Y.Y.'.4.2 _.V.c c w b b w b b b b b b b w b b b ",
"d.B B x B ! d.N ! ! /.B B M N 7 S $.# Y.gX..rXOXOXdX1.g y i i i e.A y +.: 3.dX{.OXeX<.jX).# D h S / n a c n n n F n c x x /.M v ",
"N N N N N N B N B N B wXB ! N x d o.2.).`.OX`.XX{.).6.: u r.i i i p y v.f =.`.{.{.'.*X].(.> k % @ @ @ 5 O 5 5 @ 5 5 @ 5 a h.a.N ",
"a.g.N i.N N M b q.N B i./.i.w x a +._.;X7.SX(.:XuX| ] l P p r.i e.y i y Y J ' sXuX(.ZX5.'.] .X%X% 3XV.h ) ) V.V.h h c.a d n c B ",
"B N B N N B N v b w N M d.x x w Z l.XX'.| 8XG.XX&Xk f +.G A e.i i i i p y q g *XXX2.7Xo.G.] .X&.% d z h V.V.+.$.S.d $.s d n n n ",
"c x c x / n x N x M wXM n N w w 7 3X%X: $ $ 6 6 6 6 Y qXqXl.w.e.i Z qXnXA Y q 6 $ q 4 4 $ Z.z % 5 5 7 7 7 7 5 5 5 d 5 5 7 n B x ",
"a n n a ^ n / n S F n ^ ) a 8 c a oXaXl z h D h h D C C V.qX8 y y y ) V.j 3XI j +.L L L l bXZ.f 6 d s s a s ^ S s S d ( ( ( ( n ",
"!.%X%X.X!.F.J.F.Z.Z.!.!.%X7XJ.l _.fXZX8X>X>X-X-XXX&X8XfXbXhXrX+XrXbXZXAXfXfXhX:X:XY.gXgXG.SXhXhXbXfXhXvXAXAXAXAXAXvXpX7X&X%X%X.X",
"hXpXpXpXhXZX-XbXrX8XfXhXJXZXfXfX:XiXkXVXZXDXbXbXhXVXCXkXkXsXgXlXgXjXKXZXkXsXkXCXCXkXNXzXVXkXkXjXjXSXCXSXVXKXZXVXKXSXSXSXSXkXVXVX"
};
