/* XPM */
static char *_ac7c4f1eeec4d99f2f07d7cd0bf2ddbkX4WDb92XA4KEbQC[] = {
/* columns rows colors chars-per-pixel */
"64 64 256 2 ",
"   c #17180D",
".  c #191817",
"X  c #001600",
"o  c #251B18",
"O  c #22150F",
"+  c #022906",
"@  c #013709",
"#  c #1B2818",
"$  c #1A371A",
"%  c #14300D",
"&  c #26261C",
"*  c #28361B",
"=  c #372E1F",
"-  c #282826",
";  c #2B3728",
":  c #363629",
">  c #383834",
",  c #342D2C",
"<  c #1F2723",
"1  c #433835",
"2  c #044507",
"3  c #17570B",
"4  c #044815",
"5  c #16471B",
"6  c #06591A",
"7  c #195915",
"8  c #0E5408",
"9  c #254A17",
"0  c #295818",
"q  c #34551A",
"w  c #05690C",
"e  c #066919",
"r  c #16681A",
"t  c #08741A",
"y  c #16741B",
"u  c #27651A",
"i  c #35671B",
"p  c #33731D",
"a  c #1B4724",
"s  c #0B5923",
"d  c #195929",
"f  c #1E5C35",
"g  c #104C2B",
"h  c #284627",
"j  c #35462A",
"k  c #265627",
"l  c #375A28",
"z  c #3A4838",
"x  c #385937",
"c  c #285837",
"v  c #086926",
"b  c #166829",
"n  c #087526",
"m  c #167628",
"M  c #0B6934",
"N  c #1B6A35",
"B  c #0A7534",
"V  c #137435",
"C  c #177838",
"Z  c #266628",
"A  c #386827",
"S  c #267627",
"D  c #3B752A",
"F  c #256837",
"G  c #3A6837",
"H  c #267738",
"J  c #387639",
"K  c #42781B",
"L  c #45573A",
"P  c #464F32",
"I  c #456A29",
"U  c #47762B",
"Y  c #486937",
"T  c #536B3A",
"R  c #487738",
"E  c #56783A",
"W  c #56782D",
"Q  c #677B3E",
"!  c #463A44",
"~  c #1A7C43",
"^  c #116E42",
"/  c #386944",
"(  c #287846",
")  c #377947",
"_  c #397854",
"`  c #276F4C",
"'  c #3C6555",
"]  c #4A4945",
"[  c #554848",
"{  c #495646",
"}  c #565749",
"|  c #575855",
" . c #515053",
".. c #645759",
"X. c #486846",
"o. c #54694B",
"O. c #497747",
"+. c #577A48",
"@. c #576757",
"#. c #487853",
"$. c #567856",
"%. c #4A6A56",
"&. c #637B48",
"*. c #666758",
"=. c #677859",
"-. c #6E6B55",
";. c #5B5C61",
":. c #665C65",
">. c #5B7B62",
",. c #5D6866",
"<. c #686666",
"1. c #746868",
"2. c #677767",
"3. c #777868",
"4. c #7B7674",
"5. c #7B6F78",
"6. c #857979",
"7. c #83756C",
"8. c #198238",
"9. c #078533",
"0. c #258439",
"q. c #358539",
"w. c #20903C",
"e. c #488337",
"r. c #55873A",
"t. c #4D852C",
"y. c #1D8447",
"u. c #1D8550",
"i. c #278749",
"p. c #378546",
"a. c #278B53",
"s. c #378A55",
"d. c #2B9257",
"f. c #359359",
"g. c #33934E",
"h. c #3F9C5E",
"j. c #49864A",
"k. c #588647",
"l. c #488955",
"z. c #588757",
"x. c #519454",
"c. c #66874A",
"v. c #659449",
"b. c #668857",
"n. c #758A5B",
"m. c #74945A",
"M. c #689454",
"N. c #5A8A65",
"B. c #589567",
"V. c #498C69",
"C. c #678A66",
"Z. c #788767",
"A. c #679568",
"S. c #789568",
"D. c #6C8976",
"F. c #788A77",
"G. c #779578",
"H. c #6C9575",
"J. c #4FAB6E",
"K. c #6FA973",
"L. c #64CB7A",
"P. c #85896A",
"I. c #85956A",
"U. c #888878",
"Y. c #95877C",
"T. c #859A78",
"R. c #92957C",
"E. c #89A378",
"W. c #8EAD75",
"Q. c #809554",
"!. c #94C37B",
"~. c #887C84",
"^. c #7B9888",
"/. c #788F86",
"(. c #7CAE86",
"). c #75CA90",
"_. c #8A8785",
"`. c #948A88",
"'. c #899985",
"]. c #97978A",
"[. c #9B9994",
"{. c #8B9693",
"}. c #A3998D",
"|. c #A59A97",
" X c #B29E9A",
".X c #89A688",
"XX c #9AA688",
"oX c #8AA796",
"OX c #97A996",
"+X c #99B497",
"@X c #8EB68F",
"#X c #A7A799",
"$X c #B6AA99",
"%X c #A7B799",
"&X c #B9B79D",
"*X c #A3A88A",
"=X c #AC9DA0",
"-X c #97B6A4",
";X c #9BACA8",
":X c #ACA8A5",
">X c #B5AAA7",
",X c #A7B9A8",
"<X c #B7B5A8",
"1X c #B9B8B5",
"2X c #A1BAB1",
"3X c #969FA4",
"4X c #C4B29C",
"5X c #C7B8A6",
"6X c #C4BBB8",
"7X c #C9B4AD",
"8X c #95CA94",
"9X c #AACC9A",
"0X c #B7C7A8",
"qX c #B9D5A9",
"wX c #A9C6B6",
"eX c #B9C8B8",
"rX c #B9D7B9",
"tX c #A9CAA9",
"yX c #B6E7B4",
"uX c #93DEA8",
"iX c #C8C6B8",
"pX c #D5C9B8",
"aX c #C7D7B9",
"sX c #D8D5BA",
"dX c #C7CDAB",
"fX c #CAE9BD",
"gX c #E0D6B8",
"hX c #BBCDC3",
"jX c #B6F0C8",
"kX c #CACAC6",
"lX c #D5CBC7",
"zX c #C7D7C6",
"xX c #D7D6C7",
"cX c #CCDBD5",
"vX c #D9D9D6",
"bX c #D2CDD3",
"nX c #E5DCC8",
"mX c #E3DCD6",
"MX c #C7E6C9",
"NX c #D9E3CC",
"BX c #CAE9D6",
"VX c #D7E7D8",
"CX c #CFF5D4",
"ZX c #E7E5CC",
"AX c #E8E6D5",
"SX c #F0EBD9",
"DX c #DADBE2",
"FX c #D8F1E6",
"GX c #E7E7E7",
"HX c #F3ECE5",
"JX c #F6F6E8",
"KX c #FDFDF3",
"LX c #FDFEFC",
"PX c #F9F6F4",
"IX c #E6F2EE",
"UX c #E1DBE3",
/* pixels */
".   o     & &   # & o O - & o - - - & , & & - - - & ; * * & , > : : : : : , : * : : : > > > ; z ; ; > > , : > , , : = = 1 : : j ",
"] { ] `.4.] @.3.F.Z.P.*.'.OX@.2.<.| } { { { } { { { L L L P z <.2.{ P } [ { | L L @.{ @. .| @.| { { | | *.] | { { *.} _.1.*.@.,.",
"X.X.o.o.+X@.$.X.Y Y Y X.o.X.$.X.$.$.o.O.$.X.$.>.$.2.o.o.o.o.@.eX].3.4.>X#XF.2.2.G.>.F.D././.^.F./.^.{./.'.'./.^.D./.<.3X1XoX^./.",
"H.C.G.G.+XE.b.b.z.+.O.O.z.$.$.z.z.O.z.z.z.C.N.>.D.$.j j z z < @.] } P z { @.2.D.H.N.G.C.D.D.'.D.H.>.>.2.G.D.D.^.D.oX,.;X{.{.D.N.",
"C.z.=.I.aXI.n.b.+.R z.+.+.b.k.+.z.O.z.b.z.$.C.o.{ *.3.P.U.].U.].Y.R.P.Z.=.P j L X.$.C.z.O.#.X.H.z.$.$.$.$.S.$.H.$.$.%.2XoX^.H.#.",
"j.z.b.XXdXT.E.b.k.k.+.k.c.+.+.R k.k.k.b.k.b.o.*.-.7.$X5XiXpXiXiXpXiXiX<X*XZ.=.X.X.C.G #.A.O.O.z.z.+.$.x +.b.b.b.b.b.z eXOXG.S.k.",
"j.z.b.T.dXE.Z.n.k.R k.k.R R k.k.M.E k.+.+.=.L P.<X5XpXnXAXAXSXSXmXSXZXsXdX0X#XZ.z x X.O.O.J O.O.X.qX%.{ =.C.b.z.b.b.| X Z.T.m.M.",
"j.z.C.T.aXI.n.b.M.k.R R k.v.k.e.r.r.M.b.+.% R.%XiXSXnXAXJXKXKXKXLXLXHXAXZXZXiX#XZ.; X.K.k.R j.z.$.rXrXtXX.+.Y b.k.$.| OX%XT.m.m.",
"O.z.S.E.dXW.I.m.M.v.r.U r.r.k.r.r.e.r.k.+.% *XsXvXAXJXKXKXKXKXKXLXLXKXJXAXZXnXiXR.j x A G j.8XO.A.#.H.MXyXz.z.R M.b.@.| '.T.m.v.",
"j.z.b.W.dXW.W.m.m.r.W.v.v.v.M.r.r.U v.E P P.#XiXSXJXKXLXLXLXLXLXLXLXKXJXZXZXnXpX}.3.j 0 u D 9XD J ) / G G W.k.O.+.$.hXOXOX.Xb.c.",
"k.z.b.9XqXI.m.m.v.r.W.U v.r.r.r.v.U E T j *XiXZXJXKXLXLXLXLXLXLXLXKXKXJXZXZXnXpX$XR.+ 0 R D u k.J R O.G Y A G z.Y C.zX/.tXT.n.c.",
"j.k.S.W.dXS.b.+.v.r.I I U U k.U U U Y P P $XnXnXHXKXLXLXLXLXLXLXKXKXKXSXZXZXnXpX$XU.% 9 5 D A A u A G A q +.k.O.Y =.@.eX'.Z.S.S.",
"o.&.n.I.dXZ.Z.&.c.Y &.I I I l E U A I j P &XnXAXSXKXLXLXLXLXLXLXLXKXIXVXNXZXnXpX$XY.  j h k Y l I l T T Y 9 $.L X.L > <X1X'.=.2.",
"T.Z.R.*X&XXXZ.XX%XW.S.*XE.E.W.E.W.S.Z.=.P &XpXZXAXJXKXKXLXLXKXKXKXHXAXNXZXAXpX5X$X].> ,XOX,X%X0XqX9X9X0X0X%XeX0X0X0X<X1X:X#XOX,X",
"zXNXiXaXNXeXzX0XqXaX0X0XNXaXaXMXdXaXaXU.> #XxXZXnXZXSXHXHXJXSXSXSXZXZXZXZXnXdX4X$X`.> kXzXvXnXgXdXsXXX%X<XeXNXzXaXeX>X<X<XiXeXOX",
"G.T.T.'.F.D.G.H.H.H.G.H.G.G.H.H.E.G.zXU.P [.xXZXZXZXZXZXZXnXnXsXZXnXZXZXxXsX5X5X$X7.: ].[.aXdXP.P.I.R.P.P.Z.=.U.'.OXU.U.3.R.'.OX",
"B.K.z.(.z.j.l.l.l.l.B.l.l.N.z.B.B.N.aX3.1 }.sXAXZXZXZXZXAXsXpX4XgXnXZXnXpX5X&X&X|...& 3.3.aX&XP.n.&.&.I.I.n.S.n.b.I.n.=.P.=.Z.Z.",
"s.p.l.l.l.s.s.i.i.f.s.i.s.s.s.V.) l.C.*.: ].iXAXZXZXZXsXxXsX&X4X4XsXnXpX5X4X$X>X`.<.* =.=.aXXXZ.&.c.m.c.&.c.&.c.m.E E m.&.n.n.&.",
"f.a.f.a.( i.d.f.~ u.~ a.~ a.f.s.p.#.MX3.- [ :XlXAXNXAXdX<X[.6. X<X5X<X&X$X5X$X|.~.] # =.o.aX,X$.k.W c.E E +.E c.&.E E c.c.k.b.b.",
"u.u.~ d.V y.y.a.B u.^ u.u.y.a.i.H N.zX,.. - *.#XxXAXAXSXJXiX4.~.|.<X<X5X5X X}.[.:.] o.o.%XeXzX$.E W U c.E Y T +.n.+.E E E 0 I c.",
"y.~ y.d.~ i.a.d.y.d.i.a.f.i.g.p.H z.BX@.j   Y.$X#X].].>XiXxXkX] _.`.`.>XlX=X_.1.] L T E 9XMXtXo.I K U E Y +.fXb.qXT T E U r.U U ",
"y.~ a.i.V a.a.d.y.y.i.i.a.C f.i.N B.BXX.L % iXiX$XR.> o 7.lXvX- ;.1.[.6XlX`.4.{ j @XA A Y aXqXT q U I I Y qXqXY qXT I E U U 0 U ",
"a.a.a.a.V f.i.y.~ a.i.~ d.i.i.i.b B.MX$.k + iXlXiXxX} > [ 6XDX_._.].1X6X=X1.{ h l 0 D u O.aX0XY i v.E r.Y S.qX+.Y T U A i i p t.",
"d.d.a.a.V C a.a.i.a.a.a.a.i.i.C b l.yX$.k + < _.dXsX4.1.|.bXLXLXmXmX>X1.1.] # l A i u u X.rX0XT c.i U A G Y 9Xz.R 9 i U D D i 3 ",
"a.d.u.u.B C a.a.C a.a.C C i.H i.b l.yXl a + @.| P.5X>XHXPXLXPXvX`.>X].] , - h O.A A 3 u G fX0XT I R U U R @X9XA A A A 0 r.i D 0 ",
"B y.u.y.y.8.i.i.y.a.y.f.i.i.0.C e x.qX@X7 k z [.&X&X6XkXlXlXiX_.] <.] ..~.. ; $ A 0 3 u k rXqXl q q q A qXA R 0 7 D e.u R 0 0 A ",
"a.C y.i.v C i.y.8.i.i.i.0.0.v b v x.fX9X0 k $ P.&XpX_.xX$X#X}.  . ] | :.5._.OX=.% 9 0 u 9 rXqX9 i 3 8 3 D 8 u 8 r 8 3 3 Z 8 3 A.",
"~ y.C C C i.C ~ ( V V C g.H N p.b p.MXL 9 9 j o.R.$X, lX}.U.Y.] > ;.|  . .>XiX].} L 9 l h rXaX% 0 l 9 3 x.3 8 2 u 3 3 3 2 5 k 5 ",
"` _ _ ^ s.( ( ( ( s.( N ( N B.F b / rXz x % j OX#XP 7.> [.#X6.`.`.<.|  .:.6.4._._.2.% j z zXMX% .Xh h $ z.h 5 5 a k x @ h %.$ a ",
"` _ V._ _ f f ` f g g c f N.@X$ a (.hX{ F.# #XVXkX4.mX4.1XHXPXPXmXAXkX>X:X>X#XU.|.[.  # > eXzXo.Z.%XF.F.'.OX.XoX.X+X+XwXwXwX2XwX",
"FXFXFXFXBXFXMXBXBXFXVXVXVXVXzXeXFXBXVXNXkXP | 1XvX1XPXvX#XU.<XiXiX]._.5...6.Y.<X6X].P <XvXxXdXsXaXaXdXdXxXNXaXNX0XaX0XzX'.OX,X+X",
"^.oXoXoXcXFXG.'..X.X^.T.T.G.T.F.'.G.F.U.Z.; U.[.1XGXLXvXbXiX#XU.U.U.6.:.1 [ Y.nXlX4.; Z.U.U.I.I.I.I.I.n.I.P.=.P.I.n.Z.NXF.H.H.C.",
"K.B.N./.IXcXoX#.A.A.A.A.A.A.C.S.A.C.C.S.=.$ F.].iXHXxXkXkXkX1X<X#X#X_.:.[ o $XmXbX6.: Z.=.n.c.n.%X9X&.c.c.&.Q Q.W W n.qXC.z.#.l.",
"p.l._ H.VX2X$.z.j.j.l.l.x.j.A.z.9Xj.C.z.$.* { #XnXiX} kX>X_.1XPXxX<X6.<.1.o }.iXlX<X: =.&.dXb.c.tXtXE I E E E W r.v.E qX8XF ) p.",
"g.i.( _ BXOXl.l.p.p.l.p.) j.A.z./ z.@X#.C.% ].`.}.nX3.>XxXHXPXPX4...~.[.1.1 o }.kXkX4.; =.b.O.$.@X#.+.k.9X9XqX+.E r.I 9Xz.( N b ",
"8.8.( _ BXoX_ p.p.H i.i.p.p.( ) _ jXjX_ #.$ { #XlX7X$XnX#X3.U._.kX7X:X`.[ 1., ].mXPXxX{ o.FXA.O.#.A.O.yXz.$.C.S.k.U I 9XK.N uX0.",
"n n C N FXG.H i.m m C y.i.v J.jX` V.~ uX/ # { U.#X>X`.6X6XkXmXvX:X~.5.6._.1.1 1.>XkX`.> ,XBX$.CXZ D K i R R R A i p U 8XZ H v J.",
"9.B v N MX.XN 8.n n B n n 8.J.V ^ ` ^ ^ / z ] ] 4.:X|.pX6X1X6X6X6X>X:X_.4...- [ 7._.] - eXBXCXO.e.D p i 8Xk.Y W.r.U r.8Xl.b v v ",
"9.9.B b MX.Xb t e n n n n e 8.n jXM B M / z - . | _.=XlX>X].].>XvXvX:X_.<.> , 1.1...4., 3X^.x l.K.Z O.yXR 9X9XtX8XR U W.) b 6 m ",
"9.y.n 4 VX.Xe n t t n w.n n n n b J.v ).h _.] - - > ] >XiXvXmXAX_.1.3.F._.. ! [.|.`.1X] ,.wXz.j.) ) #.yXk k G yX9XA i K.l.K.v h.",
"9.9.n b NXT.b e t t t e w m t t r yXH s { mX6.!  .] -  .4.1.| U.JXmXAX<X, . . :.6XHX<X] OX-Xd Z d H K.u r D yXA 7 D 3 K.s.v B V ",
"n B n b VXT.6 9.w e 8.t w t w y 8 r m J z >X:. .:. .<.<.<.4.[.mXSXxX#X_.>XvX1X|.<X1X*.{ rXx x.b H b r 7 S 3 r 8 u 8 D x.( M v B ",
"B n B s CX(.v n e e e e t t t w y w r 6 a U.] !  .,.{.1X:X_.[.JXpX5X7._.mX6XvX6X|.3.; ; (.uXZ r v C b q.w w y r e H H l.C M C B ",
"B B B N MX.XC B e e v e t t w w w y e s a o.; . , ;._.1X1X_.6.<X|.`.-.`.lX<XHXiX`.3.# { c F K.r N N F N 8 w r S S H b J.V.s M J.",
"C C N F jX^.d b b N b N b r r w e b 6 s d X.; # ] <.:.> 4.4.[ ..1.Y.1.[ U.JXmX#X'.'.; { / G k d N F / F F b Z j.Z H / N.B.b M ~ ",
"4 4 g + BXD.+ @ @ @ _ + @ @ @ 2 + @ @ @ + $ #   <.|.|.[ O o ..|.<XJX1X1.kXAX7.<X%X# # G.$ + + + + + + X + + @ X + 5 %.%.c 5 + + ",
"MXfXMXNXkXvXeXMXzXzXVXzXaXfXqXqX0XrXhXrXMXMXxX`.7.7X7X|...> 5.6XJXLX1X .| *.: T XXaXeXeXeXzXeXeXaXMXAXzXVXFXMXBXBXVXzXNXaXCXCXMX",
"+XG.T.T.#X].0XtXOXOXOX+X+XE.S.S.T.VXFXF.+XE.P.*.[ `.7X X1.1 | _.bXPXbX3.: P.n.Z.Z.'.%XOX].VXzXT.E.E.T.T.'.'..XT.G.'.'.].XXE.G.^.",
"j.K.Z k.k.O.K.N.z.z.N.j.x.x.x.j.O.wXBXN.b.m.E T } `.`.Y.6.1., | `.1X>XU.j Z.S.b.c.m.E.T.F.IX-XN.l.j.j.z.z.z.z.z.b.+.b.b.z.j.B.x.",
") S S q.q.j.l.) ) p.S p.H 0.q.H ) tXBXz.k.t.r.I P.[.1.[ }.`.- ] _.4.6.3.*.&.T M.r.v.b.S.D.FX@Xl.H p.q.p.J J j.x.j.j.j.q.j.J J p.",
"H m q.S q.p.( ( J.).V C m m t m J 8XCXO.e.r.p I X.{ [.} }.Y.  <.GXxX_.4.,X+ S.R t.r.k.M.z.CX-X/ N e 6 0.m m S r q.7 b q.q.m r S ",
"b C m 0.0.b v V.uXg.0.n v n t e Z K.MXJ q.S R Y L ] #X-.Y.3.j { | AX:X`.kX* Y E t.t.e.k.O.FXjXF v t e m 8.n n t e e S m y m m m ",
"V i.m 0.e p.C C J.C m e v v n w r ).yX(.J p.G l ; 1 } Y.$XU.h %.- mX6X:XGX- o.9Xv.t.t.R J CXwXN e e n 8.n m 8.t L.n e m y e r 0.",
"i.M v uXm b v i.C m n m v e n n b ).jX#.J k x L F.:X].6.`.1.F.2.; iX>X:XGX| x l D t.D D Z jX@XF v n n 8.n n n n n m n e t y w e ",
"B v n 0.v v a.M V 8.V v C n w.w b jXjXD.X.G.T.OX<XiXiX}.Y.4.<.1X# iX<X:XbX<.; l D k.j.e.F jXK.Z g.t t 8.n 9.m n m t t m e e e e ",
"C V V v C J.V M V B 8.V n y.e t Z (.BXz } ZXNXxX<XU.xX<X<X:X6.o ] iX>X`.=X| # x e.D e.e.J jXA.Z b e C m e m b m b m b m e m m m ",
"a.M B n M ~ a.V ~ ~ ).B B C C e b (.MXz *.JX6X`.:.| [ [.|.7.O > [.|.>X7X>X1.j l !.t.e.e.R CXA.k F ( N s b N N N H N b b b ).C b ",
"C C V V V C M V B V B uXM ~ V v 6 K.MX{ ; 3.| z ; # $ P { 1.>XiX_.6X1X XbX[.P T t.p r.k.G z.X.% @ @ @ 4 @ 4 4 @ 4 4 2 2 s f.i.C ",
"i.d.V y.C V C V w.C B y.).y.e v d (.BXX.H.Z Z k d F k l j [.vX[.bX<X6XkX|.#XL q v.t.W.A k >.oX-X@ 8XN.k _ / N.N.k k z.d s N b M ",
"M V B C V B C n m e V C a.v v 6 F B.CX/ H S S S S u J R x ].,X@.eX4.{.:X .Z.Y U t.t.U A h >.oX%.4 a c k N.N.#.#.A.a #.d s N V V ",
"b v b v ( V v V v H uXC M C e r 4 8XMXF 8 S S p p p u fXMXo.5 h a $ Z.F.$ h G u K K K U k G.k 5 4 4 4 4 4 6 4 4 4 s 4 2 6 V M n ",
"d N N d ` N ` N F H N ` _ d 7 b k 8XrXk 7 Z u Z 0 G A l C.rXc c G x X.C.x 8XR A U i I I j CXN.a 5 d f f d f / F f F g _ _ ) ( N ",
"^.-X-XoX^.D.G.D.C.C.^.^.-XwXG.x G.zXVXeXtX+XtX,XoXOXeXxXvXVXzX-XzXVXVXGXzXcXhXtX9XT.zXVX_.VXVXzXVXzXcXVXFXFXFXFXFXBXhXwX;X;X-XoX",
"cXhXhXhXcXFX,XVXaXeXzXcXIXDXzXzX1XeXbXVXVXIXGXDXDXDXmXvXbXhXvXBXvXbXPXVXkXzXcXVXVXkXGXUXDXbXbXvXvXGXUXGXvXIXDXDXIXGXGXGXGXbXDXDX"
};
