/* XPM */
static char *ce9b22c9267b40739e5c0385b0f2eee4ETsr2SI4Y5aQkrFG[] = {
/* columns rows colors chars-per-pixel */
"64 64 256 2 ",
"   c #14180D",
".  c #251A17",
"X  c #032905",
"o  c #013708",
"O  c #1A2816",
"+  c #1A3718",
"@  c #14300D",
"#  c #25271A",
"$  c #29321B",
"%  c #272A24",
"&  c #293727",
"*  c #353729",
"=  c #393935",
"-  c #322E2B",
";  c #202724",
":  c #443A34",
">  c #044507",
",  c #0A590A",
"<  c #17570B",
"1  c #044715",
"2  c #184818",
"3  c #075816",
"4  c #175917",
"5  c #184B08",
"6  c #254B1A",
"7  c #275818",
"8  c #315318",
"9  c #05690A",
"0  c #066918",
"q  c #16681A",
"w  c #08731A",
"e  c #1C6E15",
"r  c #29661A",
"t  c #35671B",
"y  c #277719",
"u  c #37741D",
"i  c #2A6B0D",
"p  c #184A25",
"a  c #165A29",
"s  c #1C5C35",
"d  c #0D5627",
"f  c #274927",
"g  c #36492B",
"h  c #275626",
"j  c #385927",
"k  c #384937",
"l  c #285B36",
"z  c #395838",
"x  c #2E4E36",
"c  c #086926",
"v  c #166829",
"b  c #087526",
"n  c #167728",
"m  c #1A6A35",
"M  c #0A7533",
"N  c #137435",
"B  c #177838",
"V  c #0A6A33",
"C  c #266528",
"Z  c #386627",
"A  c #267728",
"S  c #3A7727",
"D  c #236838",
"F  c #3B6637",
"G  c #277738",
"H  c #367B3A",
"J  c #46473C",
"K  c #45573A",
"L  c #425628",
"P  c #456A2A",
"I  c #46762A",
"U  c #476838",
"Y  c #497637",
"T  c #56783A",
"R  c #546F37",
"E  c #4E7129",
"W  c #3C3745",
"Q  c #4B3D44",
"!  c #1A7C43",
"~  c #147142",
"^  c #287846",
"/  c #377947",
"(  c #31714C",
")  c #3B6E56",
"_  c #494945",
"`  c #534949",
"'  c #4A5647",
"]  c #545747",
"[  c #585956",
"{  c #525052",
"}  c #655A5A",
"|  c #6A5554",
" . c #486847",
".. c #576A47",
"X. c #487748",
"o. c #567A47",
"O. c #586656",
"+. c #4A7954",
"@. c #567856",
"#. c #4C6854",
"$. c #637A49",
"%. c #64665A",
"&. c #667B58",
"*. c #71745B",
"=. c #675B65",
"-. c #686868",
";. c #736967",
":. c #677966",
">. c #767769",
",. c #7C7875",
"<. c #716B70",
"1. c #5A6765",
"2. c #857976",
"3. c #867770",
"4. c #198238",
"5. c #078533",
"6. c #258439",
"7. c #358438",
"8. c #35892C",
"9. c #30871E",
"0. c #54853A",
"q. c #498631",
"w. c #1D8447",
"e. c #1D8550",
"r. c #278749",
"t. c #368646",
"y. c #278B53",
"u. c #388955",
"i. c #2B9257",
"p. c #359359",
"a. c #32934E",
"s. c #3F9C5E",
"d. c #49864A",
"f. c #588647",
"g. c #498956",
"h. c #588757",
"j. c #519455",
"k. c #67874A",
"l. c #669449",
"z. c #678857",
"x. c #748B5B",
"c. c #74955A",
"v. c #6A9453",
"b. c #5B8A65",
"n. c #589767",
"m. c #4A8B66",
"M. c #698A66",
"N. c #788768",
"B. c #659466",
"V. c #789569",
"C. c #6B8875",
"Z. c #788A75",
"A. c #6C9475",
"S. c #779678",
"D. c #4FAA6F",
"F. c #6EA973",
"G. c #6AA052",
"H. c #64CB7A",
"J. c #85896A",
"K. c #86946B",
"L. c #888779",
"P. c #869978",
"I. c #93907A",
"U. c #8AA378",
"Y. c #8FAC77",
"T. c #80955A",
"R. c #887C83",
"E. c #917D86",
"W. c #7B9887",
"Q. c #799087",
"!. c #7BAA87",
"~. c #73CD91",
"^. c #8A8784",
"/. c #958988",
"(. c #899984",
"). c #969889",
"_. c #9B9893",
"`. c #8C9692",
"'. c #A79995",
"]. c #A69A8F",
"[. c #8AA589",
"{. c #98A489",
"}. c #8AA695",
"|. c #98A896",
" X c #99B497",
".X c #89B890",
"XX c #A8A697",
"oX c #B5A99A",
"OX c #B5B59A",
"+X c #A4B091",
"@X c #98B6A4",
"#X c #9AADAC",
"$X c #ABA9A6",
"%X c #B5ABA7",
"&X c #AAB8A6",
"*X c #B8B5A8",
"=X c #B9B9B6",
"-X c #AEB3B3",
";X c #A09FA6",
":X c #C2B79E",
">X c #C5B8A7",
",X c #C4BBB6",
"<X c #C2AEAC",
"1X c #92CA92",
"2X c #A9CE9A",
"3X c #A9C5A8",
"4X c #B7C6A9",
"5X c #B9D6AA",
"6X c #A9C4B6",
"7X c #BAC7B6",
"8X c #B9D9B8",
"9X c #A9D7AB",
"0X c #B5E9B5",
"qX c #8FDDA8",
"wX c #C7C6AB",
"eX c #C8C7B8",
"rX c #D4C9B9",
"tX c #C8D7BA",
"yX c #D8D4BA",
"uX c #C6D5AB",
"iX c #C9E4BC",
"pX c #E2E0BE",
"aX c #CABEC2",
"sX c #BAC9C3",
"dX c #B7EBC8",
"fX c #CACBC6",
"gX c #D4CAC6",
"hX c #C8D8C5",
"jX c #D7D7C7",
"kX c #CCDAD5",
"lX c #D9D9D6",
"zX c #CCCCD3",
"xX c #E4DCC9",
"cX c #E4DCD7",
"vX c #F2DDD1",
"bX c #C7E7C9",
"nX c #D8E5CC",
"mX c #CCE8D7",
"MX c #D5E8D7",
"NX c #D6F5D9",
"BX c #CAF4D0",
"VX c #E8E4CA",
"CX c #E7E6D5",
"ZX c #F2E9DA",
"AX c #EFF0D8",
"SX c #DAD9E3",
"DX c #E1DAE9",
"FX c #D9E7E6",
"GX c #D9F7E8",
"HX c #CBEFE4",
"JX c #E6E5E6",
"KX c #F6F6E9",
"LX c #FDFDF3",
"PX c #FDFEFC",
"IX c #F8F8F5",
"UX c #ECEFEE",
/* pixels */
".   .     # #   O # . . % # . % % # # * O $ # $ # $ * - % # = - * * % * * & & & = & = = % = = * * & = = - * = - - * - * : * * g ",
"_ ' _ ^.,._ O.>.Z.N.J.O.(.|.O.:.-.O.' z ' ' ] ] ] K ] ' ' k = >.>.] _ ] ] ] ' ' ' ' ' [ O.' [ O.' _ { [ %._ { ' ' %.{ ^.;.%.O.:.",
" . ..... XO.@. .U U U  . . .@. .@. .@.+.+. .@.@.#.:.@. .@.#.O.-X`.,.,.$X_.,.>.:.Z.C.Z.C.Z.Q.`.Z.Q.W.}.Q.(.`.Q.W.C.Q.-.;X=X}.W.Q.",
"A.M.S.S. XU.z.z.h.o.X.o.h.@.@.h.h.@.h.h.b.b.@.M.M.M.@.z k k $ O.' _ = _ : * %.Z.Z.@.A.C.A.C.S.S.S.@.:.:.S.C.C.W.C.`.1.#X`.`.C.b.",
"B.h.&.K.tXK.x.z.o.U h.o.o.z.f.f.z.X.h.h.h.h.M.@.@. .' :.N.L.).L.).P.I.J.3.3.] * K @.B.b.X.h. .A.h.+.@.@.@.V.@.A.@.@.#.#X}.W.A.+.",
"d.h.z.{.uXP.U.z.f.f.o.f.k.o.o.Y o.o.f.h.B.@.@.&...%.N.{.*XeXrXeXwXuXyXwX>XoXL.*.O.@.z h.B.X.X.h.h.@.+.z o.z.z.z.z.z.k 7X|.S.V.f.",
"d.h.z.P.uXU.N.x.f.I f.f.Y Y f.f.l.T f.f.h.z.....>.OX*XwXjXxXZXZXAXAXCXZXxX>X>XoXL.K  . .@.( X.+. .9X#.' &.c.z.z.z.z.]   N.P.c.v.",
"d.h.M.P.tXK.x.z.v.f.Y Y l.l.f.T 0.0.G.f.f.x.L N.XXwXVXVXCXKXLXLXLXLXLXKXvXvXVXrXOXP.@ P.@.+.+.+.@.8X8X3X .o.U z.f.@.' |.+XP.c.c.",
"X.h.M.U.uXY.K.c.v.l.T I 0.f.f.0.0.q.q.0.f.o.L I.wXVXVXCXKXLXLXLXLXPXLXLXLXLXZXxXrXXX  g U h.1XX.A.+.A.bX8Xh.h.Y z.z.O.#.(.P.c.l.",
"f.h.z.Y.uXY.Y.c.c.0.Y.l.l.l.G.0.q.S l.0.T j N.).rXVXVXCXKXLXLXPXPXPXPXLXLXLXKXZXyXoXJ.g j Y 2XF H / ( F F Y.f.X.o.+.sX|.|.[.z.k.",
"f.h.z.2X5XV.x.c.l.0.Y.I l.0.0.0.l.q.0.T $.@ I.:XrXvXVXCXKXLXLXPXPXPXPXPXPXLXLXKXxXwX+Xg j Y t f.S Y X.F Y Z F h.U M.sXQ.3XP.x.k.",
"d.f.V.Y.uXV.z.o.l.0.P P I Y f.I I I P U ..O L.oXrXvXvXVXKXLXLXPXPXPXPXPXPXPXIXKXxXjXOXL 6 P Z Z r Z F Z 8 o.f.X.U &.O.7X).N.V.V.",
"..$.x.K.wXN.N.$.k.R $.P L j j T P P Z 6 K   ).oXrXxXVXVXCXKXIXPXPXPXPXPXPXPXLXZXCXyXOXL g g U j P j R R U 8 @.K  .K = -X=X(.&.:.",
"P.N.).{.OX{.x.+X+XY.V.+XU.U.Y.U.Y.U.x.P.P.* L.oX>XrXVXVXnXCXAXLXPXPXLXLXLXIXKXCXVXjX*XJ L.&X&X5X5X2X3X5X4XOX7X4X4X4X*X=X$XXX|.&X",
"hXnXeXtXnX7XhX4X5XtX4X4XnXtXtXiXuX4XtX{.7X= /.oXOXwXpXVXVXVXCXZXAXZXAXZXZXZXVXxXxXxX].: *XjXCXjXwXyX{.XX*X7XnXhXtX7X*X*X*XeX7X|.",
"S.P.P.(.Z.C.S.A.A.A.S.V.S.S.A.S.U.K.tX{.L.& >.oX>X>XyXyXVXVXxXVXyXpXxXVXVXVXVXCXZXjX].J L.fXeXL.N.K.I.J.J.N.&.L.(.|.L.L.>.P.(.|.",
"n.F.h.!.h.d.g.g.g.g.n.g.g.b.j.n.h.B.iXZ.M.+ %.'.oX:XOXrXxXVXxXyX>XyXyXVXVXpXVXVXxXxX_.J O.hX+XK.x.$.$.K.K.x.V.x.z.K.x.&.K.&.N.N.",
"u.t.g.g.g.u.u.r.r.p.u.r.u.u.u.m./ d.M.V. .+ [ /.oXoXOX>XyXxXyX:X<X%XyXjXpXVXVXVXCXrX/.= O.tX+XN.$.k.c.k.$.k.$.k.x.T T c.$.x.x.$.",
"p.y.p.y.^ r.i.p.! e.! y.! y.p.u.( m.sXZ.U + _ E.'.:X>XOX:X:X>X*X'.2._.*X4XVXVXVXrX%X` . _ hX&X$.f.T k.T T o.T k.$.T R k.k.f.z.z.",
"e.e.! i.N w.w.y.M e.~ e.y.! y.r.^ m.mXN.F @ % =./.'.oX>X>X>X*XXXR.,.eXKXAXCXVXyXoX} % O {.7XtX..T E Y k.T U R o.x.o.T T T 8 P k.",
"w.! w.i.! r.y.p.w.i.r.y.p.r.a.r.! m.bX..Z h + _ ;./.'.gX%X/./.R.` fXjXeXoX).I.oX%XL.O K |.hXOX..P u I R U o.iXz.5XR R T P 0.I I ",
"w.! y.r.N y.y.i.w.w.w.r.y.B p.r.B n.iX..S < 2 f ' 2./.aX,X_.-.} % cXgX,.. * I.oXeXeX@ K  .tXuXU 8 I P P U 5X5XU 5XR L T I I 7 I ",
"y.y.y.y.N p.r.w.! y.r.! i.r.r.r.V n.BXY < y , 2 + ' <.;X,X=X).L./.cX,X` = { jXrXfXtX@ j @.hX4XR t l.0.0.U V.5Xo.U R Y Z t t u q.",
"i.i.y.y.N B y.y.r.y.y.y.y.r.r.B N u.8Xo.9 9 9 , h O _ -.-.%XjXCXLXPXgX_.<.2.gXeX^.O X j  .8X5XU k.t I Z Z U 2Xh.Y 6 t I S S t < ",
"y.i.e.e.M B y.y.B y.y.B B r.G r.c g.8Xj , 9 9 , 6 g % - : ).*X).cXKXLXIXUX%X,XL.] O.X h F dX5XR P Y I Y Y .X2XZ Z Z Z 7 0.t S 7 ",
"M w.e.w.w.4.r.r.w.y.w.p.r.r.6.B 3 j.8X.X, q q 3 2 g   ,.} { -._ ^.eXgXjXgX,X%X*X{.g j h f 8X5Xj 8 t t Z 9XZ Y 7 < S q.r Y 7 7 Z ",
"y.B w.r.c B r.w.4.r.w.r.r.6.c v v g.bX3X4 4 2 + &.XXL.,.=.[ W ;   ].XXoXjX^.rX*XN.+ 6 Z 6 0X5X6 t 5 5 < S 5 r , e , < < C 5 < G.",
"! w.B B B r.B ! ^ N N B t.G m t.q d.bX' h p x #.).,X%X` { =.=.Q _ L.L.].gX- oXI.] & f h h iX5X@ 6 j 7 5 f.< < > r < < < > 2 h 2 ",
"^ ^ ^ ~ u.^ ^ ^ ^ u.^ m ^ m n.D D ) 7Xk k @ -././.3.3.| { } ;.^./.2.$X_.= ,.J XX_.J @ z x tXtX@ [.f f + h.f 2 2 p h z o f #.+ p ",
"( ) m.) ) s s ( l p a l l b..X+ p !.hX_ C.& $X/.2.XX<X$X%X,XcXcXIXIXUX=X,.cX3.gXcX|.  O g 7XtX] N.&XZ.Z.(.|.[.}.[. X X6X6X6X&X6X",
"HXHXGXGXmXGXbXmXmXNXMXMXMXMXhX7XbXNXlXCXtXk ^.,X%XL.R.=.R.E.).wXrX%XL.XXjXKX,XjX,X] J *XhXhXtXjXtXtXuXuXjXnXtXnX7XtX4XhX(.|.&X X",
"W.}.}.}.kXFXS.(.[.[.W.P.P.P.P.Z.S.S.P.Z.Z.$ ,.gXcX/.{ W =.2.I.J.L.$XeXfXjXLXZX,X].2.* Z.J.U.J.K.K.K.K.x.K.J.*.J.K.x.N.nXZ.A.A.M.",
"F.n.b.Q.GXkX}.+.B.B.B.B.B.B.M.V.B.M.M.N.M.O L.lXcX%X. ` } /.XXXX-X=XfXeXrXjXKXeX_.L.* N.&.x.k.T.+X2X$.k.k.$.$.T.E T x.5XM.h.X.g.",
"t.g./ A.MX&X@.h.d.d.g.g.j.d.B.h.2X+.h.b.@.k *XgXgX'.. ;.%.2.*XjXIX-X^.%XrX] eXxX$X[ O :.x.uXk.k.3X3XT P T T T E 0.l.R 5X1XD / t.",
"a.t.^ ) mX|.g.g.t.t.g.t./ d.B.g./ g.1X( + :.jXfX_.. : ;._.R.[ ,.IXIXUXjX%X>.jX_.L._.% &XM.M.o. ..X+.o.f.2X2X5Xo.0.f.P 2Xj.^ m v ",
"4.4.^ / mX}./ t.t.G r.r.t.t.^ ^ ^ dX0X+.' eXIXlX_.= <.` /.$X=XfX^.L.>.XXjXoX>XgX%X_ k fX:.NXV.@.+.B.X.0Xh.@.M.V.f.I P 2XF.m qX6.",
"b b B m GXS.G r.n n B w.r.V D.dX^ m.( !.g _.eX%X-.= <.E.2.,.^.$XlXcXfXeXeXI.%X'.2.[ _ [ 7XMX#.BXC S u t Y Y Y Z t u I 1XC G c D.",
"5.M c m bX[.m 4.b b M b b 4.D.N m ^ ^ p # J L.,.' % } 2.R.$X$XsX,X,X=X=XeX].oX3.Q ` Q fXMXMXNX+.q.S u t 1Xf.U Y.0.I 0.1Xg.v c c ",
"5.5.M v bX[.v w 0 b b b b w 4.V dXa s l % 3.| ;.-.- = =./.$XlXlX%X_._.$XfXXXL.} . - ` ^.-XA.( g.F.C X.0XY 9X2X9X1XY I Y./ v 3 n ",
"5.w.b 1 MX[.0 b w w b 6.b b b b v D.m .X_ %X/.'._._ . /.2.>.;.^.JXcXlXeX$X_ - % ; _ ^.& :.9Xg.u./ / +.0Xh h F 0X2XZ t F.g.F.c s.",
"5.5.b v nXP.v 0 w w w 0 9 n w w 0 0XB d k *XZX,X%.. . - ,XxXZXZXL.[ <.<.' ; _ ` = R.lX' @X Xa C a G F.r e S 0XZ 4 S < F.u.c M N ",
"b M b v MXP.3 5.9 0 4.w 9 w 9 n 0 9 n G F :.,X%X_.-XcX%X/.].rXZXcX_.<.-.-.-.{ =.=.[ -X_  XF j.v G v q < y < e < r , A j.^ V c M ",
"M b M d BX!.c b 0 0 0 0 w w w 9 w 9 0 0 h X ,.XXfXlX=XcX^.2.<XgXKX_.^.$X=X/.=.{ Q _ ^.* M.2X7 4 v B v 7.9 9 e q 0 G G g.B V B M ",
"M M M m bX[.B M 0 0 c 0 w w 9 9 9 n 9 3 h g >.^.eXJX%XgX/.} /.'.<X2.E.<X=XE.=.-   = ' k z h F.v m m D m , 0 q A N G v n.m.d V D.",
"B B m D dXW.a v v m v m v q q 9 , v q 4 h  .P.).|.lXIX^.{ ;./.;.| Q 3.2.: =.;._ % = & z l / 4 a m D ( D D v C d.C G ( b.n.v V ! ",
"1 1 d X mXC.X o o o ) X o o o > X o X X @ @ O &X7X>.CX,X;.=XUX=X'.| . . ` '.'.-.O O & S.f X X X X X X X X X o X X 2 #.#.l 2 X X ",
"bXiXbXnXfXlX7XbXhXhXMXhXtXiX5X5X3XhXhXtXjXnX7X(.] * %.[ ] =XIXUX=X<.= } '.*X*X>._.lX7X7X7XhX7X7XhXbXCXhXMXNXhXMXMXNXhXnXtXNXNXbX",
" XS.P.P.XX).4X3X|.|.|. X XU.V.V.(.mXCXL.{.(.P.N.L.N.*.* >.gXKXfX^.{ = ;.XX*X/.] %.I.&X{.|.lXfX(.P.P.P.P.(.(.[.P.S.P.P.).{.U.S.W.",
"d.F.C f.f.X.F.b.h.h.b.d.j.j.j.d.X.3XBX&.M.V.o.x.nXMX&.g L.*X%X^.{ = ;.2.2./.I...U x.P.P.Z.GX@Xb.g.d.d.h.h.h.h.h.z.o.z.z.h.d.n.j.",
"/ A A 8.7.d.g./ / t.A t.G 7.7.A H 9XbXh.h.d.0.f.iX8X$.$.2.2.,./.{ % /.'.: ;.).&.R v.v.V.M.NX.Xg.G t.7.t.H H d.j.d.d.d.H d.H H t.",
"G n 7.A 7.t.^ ^ D.~.N B n n w n H 1XBX@.q.j.S u 0.Z @ XX>./.jXJX#.O /./.| oXJ  .X.f.f.z.b.GX@X^ N 0 3 G A n A q 7.4 v 7.7.n q A ",
"N B n 6.6.v c m.qXa.6.b c b w 0 v F.mX .7.y 8.u t Y O fX).-XlX[ #.k ,./.| '.{ ' @.f.0.Y +.GXdXD c w 9 n 4.b b w q q A n q n n n ",
"B r.n 6.0 t.B B D.B n 0 c c n 0 v 1XdX!.7.9.y S S Z O JX$X=XFX% >.J.^.%XE.} = O.@.o.T o. .BX8Xm 0 0 b 4.b n 4.w H.b 0 n q 0 q 6.",
"r.V c qXn n c r.B n b n c 0 b c v .XdX+.8.y 8.S 4 F O.UX$X-XzX- >.L.;.^./.^.$XZ.K g j U z bX.Xa c b b 4.b b b b b n b 0 w n 9 0 ",
"N c b 6.c c y.V N 4.N c B b 6.0 C dXbXB.y 9.8.u h + %.lX_.%XgX: [ } ,.L.].yXwXOX{.I.K...z BXF.m a.w w 4.b n n n n w w b 0 0 0 0 ",
"B N N c B D.N V N M 4.N b w.0 0 C .XdXC A e y r g & ] _./.%X,X` . ,.$X*X*XrXL.*XyXxXVX] z BXn.m v 0 B n 0 n n n n n n n 0 n n b ",
"y.V M c V ! y.N ! ! ~.M M B B 0 v .XBXh 7.y y S  .k >.XX,X%X'.].* . 3.'._.' ' -.^.,XLX%.K BXn.m m ^ m d v m m m G m v v v ~.4.n ",
"B B N N N B V N M N M qXV ! N c a !.0X/ t.8.8.q. .k ).jX$X%XgXL.rXXX;._ ' $ O & J O.>.$ z @.( o o o o 1 o 1 1 o 1 1 o > d p.r.B ",
"r.i.N w.B N B N 6.B M w.~.w.0 c a !.bX .1XA y < 7 z {.XXaXaX$XjXXXjX$X% ..j Z Z P F v.8 h :.[.@X@ 1Xb.h / ) b.b.h h h.a d m v V ",
"V N M B N M B b n 0 N B y.c c 0 G n.BXF H e S S C F N.] $X`.Z.4XK &X`.z Z r I S 0.q.S r 6 b.}.#.+ p l h b.b.X.+.B.p +.s d m m V ",
"N c N c ^ N c N c G qXB V B 0 0 3 ~.bXl , y A y y r + N.:.x 2 6 2 2 3XBXP I I i u q.u S 7 F.l @ 1 1 3 1 1 3 1 1 1 d 1 > 3 N V c ",
"a m m a ^ m ^ D D G m ^ ( a 4 v a .XdXx C C C h 4 Z U z :.bXh j j F  .h.Z 1XZ Z Y Z Z Z 6 NXM.h p a s s a s ( D s D d / / / / m ",
"W.@X@X}.W.C.S.C.M.M.W.W.#X6XS.z W.hXMXeX6X@X6X&X|.|.7XkXFXkXhX&XhXMXMXGXhXhXtX&X7X^.MXkXZ.MXlXkXMXhXkXmXGXGXGXFXGXmXsX6X#X@X@X}.",
"kXsXsXsXkXFX&XMXtX7XhXkXUXFXfXhX=X=XgXJXlXUXJXSXlXlXMXkXzXzXfXlXlXkXUXFXfXfXlXJXDXSXDXDXlXzXlXlXlXJXDXJXSXUXFXSXUXJXJXJXJXzXSXSX"
};
