/* XPM */
static char *_53eebfaaa3343f48a4a3abcdf3e26aeLBWjdNYUCJceQWj1[] = {
/* columns rows colors chars-per-pixel */
"64 64 256 2 ",
"   c #1C1B00",
".  c #191402",
"X  c #0F1200",
"o  c #241400",
"O  c #2B1500",
"+  c #241B00",
"@  c #2C1C00",
"#  c #351A00",
"$  c #25140C",
"%  c #1B2502",
"&  c #023B09",
"*  c #10330F",
"=  c #262704",
"-  c #352703",
";  c #283506",
":  c #38370A",
">  c #282819",
",  c #2B3816",
"<  c #373817",
"1  c #382E11",
"2  c #2A3424",
"3  c #363527",
"4  c #383936",
"5  c #2E2B28",
"6  c #463D14",
"7  c #46300A",
"8  c #4A3A2D",
"9  c #064819",
"0  c #1A4618",
"q  c #0E5419",
"w  c #284618",
"e  c #384918",
"r  c #27561C",
"t  c #375819",
"y  c #2E500B",
"u  c #066818",
"i  c #0B741B",
"p  c #106C18",
"a  c #366715",
"s  c #185A27",
"d  c #145429",
"f  c #374727",
"g  c #275627",
"h  c #355729",
"j  c #285A32",
"k  c #324F31",
"l  c #096A27",
"z  c #166829",
"x  c #097526",
"c  c #177527",
"v  c #186934",
"b  c #0C7735",
"n  c #177737",
"m  c #0D6C33",
"M  c #256728",
"N  c #266938",
"B  c #25773A",
"V  c #357A39",
"C  c #356831",
"Z  c #584B17",
"A  c #4F4C17",
"S  c #664B17",
"D  c #6A571B",
"F  c #715414",
"G  c #484B2A",
"H  c #475928",
"J  c #47563A",
"K  c #525537",
"L  c #4D4C31",
"P  c #765828",
"I  c #6C552C",
"U  c #466729",
"Y  c #48683A",
"T  c #497535",
"R  c #517135",
"E  c #766429",
"W  c #7D6B37",
"Q  c #416D18",
"!  c #3E3A42",
"~  c #167A45",
"^  c #0F7641",
"/  c #277946",
"(  c #367947",
")  c #366F4A",
"_  c #2C5C46",
"`  c #495646",
"'  c #545B46",
"]  c #4D534C",
"[  c #4A6548",
"{  c #566548",
"}  c #4A784A",
"|  c #577846",
" . c #576855",
".. c #4A7355",
"X. c #587856",
"o. c #4E6950",
"O. c #67785A",
"+. c #686B54",
"@. c #5C7265",
"#. c #747966",
"$. c #6B7868",
"%. c #635746",
"&. c #855C23",
"*. c #896927",
"=. c #97762B",
"-. c #966D37",
";. c #987638",
":. c #8E702E",
">. c #A37A3B",
",. c #84611E",
"<. c #9C7843",
"1. c #A67F48",
"2. c #178232",
"3. c #2D843A",
"4. c #54853D",
"5. c #1B8347",
"6. c #288648",
"7. c #298A54",
"8. c #378B4F",
"9. c #478549",
"0. c #588647",
"q. c #588556",
"w. c #488F58",
"e. c #65884B",
"r. c #678959",
"t. c #6F9254",
"y. c #578F68",
"u. c #678867",
"i. c #778867",
"p. c #689669",
"a. c #789267",
"s. c #6C8C76",
"d. c #699476",
"f. c #799578",
"g. c #778877",
"h. c #73A56C",
"j. c #51AC67",
"k. c #66CA74",
"l. c #9A853A",
"z. c #A88538",
"x. c #B48838",
"c. c #B9983A",
"v. c #AE9A3C",
"b. c #C5973C",
"n. c #C9A43C",
"m. c #9B8443",
"M. c #B89747",
"N. c #AF9146",
"B. c #BDA548",
"V. c #879878",
"C. c #848E70",
"Z. c #8DA977",
"A. c #C99B48",
"S. c #CA994E",
"D. c #C8A449",
"F. c #D9A74A",
"G. c #D8B44B",
"H. c #C8A452",
"J. c #D6A755",
"K. c #D8B554",
"L. c #CEB056",
"P. c #E4AF4A",
"I. c #EAB446",
"U. c #E6BD45",
"Y. c #EABC46",
"T. c #E5B34B",
"R. c #EAB44B",
"E. c #E5BC4C",
"W. c #ECBB4B",
"Q. c #E6B445",
"!. c #F2BD4C",
"~. c #E4B453",
"^. c #EBB552",
"/. c #ECBC54",
"(. c #E8BA5A",
"). c #F2BB55",
"_. c #E2AC55",
"`. c #DBBA62",
"'. c #E9BB64",
"]. c #F2BC63",
"[. c #DEC254",
"{. c #EAC245",
"}. c #EDC34B",
"|. c #EECB4C",
" X c #E7C448",
".X c #F2C44D",
"XX c #F2CC4D",
"oX c #F4C848",
"OX c #ECC353",
"+X c #EDCB53",
"@X c #EDCC5B",
"#X c #E8C55A",
"$X c #F3C452",
"%X c #F3CB51",
"&X c #F3CC5B",
"*X c #F4C45A",
"=X c #EDD35B",
"-X c #F5D15C",
";X c #F1D04E",
":X c #EBC867",
">X c #F3CC62",
",X c #F3CA6A",
"<X c #F4D363",
"1X c #F5D46B",
"2X c #FAD769",
"3X c #F5CC75",
"4X c #F4D373",
"5X c #FCDB74",
"6X c #FDDC7B",
"7X c #F8D777",
"8X c #ECD16A",
"9X c #FEE27C",
"0X c #FBE375",
"qX c #DEC864",
"wX c #799888",
"eX c #748D82",
"rX c #75AD88",
"tX c #6FCD8F",
"yX c #889B86",
"uX c #8D9587",
"iX c #97A688",
"pX c #8AA595",
"aX c #95AA93",
"sX c #A4AE99",
"dX c #98B4A6",
"fX c #9AADA6",
"gX c #B6B9B4",
"hX c #ABB8A8",
"jX c #979FA1",
"kX c #B9C8B7",
"lX c #B0CAB1",
"zX c #9ADBA5",
"xX c #FDDC84",
"cX c #FFDE8C",
"vX c #F8DB84",
"bX c #FFDC93",
"nX c #F9CC81",
"mX c #FEE384",
"MX c #FFE38B",
"NX c #FDE888",
"BX c #FFE493",
"VX c #FFE796",
"CX c #C7D6BA",
"ZX c #C6CDB4",
"AX c #BEBDC2",
"SX c #BAD6C7",
"DX c #C9D8C7",
"FX c #D4D9D9",
"GX c #C8D2CF",
"HX c #D8E7D8",
"JX c #CBE7CC",
"KX c #DEDDE6",
"LX c #DBE7E5",
"PX c #D7F0EB",
"IX c #E5EFEF",
"UX c #E2DFF0",
/* pixels */
"$ . > $ . > >   % > > $ 5 > > > > > 5 2 > > 2 > > > 2 2 2 > 3 2 3 3 3 3 4 ! 4 5 3 3 3 4 5 4 3 f 2 2 4 4 4 4 ! 5 3 3 5 5 8 4 4 k ",
"` ` ` uX#.J { #.i.i.C. .uXjX .$.O. .` ` ` ` `  .` ' ` ` J k G #.+.K L ' ] ] ] ] ' { J  . .]  .` ` ` ] ] @.` ] ] ` +.] uX$.+. .@.",
"[ [ o. .sX . .[ Y Y [ [ o.[ X.[ ......X.X.o.[ o.[  .o.o.' o.` aXC.O.#.uXuX#. . .$.X.s.s.eXeXwXf.f.wXpXwXyXpXeXwXu.g.@.jXgXpXwXd.",
"p.u.f.V.sXyXu.r.q.9.} } X.X.X.X.q.X.q.q.X.X.{ J K L L J L J f #.+.K G L G G L K J [ @.$.s.d.eXd.d.X.@.@.f.s.s.wXs.yX@.fXyXyXs.y.",
"r.q.X.C.DXC.i.r.} V q.} } r.0.| q.} r.u.O.' 1 . o o o O o o . O + O O + o . + . . , { O.o.X.) f.u.X.X...X.p.} p.X.X.o.hXpXyXf.X.",
"9.0.r.iXZXV.Z.r.0.0.4.9.e.0.| T | C Y Y { G - 6 P ;.;.-.;.-.-.<.;.<.m.m.z.l.m.W Z 1 < { { J [  .X.....C X.r.r.r.r.r.k kXiXf.f.q.",
"4.0.r.V.ZXV.a.t.0.T 0.0.T T 0.R R e f e G - # F >.H.D.A.A.A.S.J.K.K.L.G.G.G.L.M.E o - : A , f ` o.kX .J X.r.r.q.e.r.` X i.V.a.a.",
"0.0.r.V.CXC.t.e.t.4.T T e.e.| U e % : A D D F =.D.(.(.(.(.'.'.:X:X<X>X&X+X@X@XD.=.F D S Z :   J o.lXkXlX[ | Y r.q.X.` aXsXV.a.a.",
"T 0.t.V.CXZ.a.t.e.e.4.T 0.R R e A + E m.N.v.c.D.[.8X4X,X8X4X4X4X7X7X1X=X+X+X|.[.n.v.v.N.l.E + 3 [ ` s.DXlXr.q.} r.q. .o.yXf.a.r.",
"0.r.r.iXZXZ.Z.t.t.0.Z.e.e.R H ; @ # :.B.qX#X#X@X4XmXMXmXmXmXmXmX9X9X4X<X@X+X+X+X#X[.#XqXB.:.@ + = f f [ Y Z.} } q.} kXaXsXiXr.r.",
"9.q.r.hXlXC.t.t.t.T Z.U | H = 7 P *.H.:X4X1X1X4XxXMXcXxXxX6X6X5X0X0X2X1X<X1X2X2X1X1X1X1XqXH.:.E : ; f H U h 0.q.Y p.kXg.hXV.r.e.",
"} q.a.iXCXC.t.e.t.e.C e e : = D ;.S.'.3X6X6X6XMXMXMXxX3X,X:X>X&X<X2X5X5X6X6X6X6X9X9X6X7X,X`.D.l.D   : ; ; | } } [ r.X.kXyXi.a.a.",
"..O.i.C.ZXi.r.O.| R Y e . # 7 *.B.8X7XmXBXMXcXMXBXcX7X:X(.~.R.W.#X@X2X9XmXMXcXxXmXNXNXNX9X5X:XB.E 7 - . < f { [ [ J 4 gXgXuXO.O.",
"yXi.iXsXsXiXi.Z.iXi.%.I # P =.N.L.7X6XvXMXvX7X3X3X3X,X(.T.P.P.R.E.#X>X2X6X7X7X7X6X6XxXmXxX6X2XK.M.;.P - I #.iXaXhXgXgXgXhXsXsXhX",
"DXDXZXCXDXkXDXhXiX+.%.7 7 :.M.`.8XmXMXNXmX4X:X(.(.)./.^.^.^.^.^.R.W.$X&X&X#X#X#X<X1X6XBXBXMXmX1X:XD.;.7 6 K #.iXkXkXgXgXgXZXgXsX",
"f.V.f.yXf.u.u.O.K < 7 S &.M.`.:XvXMXNX6X5X@X/.Q.T.R.R.R.^.^.T.T.R.W.W..XOXW.E. X+X@X4XMXcXMXMX6X4X:XM.:.S 6 > ' i.uXC.V.#.uXV.iX",
"p.p.y.rXw.) o.G 6 # I -.M.J.:XxXxXMXxX4X>XOXW.R.R.R.R.).).R.Q.Y.}.}.}.W.W.}..X}.%X%X-X<X6XmXmXmXmX8XK.D.l.E - G L O.O.O.a.r.r.i.",
"8.8.8.y.w.N g % + # P N.K.3XxXMXMXMX6X,X(.T.T.R.R.I.W.$X$XW.U.U..X}.}.W.W..X$X$XXX%X%X&X1X0XmXMXMX9X2X@XD.*.O o = e U t.| a.a.| ",
"7.8.7./ / N r ; E *.B.`.3X7XxXxXxX6X,X(.~.T.T.R.R.R.W.).$X}.W.Y.}.{.}.}.}.}..X$XXX%X%X+X<X2X6XmXmX9X2X=X[.B.:.E : e H e.e.R e.t.",
"7.~ / 8.n M w A l.B.`.3XxXxXMXxX3X:X(.(.~.T.R.R.I.I.R.W.W.}.}.}.{.Y.{.}.}.W.Y.}.XXXX%X%X&X<X1X6XMXmX1X#XOXG.H.l.Z : H R R t T 0.",
"~ ^ 6.8.v C e I M.:X4XxXVXbXMXxX,X(.~.~.~.T.R.I.I.I.I.I.Y.}.%XXX{.Y.}.$X%X}.U.U.}.XXXX%X%X@X>X1X6XxX5X1X<X@X#XN.S 6 G | R R T T ",
"5.5.6.B s g 1 S x.(.,X7XBXBXNXxX,X~.P.~.R.W.!.W.I.I.Y.Y.}.XX%X%X.X}..X$X%X}.}.}.XXXXXXXX+XOXOX>X4X7X6X5X2X&X#Xv.F : 1 H H U t U ",
"7.6.B M 0 = @ S x.G.:X6XVXBXMX6X,X~.T.^.R.!.*X$XW.W.W.}..X%X%XXXXX.XXX$X$X%XXXXXXXXXXXXX|.E.E.OX@X1X6X6X5X-XOXc.F o = ; y t Q 4.",
"7.8.( g X Z P >.b.E.@X7XMXcXxX7X,X^.T.R.I.W.$X!.!.W.W..X%X%XXXXX.X.X$X$X%X%XXXXX|.|.XXXX%X}.W.}.+X-X2X5X2X-X}.n.=.E Z X e U a y ",
"7.6.( h X :.M.F.Q.}.=X5XNXvX3X,X(.R.R.I.I.I.W.!.!.$X.XY.Y.XXXX}.{.{..X$X%XXX|.XXXXXXXXXXXX.X.X.XoX;X<X2X-X%X}.E.D.N.W . H y a a ",
"b 5.B g   ;.J.*XOX&X<X0XmX7X'.(.^.R.R.I.Q.I.Y.Y..X$X.XU.U.}.XX|.{.Y.}.XXXXXX|.XXXXXXXXXXXXXXXXoXoXXX%X%X%X$XXX|.>XL.m.. e y t a ",
"5.5./ g . >.K./.>X2X0X0XmX4X'.~.^.W.W.I.Q.Y.Y.W.$X$X$X}.}.}.XX|.{.}.}.XXXXXXXXXXXXXXXXXXXXXXXXXXoXXX}.OX$X$XXXoX XG.;.+ < , 0 h.",
"b / / w + -.A.&X4X6XmXNXNX4X].^.).$X.XY.Y.Y..X$X$X%X%X%X%XXXXXXXXXXXXXXXXXXXXXXXXXXXXXXXXXXXXXXXXX.X}.OXOX$XoXoX{.n.=.o = 2 C & ",
"7./ ) k . -.H.(.3XbXVXBXMX4X(.^.).$X$XW.Y.}..X%X%X%X%X%X%XXXXXXX%XXXXXXXXXXXXXXXXXXXXXXXXXXXXXXX%X%X XE.OXOXXXoXU.n.;.o < o.* d ",
"v ( ..k + <.A.(.nXbXVXVXMX4X/.R.W.W.}.}.}.}.}.}.$X%XOX}.}.}.XXXX%XXXXXXXXXXXXXXXXXXXXXXXXXXXXXXX%X%XOXOX#X+XXXXXW.K.;.O #.fXlXlX",
"PXPXGXuX# -.A.(.3XcXBXBXMX4X/.R.Q.U.W.$X.X}.Y.U.}.%XOXU.U.}.XXXX%X%XXXXXXXXXXXXXXX%X%XXXXXXX|.XXoXoXXX%X%X%XXX|.&XK.;.# %.uXdXpX",
"wXpXeX+.O ;.b.(.3XbXBXMXNX4X/.Q.W.U.}.$X%X}.}.}.}.%X%X{.U..XXXXX%X%XXXXXXXXXXXXXXXXX%XXXXXXXXXXXoXoXXX}.|.|.XXXX).J.1.o ' O.d.y.",
"p.p.@.{ O -.J.(.nXbXVXNX9X<XOXW.W.}.%X%X%XXXXX|.%X%X%XXX|.XXXXXXXX%X%XXXXXXXXXXXXXXXXX|.XXXXXXXXoX.XOXE.}.oXoXoX/.H.<.o K } 9.w.",
"8.9.) J + -.S.'.nXbXVXNX9X1XOX/.}.}.XX%X%XXXXX|.%X%X%XXXXXXXXXXXXX%X%XXXXXXX|.|.XXXXXXXXXXXXXXXXoX.X/.E.}.{.oX}.T.J.<.o i.j ( 6.",
"8.8.) k = ;.S.'.nXbXVXBXNX4X@X/.}.}.}.XX%XXX{.}.%X%X%X%XXXXXXXXXXX%XXXXXXXXXXXXXXXXXXXXX%XXXXXXXXXXXOXOX}.}.Y.Y.R.A.;.+ h N m b ",
"5.n N g   ;.A.'.3XcXVXMXNX6X>X*XW.Y.Y..XXX{.{.{.|.XX%X%XXXXXXXXXXXXXXXXXXXXXXXXXXXXXXXXX%XXX%X%XXX%X+X+XOXW.I.I.T.A.;.  Y N zXb ",
"b m v g   ;.D.(.>X6XmXMXNX6X>X*XW.Y.Y..XXX{.{.{.|.|.%X%XXXXXXXXXXXXXXXXXXXXXXXXXXX|.XXXXXXXXXXXX|.|.+XOXOX/.R.R.R.A.:.  w j m j.",
"2.m z 0   ;.D.T.@X2X6XmXNX7X*XW..X.X.XXXXXXX{.oXXXXX%X%XXXXXXXXXXXXXXXXXXXXXXXXXXX|.XXXXXX{.{.{.|.|.}. X/.).).).P.D.;.  Y d q l ",
"2.3.z 0 = ;.S.(. X+X1X9XmX4X/.I..X.X$XXXXXXXoXXXXXXX%X%XXXXXXXXXXXXXXXXXXXXXXXXXXXXXXXXX.X{.U.{.XX}.}.U.W.*X*X/.(.S.;.. f j d n ",
"x 3.z *   P >.A.G. X>X5XNX7X*XW.W..XXXXXXXoXXXoXXXXX%XXXXXXXXXXXXXXXXXXXXXXXXXXXXXXXXX%XXX{.Y.}..X.XY.Q.W.*X/.F.A.;.E   h p.s w.",
"2.c z 0   8 P -.c.G.@X5XmX7X>X$XOXU.}.$XXXXXXXXXXXXXXXXXXXXX%XXXXXXXXXXXXXXXXXXXXXXXXX%X$X$X.X}.!.I.I.I.I.W.P.b.=.F A X h s v n ",
"i x l d  .6 # S z.G.@X5XxX6X1X@XOXE.}.%XXXXXoXXXXXXXXXXXXXXXXXXXXXXXXXXXXXXXXXXXXXXX$X$X$X$X.X.XI.I.I.I.I.T.F.x.S @ % w g q z m ",
"x b l s sX%.O S x.(.).>X,X4X7X4X>XOX}.%X%XXXXXXXXXXXXX}.}.}.XXXXXXXXXXXXXXXXXXXX}.}..X$X$X.X.X.X!.!.!.R.R.T.F.z.S - e [ M l m b ",
"2.x m j DX#.1 I M.:X*X*X'.3X6X6X1X&X&X&X%XXXXXXXXXXX}.U.U.}.XX%XXXXXXXXXXXXXXX|.U.U.}.$X$XW.W.W.!.!.).T.^.~.K.m.I = k u.9.q m j.",
"~ ~ B N DX#.1 Z l.D.F.T.K.:X6X6X5X2X<X&X%X+XXXXXXXXX}.{.{.}.XX%XXXXXXXXXXXXXXX}.}.Y.}.$X.XW.I.R.*X*X).P.F.S.M.;.6 < k u.p.s v n ",
"& 9 0 * CX{   < E :.b.F.~.@X,X1X5X5X2X&X&X%XXXXXXXXXXX}.}.XXXXXX%X%XXXXX%X%X%X%X%X}.}.W.W.I.I.R.R.W.R.~.D.x.*.I 1 = J o.j d & & ",
"JXHXCXDXCXgX$.> = # &.x.F.OX&X<X5X9X5X<X&X%XXXXXXXXX%XXX%X%XXXXXXXXXXXXXXX%X%X%X%X}.W.W.R.I.T.Q.I.R.T._.M.&.# - 1 C.hXJXDXHXPXDX",
"sXV.f.Z.aXf.wXg.` - P =.c.D.T.&X4XmX0X-X+X%X+X|.XXXX%X%X%X$XXXXX}.}.}.}.}.%X%X%X}.}.}.W.W.W.R.T.^.F.b.c.=.D - L { O.a.yXiXyXf.yX",
"q.h.M 9.q.} p...J = : S &.x._.].7XmX5X<X&X+X+X;X|.;X+X+X%X$XoXoX{.E.E.E.W.OX%X$XW.W.}.}..XW.P.^.~.J.x.P Z : ; h } } q.q.q.q.p.q.",
"V M M 3.3.9.w.( j w ; = - ;.A._.,XmX2X<X&X@X=X=X=X=X<X<X-X&XXXoX}.W.E.~./.*X&X$XE.T.W.$X$XW.T.F.D.S.:.- - ; w } 9.9.8.3.9.V V 9.",
"B z 3.B 8.8.B / w.h.r , - D -.M.K.1X=X=X=X1X9X9X5X5X5X5X5X<X%X.X.X.X/.OX&X2X2X2X*X^.^.T.W.E.T.A.x.:.P - : w g s 3.p c 3.3.c z B ",
"m n B 3.3.z z w.zX( M 0 X + 7 ,.B.=X=X=X=X2X9X6XNXmXNXNXmX4X<X+X$X%X&X>X<X5X0X2X/.P.T.T.T.G.K.c.&.7 @ X e g M z p p 2.i p c c c ",
"n 6.c 2.p 3.B B w.B s 0 w ; = S z.D.G.OX+X2X5X9X6X6XxXMXMX6X1X<X-X2X1X4X4X5X5X<X*XR.R.I.P.D.M.=.S + ; e g M V c k.i u 2.i u i 2.",
"5.l l zXc c l B c 3.z N g 0 % A D *.M.G.+X&X<X2X1X4XxXcXMXmX9X0X0X9XmXmX6X5X2X&XW.Q.R.R.F.x.*.D : ; w C s z c i i c i u u x u u ",
"^ l x 2.u u 6.l n x n l N g r % + # :.H.#X#XOXOXOX>X7XxXcXMX9X9X9XxXxXxX6X1X>X/.T.F._._.S.&.# O ; * r V c c 2.x c i u i u u u l ",
"^ b n l n j.b l b b 5.n v B q 0 , + E l.N.c.c.n.G.(.,X3X3X3X4X,X4X3X3X4X,X>X(.G.b.x.z.N.;.I O 1 w r z c x x x i c c c c u c 2.b ",
"7.m m l l n 7.b 5.n tXm v / B q w = : A Z D F =.A.~.^.(.].'.'.'.'.(.'.(.~.(.#XA.:.S Z Z A 1 % , h V z u l m v m B N v z z tX2.b ",
"n n n n b b b ^ b n b zXm n n z 0 Y e.e e - + F z.D.A.A.A.J.S.S.A.H.J.S.J.A.A.z.D + : < ; f f * & & & 9 & 9 9 & 9 & & & s w.6.n ",
"6.8.n 2.b b ~ b 6.n m n tXn u u s u.hXh a.e = 6 E ;.;.;.;.-.-.-.;.:.-.-.-.>.-.*.Z = R H w o.pXdX* dXq.g ) ) y.q.k g q.g q z z l ",
"v n c n b b n b n l n n 6.u i u N d.JXC C k * % .   o + + o + o . o o O O o O o X ; t t h X.pX..* 0 j g y.y.....d.d ..g q v c c ",
"v l z l ~ n l n l B zXn m n u l q dXJXC r M r ; e ; e V.C.H e y y w Z.V.f e A ; y a Q a y h.k * & 9 q 9 q d 9 9 9 d 9 9 q c l x ",
"s v N s N v / v N N v N / d d s g aXCXr r C h h w Y h h X.lXe h h g k X.k iXH h U t a U t JXu.k 0 d j j s j ) N j N d ( ( ( ( v ",
"wXdXdXpXwXs.wXs.s.s.wXpXdXlXwX` eXHXHXlXlXhXdXlXaXsXkXGXHXGXDXhXCXHXLXLXDXDXDXkXgXuXHXJXg.HXFXGXLXGXGXHXPXPXPXPXPXHXSXlXdXdXfXpX",
"GXSXkXkXFXLXhXHXDXkXSXFXIXLXGXGXAXgXGXHXHXLXIXFXFXFXFXFXGXGXFXFXFXGXIXLXGXGXFXLXKXGXUXKXFXGXFXFXFXLXKXLXFXIXLXFXIXUXUXUXUXFXKXKX"
};
