/* XPM */
static char *_a9ed44ef20f4b33992eb92a47cb7561GYqg2zOzPLckXVyl[] = {
/* columns rows colors chars-per-pixel */
"64 64 256 2 ",
"   c #0B0B05",
".  c #0C0B0B",
"X  c #060604",
"o  c #1D0503",
"O  c #1B0905",
"+  c #1C0C0A",
"@  c #140A07",
"#  c #0A1509",
"$  c #1B130E",
"%  c #17140A",
"&  c #140E12",
"*  c #151313",
"=  c #1C1514",
"-  c #1C1A15",
";  c #1C1B1A",
":  c #171818",
">  c #0E0F10",
",  c #230605",
"<  c #230905",
"1  c #230609",
"2  c #230B0B",
"3  c #2C0E0D",
"4  c #2B0B04",
"5  c #330E0E",
"6  c #380F0A",
"7  c #2D1402",
"8  c #2D110E",
"9  c #261509",
"0  c #32110E",
"q  c #341703",
"w  c #2D0F11",
"e  c #260E13",
"r  c #330E12",
"t  c #380B12",
"y  c #241414",
"u  c #2C1213",
"i  c #221915",
"p  c #2C1816",
"a  c #231C1B",
"s  c #2B1B1B",
"d  c #28151B",
"f  c #321112",
"g  c #331C1C",
"h  c #341717",
"j  c #192619",
"k  c #1C3A18",
"l  c #0B320E",
"z  c #23221D",
"x  c #27261A",
"c  c #35241E",
"v  c #283C16",
"b  c #352403",
"n  c #1D1D22",
"m  c #261D21",
"M  c #351E21",
"N  c #1F2222",
"B  c #242323",
"V  c #2C2423",
"C  c #2C2D2B",
"Z  c #262926",
"A  c #342323",
"S  c #332D2C",
"D  c #3B2B2B",
"F  c #382725",
"G  c #293625",
"H  c #34322D",
"J  c #39342B",
"K  c #352E32",
"L  c #2F3131",
"P  c #343333",
"I  c #3C3432",
"U  c #3C3B34",
"Y  c #3C3C3C",
"T  c #373938",
"R  c #2B2C31",
"E  c #4B3706",
"W  c #422A2A",
"Q  c #443334",
"!  c #433C3B",
"~  c #4B3C3C",
"^  c #463836",
"/  c #533B3C",
"(  c #4A332C",
")  c #0E4718",
"_  c #35491D",
"`  c #284F18",
"'  c #0A6B1C",
"]  c #145528",
"[  c #284B2B",
"{  c #344926",
"}  c #34572A",
"|  c #2C4632",
" . c #394537",
".. c #295836",
"X. c #375836",
"o. c #27582E",
"O. c #17672B",
"+. c #08762C",
"@. c #196A36",
"#. c #097934",
"$. c #167638",
"%. c #106F2A",
"&. c #276529",
"*. c #276738",
"=. c #33653B",
"-. c #287237",
";. c #367230",
":. c #276117",
">. c #534600",
",. c #564F00",
"<. c #766808",
"1. c #43433C",
"2. c #49433D",
"3. c #564539",
"4. c #485532",
"5. c #4C6836",
"6. c #496F30",
"7. c #6F6334",
"8. c #695522",
"9. c #3C3B42",
"0. c #433D41",
"q. c #4A3D44",
"w. c #543F40",
"e. c #3E4642",
"r. c #3B5745",
"t. c #157943",
"y. c #3B6649",
"u. c #277748",
"i. c #34754B",
"p. c #444343",
"a. c #4B4344",
"s. c #4B4C45",
"d. c #4C4B4B",
"f. c #474847",
"g. c #534444",
"h. c #554946",
"j. c #554C4B",
"k. c #5C4C4C",
"l. c #5A4648",
"z. c #4E5B4D",
"x. c #495547",
"c. c #53534D",
"v. c #5B514C",
"b. c #555849",
"n. c #4C4E51",
"m. c #534D52",
"M. c #5A4D52",
"N. c #544750",
"B. c #545353",
"V. c #5C5353",
"C. c #5B5B55",
"Z. c #5B5559",
"A. c #5D5C5B",
"S. c #555956",
"D. c #614C4D",
"F. c #604647",
"G. c #61544D",
"H. c #634E52",
"J. c #635454",
"K. c #645956",
"L. c #62565A",
"P. c #645B5B",
"I. c #6A5B5B",
"U. c #695756",
"Y. c #705E5C",
"T. c #486747",
"R. c #59694C",
"E. c #4A6B53",
"W. c #5C6355",
"Q. c #5D635C",
"!. c #5B6C5C",
"~. c #556656",
"^. c #487756",
"/. c #587758",
"(. c #4D7549",
"). c #62635D",
"_. c #64695A",
"`. c #667859",
"'. c #627947",
"]. c #5F5F61",
"[. c #635D62",
"{. c #695D63",
"}. c #675963",
"|. c #5D6861",
" X c #5E7F64",
".X c #646362",
"XX c #6B6464",
"oX c #636B63",
"OX c #696A64",
"+X c #6A6769",
"@X c #677468",
"#X c #76786C",
"$X c #777C75",
"%X c #6F6F6D",
"&X c #867607",
"*X c #887B59",
"=X c #1A853C",
"-X c #2E8435",
";X c #1B8349",
":X c #288854",
">X c #368655",
",X c #28884C",
"<X c #37A25E",
"1X c #5A8654",
"2X c #4A8858",
"3X c #668859",
"4X c #6E8953",
"5X c #578565",
"6X c #688665",
"7X c #77896A",
"8X c #6A9566",
"9X c #768578",
"0X c #799577",
"qX c #6D9370",
"wX c #70A575",
"eX c #43A869",
"rX c #9A8F07",
"tX c #9C8E2B",
"yX c #B0A620",
"uX c #C7BB2E",
"iX c #D2CB2F",
"pX c #E0D728",
"aX c #84887B",
"sX c #83977A",
"dX c #9B9460",
"fX c #AC9D4E",
"gX c #C4BA50",
"hX c #C5C347",
"jX c #EBE44B",
"kX c #7A9184",
"lX c #7C8B83",
"zX c #7DBF8F",
"xX c #869785",
"cX c #8A928B",
"vX c #9BA698",
"bX c #8FAA92",
"nX c #98B0A5",
"mX c #A9B7A8",
"MX c #B0B7B1",
"NX c #A1B999",
"BX c #B3CAB4",
"VX c #90E4A9",
"CX c #C2CDBB",
"ZX c #C0BDC4",
"AX c #BCC9C8",
"SX c #BCE4C2",
"DX c #CAD6C9",
"FX c #D7DAD9",
"GX c #CBD0D0",
"HX c #DAE6D9",
"JX c #CCE7CF",
"KX c #DAE6E3",
"LX c #D4E7E8",
"PX c #E3E8E7",
"IX c #E7EEF5",
"UX c #DADDE0",
/* pixels */
"- % i y y c c y x x z x z x V x x x x c x x x x x x G G G x J F ^ F F J D J J J J U H U H U C T P L T G U U U J H H S S U U U U ",
"s.x.b.aX*Xh.K.#XaXaX9XW.cXvXc.#X_.b.b.b.x.x.z.R.x.z.z.x.x. .U %X_.b.h.b.b.b.c.2.C.c.c.C.S.A.S.S.f.x.~.~.~.z.x.s.d.A.d.aX%X@X~.oX",
"T.T.~.W.vXOXW.W.z.z.z.~.~.~.!.z.@XW.~.!.!.!.!./.~.!.!.E.!.~.~.MXvX@X$XvXvX9XoX#X9X#X9X9X9XlXcX9XkXkXkXxXxXkXlXlX9XlX@XvXmXbXxXqX",
"qX6X0X0XvX!.W.Q.oX!.!.!.!.|.@X@X@X!.oX@X!.z.x. .r.r.E.z.z.z.x.9X#X@X@XoX!.oX@X@X@X@X@X@X@X@X$X@X~.r. .x.|.@X$X$X+X$X|.9XkX0X0X X",
"8X1X6X6XbX .x.C.oX~.@X!.Q.@XQ.Q.oX.XoXoXC. .B # j Z  . .p.f.c.A..X.XOX%X.X)..XOX.X%X.X+X.X.X.XQ.e.Z . C s..X+X+X.X%X.XoX9XsX0X/.",
"(././.@X4.1.c.C.C.OXQ.).oX).OXOX.X.XOX.XA.a.Z . ; P Y Y p.! m.P.XXXXXXXX.X.X.X.X.X%X[.XX+XXX.X.Xf.C . K d.XX{.}.XX}.XXC.9XxX0X`.",
"1X3X7XR.{ 2.a.L.XXXXV.V.K.I.).XX.X.X.XB.0.P B & - C H P T P T q.a.a.a.a.a.a.p.p.a.a.a.a.a.a.A..Xp.C X K d.XX{.}.Z.P.P.OX`.sX6X8X",
"(.1X3XR. .1.j.L.P.P.V.V.V.P.XX+X.X+XA.T : * ; ; B z = - * ; a = = = ; = : = = ; = = a = = = d.B.p.C X K d.XX[.m.m.m.)._.7XsXqX8X",
"6.3X3XR. .1.a.L.P.P.B.a.V.P.{.XX.XS.L B = = = a - - - = = - = i = = ; = = - = - = = i = = - B H T Z X P d..XZ.m.p.B.S.W.6XsX8X3X",
"1X1X3X/. .1.B.A.[..XZ.B.A.P..XXX.Xd.; = = a i $ i = i $ $ i y y i y i = = i i i y y i = $ = i V P C   C f.[.Z.d.d.s.z._.7X0X8X3X",
"1X1X8X`. . .d.B..X.XA.A.)..X.XXX+Xj.= @ + e p u u u u 1 1 u u u u u u 1 2 u u u u u u 1 + 2 y i S V . S a.[.Z.j.a.a.C._.7XsX7X3X",
"(./.6XR.H U p.B.B.B.B.B.B.B.B.j.! K i + + w u f u u u , , u f f u f u , , u f u f w w , , u u y z - X V ! j.a.0.T a.c.s.`.aX7X7X",
"(./.6Xz.x V S P 0.p.p. .Y 1.0.! B a = @ + u 3 w w f 0 , , 0 f w w f f , , u f w r r w , 1 p y y a * X a S Y P P S H T U #XaX`.`.",
"0X0XxXW.  > ; = ; ; ; : ; ; a a = * = @ 2 u f g r f 0 , , 0 f 0 r f u , , u f w r r f 1 1 y 2 + &   X   * ; * *   : - ; OXvXvXmX",
"JXCXBX#X- * ; ; ; : : : * . > a p.f.d.a.^ p w 3 f r 8 , , 8 0 0 f f u , 1 u f f r r f 1 1 u p d a ; : * * ; : : ; : > - %XCXMXmX",
"0XsXsX~.C P C P P P C C B . > C B.A.B.P.J.g h w f 5 5 , , 3 8 f f u 3 < , 3 r f h r w , o p A F S P S z z C C Z n B K C x.cXxXvX",
"wXqX5X/.z.B.B.B.S.m.M.a.! ; & K V.j.I k.k.c u w f f f , , f 8 f u u u , , 8 r 5 r f u o O p w.J.J.V.V.I H s.d.Y Y Y d.c.W.`.7X4X",
">X2X2X/.z.S.A..X].P.}.M.a.m * K V.g.s k.G.g g u f f 0 , , f 3 u u u u , , 8 5 5 t 5 8 O O y g.U.N.M.J.^ I V.B.a.p.n.j.W._.7X4X'.",
">X>Xi.E.z.B.A.[.+XXX+XL.d.N : C V.h.F k.k.g g g h 3 3 , , 8 3 f f f u , , 8 5 5 r 5 8 2 + y l.J.Q a.K.^ U ).C.d.p.d.A._._.'.4X4X",
":Xu.u.y.x.j.Z.[.XXXX+XV.p.j : C v.J.k.U.U.D.k.l.A u w , < 0 3 f f f u , , 8 5 5 f f 8 O + y k.k.S ! K.I U ).Z.j.d.m.).W.R.4.5.4X",
"t.t.i.y.f.a.M.P.XXXXXXC.p.j : B h.k.D.U.U.D.J.D.W u u < , f 3 8 5 0 8 , , 8 0 5 r f u + + y k.U.a.j.).U U ).Z.m.d.Z.B._.`.'.6.6.",
";X;Xi.E.z.j.V.P..XXXXXC.p.j = a s g M k.k.F l.J.D u 3 o , u 0 0 5 5 8 , , 8 0 0 f f y O @ i g.I.J.K.P.U ! .XA.A.Z.A.A._.R.5.} 6.",
":X:Xi.E.Q.P.+XXX.X.X.XC.a.a y y y p g J.k.p g.J.F p p 1 o u f f 5 5 8 , < 8 f f 3 W l.h.g.h.q.~ a.2.! V ! .X[.[.[.P.OX_.'.5.6.6.",
":X:X>X^.Q.K.).A.Q.Q.P.B.0.d d w u u M l.D.Q k.J.^ F F p < u f r 5 5 8 , < 8 u u u / U.V.V.XX^ s y y i = I [.[.[.[..XC.R.5.6.:.:.",
":X:X>Xy. .Y Y Y  .T 1.I S d e w u u g l.I.U.U.K.J.J.J.D O 3 h 3 5 5 3 < < 8 u u u ~ U.! ~ U.~ u w p y i V T 0.0.0.Y  . .X.} ;.:.",
"#.;Xu.o.j ; z Z N j B ; a a m d e u g / g.w.J.K.h.h.P.Q + u u f 5 f u 1 1 u u u p ~ U.I I U.g.u w f u y a m m m m B z # { } &.&.",
";X;Xu.] # > *   > . . X > * a d p u 2 o 2 u l.J.I a.P.I O u 3 h r r 3 o 2 s g A A ~ J.^ I U./ 3 f f u y = & > & . * * # G ) l wX",
"t.;Xu...| H C P P C V m B ; Z S F F u o 2 e l.J.S ! K.D + p 8 3 f f u 2 F l.k.k.k.J.I.J.V.Y./ f 5 5 u p V P P Y T P C T G [ o.) ",
":Xu.i.y.e.d.B.d.d.p.! I C : B S F A u , e u l.J.a.j.K.a.Q ^ F u r f 3 + D I.U.k.I.J.h.j.g.k.( f r f u y S a.d.d.m.d.d.s.x.T.k ) ",
"u.^.5X~.A.XX[..XA.Z.j.a.U - Z H D A u o 1 u l.{.K.K.P.K.U.U./ h f h u + Q P.g.Q k.g.A s p c h 3 5 5 u d ! .X.X.XA.XXP..XaXmXBXBX",
"JXLXHXvXZ.j.P..X.XP.V.v.! a z V s p u 1 1 u W ~ ~ j.K.s.j.U./ u w u u + I V.~ I V.h.i + O u f f 5 5 u y U .XA.Z.A.V.+X.XOXvXnXnX",
"kXbXcXoXd.m.Z.A..X.XP.K.a.a d y p u u 1 1 u u d y ~ P.I D U./ p W W D A a.P.2.~ U.g.+ + 2 8 3 f f 3 u y U .XA.B.d.A.V.XX#X9X0X6X",
"wXqX6X!.p.f.S.S.)..XXXP.c.a p w f f u , 1 u u u u ^ U.I I P.a.F k.J.L.M.P.G.K.G.{.l.y 1 o 8 u 3 u u u y ! .XZ.B.B.B.C.oX X5X^.2X",
"2X2X^.E.x.z.S.Q..XXXXXI.c.a u r r r u , , u 8 0 u / I.h.a.K.k.g.P.V.N.}.V.h.3.3.3.( 3 , 4 7 7 p 8 8 u u ! XXP.Z.n..X).W.0X=.i.>X",
",X>Xi.^.T.C.A..XXX{.XXXXB.s u h r f 8 , , u f f u / U.K.P.).J.U.U.g.A M.g.c 7 b E E 7 4 b E E 7 7 0 f u ! {.P.A.].B.).@X/.i.O.@.",
";Xt.u.y.x.c.c.M.J.H.V.V.a.a e w r f 8 , , u f f 3 W Q I h.K.h.~ U.h.M M.J.c 7 8.gXtX7 7 <.gX*Xq 0 f f u I Z.V.V.A.B.c.z./.*.VX$.",
"#.+.@.y.| 1.a.! q.q.~ ! T a u f f f u , , 8 f r h h p + I K.a.D k.v.^ v.k.s u 7.fXyXrXrXrXhXtX4 0 f f u A ! 0.0.Y p.^ 1...*.%.eX",
"#.+.O.] # - a a a a a - - = y f f f 8 , , 3 r r 5 3 2 + I K.~ D K.U.K.K.N.F u b >.yXpXpXuX<.E q 0 f u y - : ; a ; a i - X.] ' ' ",
"=X=XO.l # & * : * : ; : : - u f f f u , , u r r r f A Q V.P.k.h.J.K.I.P.J.k.W 7 b rXpXpXuX>.q 7 0 f u y > X . * : = s - [ o.' $.",
"+.=XO.l j z : B n B Z B j - 2 r f f u , , u f r r u g h.P.V.J.U.J.K.P.L.K.U.( E <.yXpXpXuX&X8.7 0 u u d > X * B P S D H X.wX%.<X",
"#.=X@.] G H P P T e.f.e.T - 8 f 5 f 8 , < u w h h 1 M k.V.D k.U.^ a.{.q.q.J.3.7.gXuX&X<.rXiXtX7 0 f u y > X Z Y d.B.j.s.E.@.%.#.",
"+.+.O.o.| T T p.f.d.B.n. .a u f 5 0 3 , 1 8 w w u u F k.k.c g.v.D 2.Z.K I P.v.7.fXtXq 7 rXjXtXq 7 r u y * X C p.Q.B.C.W.E.] %.#.",
"+.#.@...|  .p.n.Z.Z.P.Z.f.x u r 5 f 8 < < 8 g M h M F h.k.F k.J.F a.K.^ ! P.P.U.7.8.,.,.rXiXfXq 6 t r u *   L f.S.Q.).z.y.@.$.#.",
"#.$.@...| f.d.d.L.}.{.V.a.s u r r f f o o u / F.D.D.k.K.I.h.U.H.F g.U.v.v.K.j.q.G.dXgXiXuXtX8.7 6 t r u $   H d.|.Q.d.e.y.] @.eX",
"u.@.u.X. .Y d.[.{.XXXXL.a.a u r r f f o O u l.I.k.J.P.k.j.k.D.l.D Q N.M.V.K.2.J G.dXhXiXfX>.7 f r r r u +   S d.S.A.j.s.E.=.] -.",
") ) [ | T f.n.B.XX+X+XL.a.a u r r 5 3 o O p l.J.Q g.P.^ d A g g u p M s ! V.2.S K.4.>.>.E 7 0 r r r w u $   S d.Q.A.K.B.x.[ l l ",
"JXJXDXaX2.! d.A..XXXXXC.p.a u f r 5 3 < + y g.k.F ~ K.I + y u h f f u O J K.v.j.V.J.3.3.( h 0 4 8 u u p &   S a..X.XK.P.cXHXHXSX",
"bXsXsX~.U ! f.S.A.).P.B.p.a y f f 5 u O O = k.U.^ h.J.I + y u u w w 8 o F G.k.K.}.L.H.I.D.h 4 0 8 u u y $   C p.Z..X{.K.#XxX0XwX",
"1X8X} } j C R T Y Y U P C ; d u w h y + @ i g.U.J.U.K.I + y u u r f w , p F F ^ J.M.Q k.D.g 8 8 u 8 u p @ X ; C T 9.Y  .x./.1X1X",
";.&.;.[ # * : n B z z a ; = y y u W ~ a.~ a.k.l.g.l.g.F + 2 f 3 f h w , 1 u p D J.g.s k.H.g h 8 f 8 u p + X > : n N j j X.(.;.-X",
"-.-.;.l X . . . X       & & p u u ~ I.I.U.U.~ u w w u 1 o 3 h f r f f , o 2 u D U.k.F D.k.A g h h 8 8 y + X X X .   X # ` &.:.O.",
"$.-.-.=.j : B n ; z a a z ; A A F g.P.2.2.U./ u h f u 1 , w r 5 5 3 f < < u p W J.J.k.U.U.G.l.l.c f u u d z ; n n B ; j [ &.O.-X",
"%.,X*.o.G C 9.P P P P P R ; V F A s.C.I I K.3.8 u 2 3 o o 8 0 0 0 8 8 < < 8 u A l.k.J.U.U.k.G.v.W u y y m P P P K P H G [ &.%.+.",
";X%.O.qX .n.0.q.p.Y 1.p.T N V D S s.C.P J V.3.u h f u < < 8 5 0 f 3 8 < , 8 3 u h g A k.k.A j.U.W h p d C p.p.p.p.a.p. .} &.' ' ",
"$.' *.y.x.j.M.M.M.f.p.p.T ; a V V p.A.c.c.I.w.u w w w o , w r f r 5 f , , f r f w h g H.k.s g.J.F u p d S j.j.m.V.k.v.x.X.&.' ' ",
"$.$.*.T.z.P.}.}.Z.j.s.d.e.L H D D a.V.V.v.J./ f r h f , 1 f r r f 5 f , , h r r r f g D.D.Q k.H./ D D S ! A.A.P.P.J.K.W.T.-.$.+.",
":X@.*.y.|.+X{.{.[.A.d.n.n.S.Z.V.J.k.F D F F W 5 5 5 5 , , 4 h 5 f 3 3 8 , 3 f 5 0 8 c D.k.U.V.L.V.L.V.B.Q..X|.+X{.XX.X_.^.zX;X+.",
"t.u.u.^.|..X%X+X.XA..XB.S.A.V.k.J.w.y + o h 3 h f h 3 < o f h 3 0 8 8 , , h 8 f 8 8 p ( 3.d ~ S K V V H C L T L K P T G [ 5Xu.#.",
"u.>Xu.^.!.)..X.XOX).P..X].P.~ Q U.D.e 2 + p u 3 3 3 8 O 2 2 3 u 9 8 8 < 1 u 3 3 8 8 9 2 + X cXMXV MXOXY ).oXcX$XB.d.$Xx.| =.O.@.",
"@.@.*.i.^.!.!.oX_.W._._.Q.W.b.v.K.2.$ @ @ % i p 9 9 % @ @ % p 9 % 9 $ % O p $ 9 O 9 % @     cXc.H U H 1.9X9X!.!.9Xe.oXx.[ y.-.O.",
"@.' O.O.i.T.^.(.T.(.xXT.E.E.T.5.T.6X0Xk k { _ v _ v { qX8XX.{ _ _ _ sX7Xv { { v _ _ _ ` v T.k j G k l k [ [ [ [ [ X.[ [ =.*.O.@.",
"O.@.@.] =...T.=.T.X.X.T./...T.X.} NXBX} [ X.X.} { T.} =.1XBX{ 4.X.} T.`.4.NX4.4.5.4.4.5.{ JX@XX.[ [ [ X.X.X.T.r.X.r.r.E.E.^.i.O.",
"kXnXnXbXbXkX9XkX9X9XcXbXnXmX6Xz.cXGXKXBXBXmXmXmXvXvXBXDXHXFXDXMXDXHXHXHXFXDXDXMXMXsXHXDX9XHXHXGXKXDXDXKXPXPXKXKXLXGXAXMXnXmXnXbX",
"GXGXBXBXDXKXMXKXAXAXAXKXIXLXFXAXMXZXGXKXKXPXPXFXFXFXHXFXGXGXFXUXFXGXIXPXGXGXFXPXHXDXHXHXFXGXFXUXFXKXPXFXFXPXPXUXIXIXPXIXPXGXFXFX"
};
