/* XPM */
static char *_7c38bea82c040b8f9a92d924ba328bcOYYuXiUfgzbOI0Lc[] = {
/* columns rows colors chars-per-pixel */
"64 64 256 2 ",
"   c #14180D",
".  c #231813",
"X  c #022805",
"o  c #023607",
"O  c #153B19",
"+  c #0E3511",
"@  c #26261D",
"#  c #2C341A",
"$  c #292925",
"%  c #353829",
"&  c #393B34",
"*  c #313026",
"=  c #133C24",
"-  c #174D07",
";  c #085A05",
":  c #17590A",
">  c #15491A",
",  c #065A17",
"<  c #165916",
"1  c #084710",
"2  c #285917",
"3  c #345A17",
"4  c #275311",
"5  c #036303",
"6  c #0A6404",
"7  c #09680A",
"8  c #156807",
"9  c #18710B",
"0  c #036C1B",
"q  c #0A6C1B",
"w  c #056616",
"e  c #176717",
"r  c #0A721D",
"t  c #067319",
"y  c #187317",
"u  c #26690D",
"i  c #257409",
"p  c #296918",
"a  c #35671B",
"s  c #2B7313",
"d  c #287718",
"f  c #367819",
"g  c #35780E",
"h  c #1A4826",
"j  c #165927",
"k  c #1A5D33",
"l  c #0D5A2B",
"z  c #274827",
"x  c #285A27",
"c  c #365A26",
"v  c #265A36",
"b  c #365B35",
"n  c #324832",
"m  c #0B6C23",
"M  c #076826",
"N  c #166729",
"B  c #0C7324",
"V  c #087428",
"C  c #14732C",
"Z  c #137B2C",
"A  c #177829",
"S  c #0A6C33",
"D  c #196835",
"F  c #0B7634",
"G  c #147A35",
"H  c #13753B",
"J  c #187836",
"K  c #276727",
"L  c #376826",
"P  c #297625",
"I  c #337B22",
"U  c #397727",
"Y  c #256939",
"T  c #396937",
"R  c #247838",
"E  c #387937",
"W  c #48771E",
"Q  c #454C3C",
"!  c #435535",
"~  c #456929",
"^  c #44742C",
"/  c #467928",
"(  c #486A38",
")  c #546D39",
"_  c #4C7333",
"`  c #447B34",
"'  c #487738",
"]  c #567938",
"[  c #56772E",
"{  c #627B3B",
"}  c #325C46",
"|  c #197C45",
" . c #176A42",
".. c #276845",
"X. c #376A45",
"o. c #297746",
"O. c #367947",
"+. c #387954",
"@. c #2A7456",
"#. c #4A5747",
"$. c #52584C",
"%. c #476947",
"&. c #4B7B44",
"*. c #487849",
"=. c #587B47",
"-. c #486A54",
";. c #576757",
":. c #497754",
">. c #567856",
",. c #52694D",
"<. c #647B48",
"1. c #667957",
"2. c #656C55",
"3. c #567367",
"4. c #677A66",
"5. c #717568",
"6. c #453B2F",
"7. c #807C73",
"8. c #38821A",
"9. c #2E8118",
"0. c #1C853A",
"q. c #0E8531",
"w. c #398527",
"e. c #26843B",
"r. c #378437",
"t. c #2B882B",
"y. c #46852B",
"u. c #498537",
"i. c #53843A",
"p. c #578839",
"a. c #529136",
"s. c #6A8C3C",
"d. c #40801F",
"f. c #1B8243",
"g. c #1D8548",
"h. c #149344",
"j. c #278749",
"k. c #368645",
"l. c #288A53",
"z. c #388955",
"x. c #2B9356",
"c. c #369458",
"v. c #2E934D",
"b. c #2F8E6C",
"n. c #488749",
"m. c #538443",
"M. c #54834C",
"N. c #598847",
"B. c #589248",
"V. c #488856",
"C. c #5B8455",
"Z. c #5A8B53",
"A. c #568858",
"S. c #48945A",
"D. c #579557",
"F. c #489247",
"G. c #65874A",
"H. c #65954A",
"J. c #678857",
"K. c #758A5A",
"L. c #679459",
"P. c #75945B",
"I. c #779048",
"U. c #6AA657",
"Y. c #598A65",
"T. c #4A9264",
"R. c #589666",
"E. c #518B6C",
"W. c #678966",
"Q. c #788965",
"!. c #679667",
"~. c #789568",
"^. c #6A8975",
"/. c #788A77",
"(. c #6A9874",
"). c #799778",
"_. c #51AA6D",
"`. c #72AA70",
"'. c #6AD07D",
"]. c #809455",
"[. c #838B67",
"{. c #86956A",
"}. c #848C76",
"|. c #879877",
" X c #929A7B",
".X c #909E69",
"XX c #8AA378",
"oX c #93A777",
"OX c #89B174",
"+X c #A0A57D",
"@X c #83CA6C",
"#X c #7B9885",
"$X c #739084",
"%X c #77B186",
"&X c #5A9080",
"*X c #74CF8F",
"=X c #899A85",
"-X c #8E998D",
";X c #89A78A",
":X c #96A887",
">X c #88A794",
",X c #97A895",
"<X c #8EB78F",
"1X c #A4AD98",
"2X c #A5B899",
"3X c #A7AE8E",
"4X c #98B0A5",
"5X c #A6B9A6",
"6X c #B3B6AA",
"7X c #B0BBB5",
"8X c #9AC99C",
"9X c #8DC990",
"0X c #A6C999",
"qX c #ACCF97",
"wX c #A7C5A8",
"eX c #B6C8A8",
"rX c #AADAA9",
"tX c #BBD6A6",
"yX c #AAC6B5",
"uX c #B9C9B6",
"iX c #B9D8B8",
"pX c #A7D8B3",
"aX c #8EEDAD",
"sX c #B9E5B8",
"dX c #B5ECB2",
"fX c #95D3A3",
"gX c #C6D5AB",
"hX c #C7D8BA",
"jX c #D4DBBB",
"kX c #C3C9B0",
"lX c #C6EFBB",
"zX c #BBCFC4",
"xX c #97E7C6",
"cX c #BAE7C5",
"vX c #B7F4CC",
"bX c #C8D9C5",
"nX c #D4D9C6",
"mX c #CBD9D6",
"MX c #D8DBD9",
"NX c #C9C9CC",
"BX c #E3DEDB",
"VX c #C8E5C8",
"CX c #D6E6C9",
"ZX c #C8F7C7",
"AX c #CBE7D7",
"SX c #D7E9D6",
"DX c #C9F6D6",
"FX c #D6F4D8",
"GX c #E3EDD3",
"HX c #D7DCE3",
"JX c #D8E7E3",
"KX c #D7F6E4",
"LX c #CDF2E6",
"PX c #E2E8E9",
"IX c #E7F2F3",
"UX c #EADEEA",
/* pixels */
".   . . . $ @   . @ . . * @ . $ @ @ $ $ * $ * @ @ * * @ # @ * * & & $ & % * % % % % % % % % * & % * & & % * & % # # * * 6.% % % ",
"Q #.#.=X7.#.;.5./././.2.=X,X;.4.4.;.$.#.#.Q $.;.$.#.#.#.! ! Q 5.5.Q #.#.#.#.$.Q $.$.Q 2.#.;.;.#.#.#.;.$.;.#.#.n Q 2.$.-X5.2.;.2.",
"%.%.,.,.1X;.,.%.%.%.( %.,.%.,.%.>.%.:.>.>.,.>.>.,.>.>.-.:.b ;.5X=X/.5.5X,X/.3.4./.4.#X/././.-X$X/.>X-X$X=X-X#X#X^.$X3.4X7X,X#X$X",
"(.W.).).2X|.J.J.C.&.&.&.C.>.>.C.M.=.A.A.Z.C.W.C.W.A.A.A.A.(.} 5X=X/.4.4.4.-.W.W.^.W.^.W.^.^.#X/.#X>.^.4.$X^.^.#X^.=X3.4X>X-X$XY.",
"!.C.1.{.hX{.W.J.&.' Z.&.=.J.=.M.N.&.Z.M.Z.M.C.A.A.D.D.n.M.%.-.mX:X~.~.=.C.*.T %.%.A.W.W.:.Y.%.).>.>.>.>.>.~.>.^.>.>.-.4X,X#X).:.",
"n.M.J.:XkX|.XXJ.M.Z.&.m.H.m.&._ N.' M.Z.Z.M.M.Z.Z.Z.D.D.n.>.n AX:XG.J.M.( M.&.K E Z.T *.Y.:.:.A.Y.*.,.b =.J.J.W.C.W.n uX;X).~.M.",
"n.Z.J.|.gX XQ.K.M.' m.B.' ` N.N.H.m.Z.M.m.m.M.L.n.` y.u.m.' } mX2XJ.=.( ' L K u.L L L ' A.T :.:.%.iX,.%.J.J.J.C.J.W.#.  Q.XXP.L.",
"n.Z.W.|.jX[.K.J.L.N.` ` B.H.N.] N.N.L.N.m.H.L.L.B.u.w.w.U ' n yX~.G.N._ m.U.u a.u U U `.m.M.:.>.:.iXiXwX( M.( J.C.>.$.,X2X{.P.P.",
"n.M.Q.XXgX+X{.P.L.H.i.^ p.p.N.p.p.u.i.B.u./ D.B.y.I a.f I ` b uX:XG._ _ i.U f s f U f p L N.9X&.(.:.(.ZXsXC.C.*.W.W.;.$.=X|.P.G.",
"M.Z.J.oXgXoXoXP.P.p.OXH.H.H.H.p.p./ H.y.a.y.U U f s w.8.y.L O iXXX] ] N./ y.u s u I u : a U rXT X.O.T T T OXM.*.>.>.zX,X,XXXJ.J.",
"M.Z.G.0XeX{.K.P.H.p.OX/ H.p.p.p.p.y.p.u.a.f y.U f f s 8.u u.z CXoXG.[ ^ ^ / : 8 y.y.u u / f a i.U &.&.L ^ L T Z.' W.iX/.eX|.Q.J.",
"&.M.~.oXgX{.K.=.G.i.L ~ / [ p./ / W / / / a a / / f u p U _ # iXoX~ [ N.^ U - 2 p : 2 - - ~ ~ L a L T L 3 =.=.&.( 1.2.uX=XQ.~.~.",
") 1.K.{.kX[.Q.<.G._ =.~ ~ 3 ~ ] [ a L 4 ~ 3 ~ 3 3 3 3 _ ~ P.2.eX[.) K.( ( b ( XX( T c 4 2 c ( c ~ 3 ) %.( z =.! ( ! & 6X7X=X1.4.",
"|.Q. X:X6X:XQ.:X2X:X~.3XoXoXoXoX.X~.~.{.{.+X.XP..XoXoX~.XX2X6XnX2X:X3X:X1X2XiXwXwXeX0X2X,X2X2XeXtXqX2XuXeX2XuXeXeX6X6X7X6X1X1X5X",
"bXVXuXhXCXuXbXuXiXiXwXeXCXhXhXVXhXhXuX,XCXeXjXjXCXhXCXCXjXjXnXnXkXjXkXGXnXnXbXhXCXhXnXnXbXMXSXnXkXjX:X1X6XuXCXbXkXuX6X6X6XuXuX1X",
").).).=X).^.).(.(.(.).(.).).(.).;X/.bX,X|.XXoX{.|.{.XXXX:X|. X[.:X{.3X|. X X|.}.hX X1X3X-XnXkX}.[.{. X}.}./.1.}.:X,X}.}.5.=X|.,X",
"R.`.A.%XV.V.V.V.S.T.R.V.V.S.T.R.Y.W.hX|.L.N.G.G.G.] G.] ] N.G.[ [ [ G.G.] <.Q.K.Q.Q.J.Q.5.nX1X[.K.<.<.[.{.K.~.Q.J.{.Q.1.~.1.Q.K.",
"z.k.z.V.S.z.z.k.o.c.l.o.z.z.z.T.O.Y.W.K.' i.i.u.m.` i.` L / / y.W / [ _ p.] =.J.~.XX~.J.2.hX2XK.{ G.K.G.<.G.<.J.K.=.=.P.<.K.K.<.",
"z.l.c.l.o.j.z.c.| o.| l.| l.c.z.+.E.iX~.' E E U U L L U P U f f f f ^ ` / ^ L.sXJ.C.~ =.;.hXeX=.N.[ G.] ] =.] J.G.=.) G.G.=.G.L.",
"j.g.| z.H g.f.l.H l.| g.l.j.l.l.o.V.VXC.L U I e P p p I P d s u s u a U a U 9XOXM.L.m.' 5XuXuX=.] [ _ G.] ) ) ] K.=.] ] ] 2 ~ G.",
"f.f.f.x.f.j.v.x.g.x.j.l.x.j.x.l.o.R.ZX&.p y ; y d d s d y 8 i i 9 8 u f u u p ' u.`.^ _ 0XCX2X) L ~ _ _ ~ =.jXJ.gX) ) ] _ N._ _ ",
"f.f.l.g.F v.j.x.f.g.g.j.j.| c.j.D R.sX' P 6 9 6 6 8 8 9 7 9 8 8 9 8 8 s f w.e dXa qXa L ( hXtX) 3 ^ ~ ~ ( tXtX( gX) ~ ] _ ^ 2 ^ ",
"l.l.l.j.H c.j.f.| x.j.| c.j.l.j.Y S.ZX&.; y 6 6 6 5 6 6 7 7 ; ; 8 8 8 : 9 8 P P p p U L >.hXeX( a H.i.m._ ~.tX=.~ _ ^ a L a U ` ",
"x.x.l.l.H H x.l.j.x.l.l.l.l.l.R D V.sX&.e 7 5 5 7 ; 9 6 7 5 6 9 7 6 9 d 6 8 e P p L p 2 %.hXeX) G.a ^ L L ( qXC.' 4 a ^ U U a : ",
"l.l.g.g.F G j.x.H j.j.H J j.R j.N T.rXc ; e 5 5 5 7 6 7 5 7 6 6 t.; ; 6 6 P e I I p : L b hXtX( ~ [ ^ _ _ <XqXL L L L 2 u.a ^ 2 ",
"S | l.f.f.f.j.g.f.l.j.c.j.e.e.R N S.rX<X: e 7 5 y y 5 y 7 7 t.7 5 y 6 9 7 7 e P I d 8 2 x hX0Xc 4 3 3 L rXL ' 2 < U u.p ` 2 4 L ",
"l.H g.g.M 0.j.g.G j.f.j.e.e.m C , S.ZX8X: 7 w y A 5 6 6 ; q y y 5 ; 8 6 6 P e ; : e : K > tXiX2 a - - 4 U - p ; e ; : : p - : U.",
"| g.H H J f.J f.f.H S J v.R J k.N V.cXT < < , e e ; 8 ; e w ; < y K : : e e < `.p u.2 x x sXsX+ 4 L 4 - Z.< 1 1 K < < : 1 - x 1 ",
"@.l.@. .z.o.+.o.o.z.o.D o.Y R.Y j :.yXn T T j v x j 2 < K j j j < > L 2 T Y x T L L T b z VXhX+ XXz z O C.z > h h x b + z -.O h ",
"..:.E.+.+.v v ..v h k } v Y.<X> h #XbXQ ).!.Y.>.:.b c x h O O X + o X + <X<X,.,.XXz X X n uXbX,.Q.2X/./.=X,X;X,X;X,X,XyXyXyX5XyX",
"LXLXKXKXAXKXVXAXAXFXFXFXSXCXbXuXDXSXBXBXbXVXbXVXSXSXCXGXSXVXFXhXhXCXjXGXjXCXCXnXCXjXnXhXnXnXnXnXhXjXhXkXnXCXhXCXeXhXeXbX=X,X5X4X",
"#X>X>X>XAXSX#X#X;X;X#X).).|.|./.).).}./.}.)./.)./.W.|.Q.Q.|.{.3XCX[.[.[.1.Q.[.{.3XQ.3XQ.}. XQ.{.}.|.|.K.{.[.1.[.{.K.Q.CX/.^.(.^.",
"(.R.(.(.KXAX;X:.!.!.!.!.!.!.W.~.!.!.W.W.J.W.A.Y.W.L.L.G.L.L.Q.:XnXQ.G.P.9XG.s.I.K.K.3X{.1.K.K.K.2X5X<.s.G.{ { ].[ [ K.hXW.A.*.V.",
"k.V.O.(.KXwXA.V.k.n.V.V.D.n.L.A.8XV.Z.Z.D.A.V.A.V.n.Z.n.m.m.M.XXCX1.] / i.p.W s.].qX<.K.<.gXG.J.wXwX] ~ [ ] [ [ p.H.) iX8XY E k.",
"v.v.o.:.AX>XV.S.k.k.S.k.E n.R.V.*.A.<XV.n.V.S.V.S.O.V.O.O.O.k.D.lX] ^ / f / y.p.i.) >.2X~.J.=.%.<X:.=.N.0X0XtX=.i.N.~ 0XT.o.D m ",
"0.0.J +.AX>Xz.j.j.e.j.j.k.k.R O.O.dXdXn.S.o.z.T.+.c.O.T.*XN z.S.dX~ u.s f f y.` ^ ( VXCX>.FX).*.:.!.&.dXM.=.!.!.N.` L qX(.D fXe.",
"V V J D FX#XY e.C J J e.e.N _.vX..T.R fXH D xX+.vX_.DXS._.D Y %XlX_ m.L U a U T X.X.KX;.zXFX-.DXK ^ U a ' ' ' L a f / 9XK R M _.",
"q.V M D VX>XD 0.B B C V m J _.D D O.D S | xXLX$X@.o.E R J R o.<XiXc L.&.a U E <XY.Y.AXmXSXAXFX:.u.U a a 9Xm.( OXi./ p.9Xn.N M M ",
"q.F V N VX;XN 0 0 Z V V V 0 0.V vXl D  .b.@.LX....N N *Xq m D Y cXT wX%.T !.*.E.E.E.LX4X7X/.X.V.`.p &.dX&.rXwXrX9X` / OX*.D , J ",
"q.h.V , FX;Xw V t t V 0.V B B B m _.l xX@.xX&X} 9XR.r.r w S.N +.VX} iXcXdXT O.X.:.E.-.FX^.uXA.n.E E *.sXx x T sXqXU a `.V.%XM S.",
"q.q.V N SX|.C 0 t t 0 t 0 r Z t w aXJ k DX} LXv j N 0 7 w e dX8XcX#.iX^.`.E 8XV.X.+.v 8XeX0X2 K < R `.K < E dXL : U : `.k.M F G ",
"V F V N CX|., q.t t 0.B 5 t 5 r t w Z R X.FXKXDXY.N w 0 w K sXVXVX>.n Y.v K K Y vXpXv T iXb D.e R N N < P : e : p : P D.R M M F ",
"F V F l FX;XM B 0 5 0 w B t t 7 r w r w e K 9X:.sX<Xw m K > *.VXbX^.pX(.x x j 9X+.fX(.x `.rXK < m J N r.e 6 P e q R P S.D S | F ",
"F F F D VX;XR Z q w 0 m q r 5 7 w r 5 r 7 fXY v DXDXj , < T > (.iX>.v > > h O.Y E.+.v X.X.Y `.N D D Y N ; 7 e K R R N _.T.l S _.",
"| J D Y cX$Xl S N J N N C w q 7 , N , , < 9XN j j pXY z.j j Y V.cXX.k j j j k k ..E.+.} v +.j k k Y X.Y Y j K n.Y Y X.Y.R.N N J ",
"1 1 j o AX^.o o o o X.o 1 o 1 1 o o o o X o o o !.ZXo X X 1 Y 1 iXO Y.V.:.X.%.h O = + #X= X X X X X X X X X o X X O -.,.v > X X ",
"VXhXhXVXNXMXuXVXbXVXSXbXhXhXtXeXwXbXiXeXCXhXbXhXuXjXeXgXgXgXhXVXCXhXVXVXiXiXhXkXnXnXNX7XkXkXuXuXbXCXGXnXSXFXVXSXSXFXnXSXhXCXFXVX",
"2X|.|.=X1X-XeXwX,X;X,X2X:XXX{.).=XSXGX{.:X:X}.}.1X X[..XK.K.{.{.{.{.|.XX~.:X:X:X X|.5X,X:XCXhX=X=X|. X{.=X|.:X|.).|.-X-X:XXX).|.",
"M.`.K M.M.&.`.Z.Z.A.R.*.Z.D.D.n.*.wXCX1.J.P.] P.CXFXG.s.s.I.G.L.G.P.G.H.L.L.~.J.G.P.XX|./.IX5XA.M.M.M.Z.A.Z.Z.Z.Z.&.Z.J.N.M.L.A.",
"E P P r.r.n.n.k.E k.Y k.r.e.r.r.O.rXVX=.m.u.u.N.sXsXi.p.s.s.p.m.] i.i.i.N.H.N.L.N.B.G.Q.W.KX<XV.E k.r.k.E E n.D.n.n.n.r.n.E E n.",
"e.A r.P k.k.R o._.*XJ J C A r A E 9XDX:.u.B.I I M.' p.U / y.E B.U.i.N.N.H.H.L.m.n.B.m.L.>.KX8XY J w , e.J C J m k.q C k.k.C N P ",
"B J J e.j.N M S.aXv.R V m r t q N `.DXX.` d w.f P E U w.f y.E E ` ` n.' u.u.` u.u.u.u.m.,.KXcXY m B w Z q.B B B 0 q A A m A A R ",
"J e.C e.m k.A A _.J C M m 0 B w N 9XcX%XE w.d d f s I y.p U R O.Z.ZXu.U OXm.' qXU.u.' &.%.DXpXD 0 0 r q.r Z e.0 '.Z q A q w q A ",
"j.S M aXJ C m e.Z J Z Z 0 0 V m l %XcX:.E d r.d i i s 8 f u.vXS.D.ZXU E U u.L p U u.^ ' b ZX%XD q r B q.V r B Z r B r w q B w q ",
"F M V j.M M j.M J J F M q.0 0.w N vXcX(.P w.w.d i 9.i 9.s w.E ZXF.I r.I f f I I f a.a.u.T ZX(.D v.r t q.B Z Z Z A B q B q q w q ",
"G G G M J _.H S H F f.F V e.0 m D <XcXx U d d y y d d i 8.s I P w.I I u.s 8.i f w.I y.u.T cXR.D B 0 Z Z 0 B B B B B B A q A R A ",
"l.S F S S | l.H | | *XS G J G w D <XZXc E I d P F.r.s 8.8.s g g 8.f u a.8.g i w.@Xy./ u.' ZXA.Y B e.Z w m V Z m 0.m C w m *XJ C ",
"H H H H H H S H H S H aXS J G M j `.sX( n.r.r.r.r.P w.d y.f i 8.g s s U.f g f y.y.f a.i.~ ZX`.j m 0 0 e.m J 0.0 0.G C C k.c.e.C ",
"j.x.H f.G G G C j.C C 0.*X0.M M j %XcX%.9XP d 8 d r.d d I w.9.i 8.s s s y.f f d.a.y.OX^ c lX*.D C B 0 V V V G V M B m m Z m B B ",
"S H F J C V G C V V C G v.M M M Y R.DXT E y 9.d d P d r.E p 8.9.f s s d s u f f a.y./ a L ZXD.R C r Z C v.V Z j.0.M C B j.V m C ",
"S M C M R C M J M o.aXJ C J w m , 9XvXY < d d i i d P dXdXF.I w.s d dXlXf f f f U u./ ~ 2 lXn.N w m e.V m G F M M J M C M C C C ",
"j D D j Y D o.Y ....D o.o.j j j j <XcXv x K p e u L L x !.sXK p L K X.A.L 0XL L &.T L _ c ZX(.j j 1 j D l Y D o.D D l O.+.+.O.D ",
"#X4X4X>X#X^.#X^.^.^.#X>X4XwX#X} #XbXPXNXyX4XyX5X,X,XuXVXmXmXbX5XiXSXJXJXbXCXCXwXyX#XSXnX5.SXAXmXAXVXAXAXKXKXLXAXLXAXzXyX4X4X4X>X",
"mXNXyXzXmXJX7XSXzXzXzXmXIXJXzXNXyXuXNXUXMXPXPXHXSXMXMXmXNXNXMXMXMXmXIXPXNXNXMXSXMXmXBXBXMXNXmXmXMXPXMXJXJXPXPXHXIXJXPXPXPXNXPXHX"
};
