/* XPM */
static char *_0f9dedbe201404dab8fd138e92b51c4R1PvLUbyxaESD0Rd[] = {
/* columns rows colors chars-per-pixel */
"64 64 251 2 ",
"   c #0C0C0B",
".  c #0A0905",
"X  c #160401",
"o  c #1C0403",
"O  c #1B0803",
"+  c #130D0D",
"@  c #1C090B",
"#  c #0E1309",
"$  c #181609",
"%  c #0D0C12",
"&  c #170E12",
"*  c #0D1212",
"=  c #141314",
"-  c #1C1414",
";  c #1B1A15",
":  c #1B1619",
">  c #1C1C1B",
",  c #151917",
"<  c #240504",
"1  c #230A04",
"2  c #240B0A",
"3  c #2C0E0D",
"4  c #2A0905",
"5  c #330E0E",
"6  c #320D02",
"7  c #26120E",
"8  c #2C110E",
"9  c #281404",
"0  c #331401",
"q  c #32110E",
"w  c #351906",
"e  c #2D0F12",
"r  c #280D14",
"t  c #330E11",
"y  c #350E1B",
"u  c #241414",
"i  c #2D1213",
"p  c #231A15",
"a  c #231B1C",
"s  c #291819",
"d  c #321112",
"f  c #341718",
"g  c #1C2203",
"h  c #1B2419",
"j  c #093611",
"k  c #242808",
"l  c #23231B",
"z  c #262819",
"x  c #322712",
"c  c #1B1D20",
"v  c #221D21",
"b  c #341826",
"n  c #1F2521",
"m  c #1F3D25",
"M  c #242423",
"N  c #2C2C2B",
"B  c #292825",
"V  c #332D2B",
"C  c #372926",
"Z  c #293726",
"A  c #33342C",
"S  c #353829",
"D  c #343433",
"F  c #3C3434",
"G  c #3A3C35",
"H  c #3B3B3B",
"J  c #373937",
"K  c #303133",
"L  c #52330A",
"P  c #43393A",
"I  c #07451A",
"U  c #134C16",
"Y  c #255819",
"T  c #31521A",
"R  c #0A6A1A",
"E  c #32641D",
"W  c #164A25",
"Q  c #17572B",
"!  c #115B2C",
"~  c #284727",
"^  c #285925",
"/  c #395626",
"(  c #3C423D",
")  c #3A4638",
"_  c #245B35",
"`  c #38553A",
"'  c #2C4833",
"]  c #08682A",
"[  c #16672A",
"{  c #067629",
"}  c #187627",
"|  c #0A6932",
" . c #1C6935",
".. c #097735",
"X. c #197638",
"o. c #2A6729",
"O. c #376929",
"+. c #266837",
"@. c #356837",
"#. c #267639",
"$. c #317432",
"%. c #6A5800",
"&. c #6B5217",
"*. c #7A6908",
"=. c #425C2A",
"-. c #43433D",
";. c #45493C",
":. c #485E3A",
">. c #486534",
",. c #477735",
"<. c #47732F",
"1. c #7C5E20",
"2. c #3F3F41",
"3. c #453F42",
"4. c #3C4442",
"5. c #3C5543",
"6. c #147B44",
"7. c #2B6843",
"8. c #396C47",
"9. c #297948",
"0. c #337849",
"q. c #397D54",
"w. c #2C7852",
"e. c #444443",
"r. c #4B4544",
"t. c #4A4A44",
"y. c #4D4C4B",
"u. c #464849",
"i. c #534D4D",
"p. c #50484A",
"a. c #4A5647",
"s. c #53534C",
"d. c #55564B",
"f. c #4E4D51",
"g. c #534E53",
"h. c #584F50",
"j. c #555452",
"k. c #5A5454",
"l. c #555C53",
"z. c #5B5A55",
"x. c #5C5559",
"c. c #5D5C5B",
"v. c #565859",
"b. c #4C5653",
"n. c #635C5C",
"m. c #645957",
"M. c #47644A",
"N. c #54674B",
"B. c #4C6852",
"V. c #5C6B5B",
"C. c #596657",
"Z. c #477A59",
"A. c #59735A",
"S. c #507549",
"D. c #63625D",
"F. c #636B5D",
"G. c #666859",
"H. c #667958",
"J. c #5E5D61",
"K. c #635D61",
"L. c #695F62",
"P. c #5E6764",
"I. c #5C7A64",
"U. c #447C63",
"Y. c #646362",
"T. c #6B6464",
"R. c #6B6965",
"E. c #686967",
"W. c #6A736A",
"Q. c #667566",
"!. c #737769",
"~. c #757C74",
"^. c #6C7575",
"/. c #86770B",
"(. c #8B6F2B",
"). c #847E78",
"_. c #118438",
"`. c #30863C",
"'. c #4D8234",
"]. c #19864D",
"[. c #26854C",
"{. c #258A55",
"}. c #378B57",
"|. c #308E53",
" X c #3EA565",
".X c #369963",
"XX c #57844A",
"oX c #46865A",
"OX c #568756",
"+X c #528B50",
"@X c #668759",
"#X c #6A8A52",
"$X c #558967",
"%X c #698668",
"&X c #77886A",
"*X c #6B9666",
"=X c #779368",
"-X c #688B75",
";X c #788778",
":X c #7D9876",
">X c #6A9576",
",X c #63A76F",
"<X c #A59B00",
"1X c #AEA712",
"2X c #948428",
"3X c #B6AC26",
"4X c #B7AB3B",
"5X c #968A1C",
"6X c #C6BB36",
"7X c #C2B71F",
"8X c #D4D12B",
"9X c #E7E52A",
"0X c #87977B",
"qX c #838A75",
"wX c #84A17C",
"eX c #BAAA46",
"rX c #CDBF44",
"tX c #D7C845",
"yX c #E4D641",
"uX c #7A9484",
"iX c #7A8A83",
"pX c #868B85",
"aX c #869888",
"sX c #8E9A8D",
"dX c #8BA488",
"fX c #91AA94",
"gX c #A4A99B",
"hX c #A3B494",
"jX c #98B3A6",
"kX c #A7B8A6",
"lX c #B1B6AC",
"zX c #90C890",
"xX c #9AC7A8",
"cX c #A9C6B7",
"vX c #BAC8BA",
"bX c #B4CDB2",
"nX c #B9E9B1",
"mX c #96E3AC",
"MX c #C7EAB9",
"NX c #BABEC3",
"BX c #BFCCC3",
"VX c #C7D8C8",
"CX c #CCD9D8",
"ZX c #D7DAD9",
"AX c #CBCACF",
"SX c #D7E5DB",
"DX c #CEE8CE",
"FX c #DADCE1",
"GX c #DBE8E4",
"HX c #D3F0E7",
"JX c #E5EAF1",
/* pixels */
"$ ; p $ p l z ; l h z h z l B l z z z Z z z z z z z Z Z V B S C P V A S A S S S A G A G N G N G A A A S S S G A A A V N -.G J ) ",
"a.;.s.qX~.;.z.~.qXqX;XC.sXfXj.~.R.N.a.a.a.a.a.a.a.a.a.a.a.( G !.G.d.s.d.s.d.s.;.s.s.s.l.s.l.l.l.a.y.l.l.l.a.s.y.t.Y.t.pXE.W.l.W.",
"N.N.N.F.gXG.C.l.d.a.a.N.C.C.Y.l.Q.C.C.V.V.C.A.A.A.A.A.B.C.C.C.lXsX!.~.gXgX;XQ.~.;X~.;X;X;XiXaX;XaXiXaXaXsXuXaXpX^.iX^.jXkXfXaX-X",
"=X%X&X;XlX~.l.C.V.F.F.V.V.Y.W.W.V.V.Q.Q.Q.N.a.) 5.5.B.a.a.a.a.~.~.W.W.E.F.E.Q.E.W.Y.Q.Q.W.W.~.P.b.4.4.b.P.W.^.^.^.~.P.iXsXuXuXI.",
"*X@X%X&XlXC.-.z.F.l.Q.V.C.W.C.D.R.Y.T.Y.D.y.N . , n ) ( e.u.b.v.Y.D.R.R.T.D.Y.R.T.E.Y.Y.E.Y.Y.b.D > l G c.R.E.E.T.E.D.;XaXaX=XH.",
"S.A.@XaXF.;.t.t.j.R.D.Y.D.D.T.R.T.T.T.T.n.i.V . ; A ( ( e.( j.c.Y.Y.T.Y.Y.Y.Y.Y.Y.R.Y.T.E.E.E.c.D , M G x.D.n.n.L.n.R.!.sX0X=XH.",
"XX@X@X:XG.S t.i.n.E.c.k.k.n.n.T.Y.T.E.x.3.F M = = N N A D N D H e.e.-.-.e.e.P H e.u.e.u.e.y.P.j.J > M H x.T.K.K.m.T.T.D.!.:X=X*X",
"XXXX*X=XF.;.-.k.c.K.x.k.i.m.D.T.E.E.c.e.a = - - M l = , = > > = - , , - , - = > > = : > = N v.u.F > M J c.L.g.p.g.v.c.!.dXwX=X*X",
",.@X@X=XV.) -.j.n.n.v.y.y.z.D.E.Y.P.D > > > = ; ; ; > - - ; - - - - p - - p - - p - - = > a v D D > n J c.c.j.u.f.v.C.C.:X:X*X@X",
"XXOX@XdXF.) e.i.c.Y.c.j.j.c.D.Y.E.P.D , + p p - p u p - - p u u u u u @ - u u u u u u & - p p V D , h J l.c.i.u.y.s.C.&XdXwX*X#X",
"XXOX@XdXV.G P i.x.K.K.c.n.n.n.Y.c.j.N & X 7 i i i i i 2 2 e i d i i 8 1 2 8 i i i i r o @ u u B A - l G k.k.i.r.r.z.m.G.hX0X#X#X",
"S.@X%X0XG.G F p.p.g.g.i.i.i.i.i.e.V p - o 2 i d d d i < < 3 t d d 8 3 < < 8 i d i i r o 2 i u s p . - V r.r.P F P p.t.G.0XqXqX=X",
"S.H.&X&Xz.B a V F P H F H F F F B > & - o 2 i d d d 8 < < 3 8 q i 8 3 < < i i i i i 7 X @ u u p : . = M D D K N N D F c.lXqXH.!.",
":X&XsXsXs.$ - - - = = = = - & - = = - & X i d e e d q < < 3 8 8 8 8 8 < < i i i i i 7 X @ u - - -   %   = = % % % = = z.sXgXgXkX",
"DXBXVXlXD.h > > > > > > > = . . = - p & X i i d e d q 1 < 8 8 8 d d t < 4 d t t e d r o 2 i u p p > =   > > = = = > > t.gXBXlXgX",
":X:X:X&Xa.( H ( ( 4.( J K l *   - - u - o i 3 f d d 8 < 1 8 8 q d t t < 4 d d t t d 3 o 2 i i i - > > > D J N N N F J s.!.sX0XfX",
"*X>X$X>XC.C.l.l.z.c.c.j.y.D = - p u i 2 X 7 i d q 5 d 1 O 7 d t t d 3 < 2 d t t t t 3 o 2 i d i p : , > y.s.r.3.3.g.k.G.&XH.&XH.",
"}.oXoXOXN.d.l.v.n.Y.Y.n.j.F > - u i i 2 X 7 8 d 5 5 d 1 O 7 d t t d 3 < 2 i t t t t 3 o 2 i d i - = , > i.m.i.u.i.k.m.G.H.=X#X#X",
"}.|.[.q.M.a.s.z.K.T.E.K.k.J , , p i i 2 X 7 8 5 5 5 d 1 O 7 d t t d 8 O 2 i t t t t 3 o 2 i d i u = > c j.m.y.e.u.x.D.G.H.S.#X#X",
"[.[.6.q.` ;.r.k.L.E.E.Y.j.J , , u i i 2 X 7 8 5 5 5 d 1 O 7 d t t d 8 < 2 i t t t t 3 o 2 i d i u - : v k.n.s.y.g.c.D.G.N.T ,.XX",
"6.].{.}.5.y.i.n.K.T.E.c.j.J , , u i i 2 X 7 8 5 5 5 d 1 O 7 d t t d 8 O 2 i t t t t 3 o 2 i d i i - : > k.n.j.s.g.v.D.G.S.XX<.,.",
"].6.{.q.B.k.c.m.L.E.E.Y.k.J , - u i i 2 X 7 5 5 5 5 d 1 O 7 d t t d 8 O 2 i t t t t 3 o 2 i d d i p : a k.D.c.v.J.Y.G.G.,.<.E E ",
"{.].{.q.A.D.T.T.T.E.T.c.j.F p u i i i 2 X 7 5 5 5 5 d 1 O 7 d t t d 8 O 2 i t t t t 3 o 2 i d d i u p a k.T.Y.E.E.E.C.N.>.E <.'.",
"{.{.|.q.a.s.i.i.i.g.y.u.P V u i i i d 3 X 8 5 5 5 5 d 1 O 7 d t t d 8 O 2 i t t t t 3 o 2 i d d i i p - r.i.y.y.y.y.a.:.O.,.Y Y ",
"].{.[.0.~ z N M B B N M a a s i r i e 3 X 2 q 5 5 5 d 1 O 7 d t t d 3 O 2 d t t t t 3 o 2 i d q 3 8 a a a B M N N M z ~ ,.E O.E ",
"..].{. .m . $ * * = = * + & - u i f e 3 X 7 d 5 5 5 d 1 O 7 d t t d 3 < 2 i t t t t 3 o 2 i d 5 q i u - - - * = = * $ g >.O.o.o.",
"{.X.[.q.~ z A B B B n > > > > B C f i 3 X 7 q 5 5 5 d 1 O 7 d t t d 8 O 2 i t t t t 3 o 2 i d 5 5 8 u : B V B N N N B S / U U *X",
"6.[.9.7.` t.-.e.r.e.J K N > > N C C f 2 X 7 q 5 5 5 d 1 O 7 d t t d 8 < 2 i t t t t 3 o 2 i d 5 5 8 u a P r.e.u.u.3.-.;.~ U @.U ",
"w.9.w.8.C.l.j.c.n.c.y.u.H N M V C C f 2 X 7 q 5 5 5 d 1 O 7 d t 5 d 8 O 2 i t t t t 3 o 2 i d 5 q 3 u a r.m.z.z.K.c.n.d.` M.j W ",
"7.U.$XZ.B.z.c.c.n.K.v.j.y.V a l C f i 2 X 7 8 5 5 5 d 1 O 7 d t t d 8 O 2 i t t t t 3 o 2 i d 5 q 3 u a k.E.D.c.c.E.T.~.fXxXcXcX",
"HXHXHXCX~.g.j.v.Y.E.K.n.m.P s s s s i 2 X 7 d q 5 5 d 1 O 7 d t t d 8 O 2 i t t t t 3 o 2 i d t t d u a i.n.j.y.g.x.n.pX0XfXjXfX",
"uXjXfXuX~.u.u.c.J.E.T.n.m.P i u u i i 2 X 7 8 q 5 5 d 1 O 8 d t 5 d 8 O 2 i t t t e 3 o 2 i d q 5 8 u a k.n.j.y.g.x.T.qX;X>X-X-X",
">X>X-X-X~.b.b.v.Y.E.E.T.n.P i i i d i 2 X 8 i d t t d 2 O 8 d 5 q q 3 1 2 8 f t t d 2 O 2 i 3 q 8 i u ; v.Y.c.j.k.n.n.~.%XOXoXoX",
"oXq.q.$X;XC.v.P.Y.T.E.T.L.P s i d d i 2 o 8 e d t t d 2 O 8 d 5 5 f 3 o o q 4 0 0 w 9 X 1 9 0 0 q d u a k.Y.K.c.x.Y.n.;XxX+.#.}.",
"}.[.w.oX%Xl.y.j.x.k.x.x.v.F - u d d i 2 o 8 e d t t d 1 O 8 d t t t r 2 1 w w 1.eX/.9 9 2XeX&.0 6 5 7 u r.v.x.v.v.v.x.G.OX0. .[ ",
"_...9.0.I.e.e.u.3.3.r.e.-.V p s d d i 2 o 8 e d t t d 2 O 3 d t y e r r < 1 w (.tX1X5X5X3X4X1.0 5 t i s P e.e.e.e.( -.V.>X+.mX#.",
"..{ X.+.A.h > a a v v > > > - u d d i 2 o 8 e d t t d 2 O 8 d t d d e o 1 9 0 L %.3X8X9X1X%.L 6 5 5 i u a a v v > M ; a._  .[  X",
"_.{ | Q A.# = = & : : = > > p s i d i 2 o 8 e d t t d 2 O 8 d t t d i o 1 w 5 0 w 6X9X9X1Xw 6 q t d i u + + - : h , ; a.Z.[ ] ] ",
"_._.] Q V.p > v v v B N B a u i t d i 2 o 8 e d t t d 2 O 8 d 5 q q i o 1 9 4 L *.7X8X8X1X%.L 6 q 8 u -     a B N N A a.8.[ I ..",
"{ `.] Q V.A D D H D 4.u.-.C i d t d i 2 o 8 e d t t d 2 O 8 d 5 q 8 i < 1 w w (.tX<X/.*.1X6X1.0 8 7 s ; + , F r.s.l.s.C.oX,X]  X",
"{ _.[ _ Q.G J u.3.u.f.f.y.F r e t d i 2 o 8 e d t t d 2 O 8 d t d 3 8 1 1 w 9 2XyX<X9 w 3XtX(.0 8 u p -   M P h.n.z.d.N.oX] ....",
"{ { ] +.Q.G u.4.f.v.c.c.k.P i d t d i 2 o 8 e d t t d 2 O 8 d t d 3 8 1 o w 0 (.yX<X%.%.3XrX(.6 8 i p - + M P k.Y.z.d.M.7.| ..{ ",
"{ ..] +.I.( H v.x.K.Y.c.j.F u i d d i 2 o 8 e d t t d 2 O 8 d t t d 8 1 1 d 9 &./.3X8X8X3X/.L q q i i u + B P x.c.z.t.M.0.] ....",
"_...| +.I.( 4.f.K.T.T.n.d.F u i t d i 2 o 8 e d t t d 2 O 8 d t t d 8 < 2 d 4 0 0 4X3X6X2X0 0 5 5 t i u + M P k.c.y.s.a.Z.| |  X",
"6.6. .7.I.u.e.j.n.T.E.D.k.F p i d d i 2 o 8 e d t t d 2 O 8 d t t d r o 1 w q 6 6 6 0 1 9 0 4 t t t i u + M P v.Y.D.s.C.-XQ ! 9.",
"I I W m Q.G u.j.n.T.R.D.k.F p u d d i 2 o 8 e d t t d 2 O 8 d t 3 d y o 1 8 d d f 3 e 2 o 8 d t t t i - + B 2.c.P.D.T.z.M.W j j ",
"DXVXVXVXD.P D t.s.x.x.s.r.V u i t d i 2 o 8 e d t t d 2 O 8 d 5 3 q i 2 1 i y y d 3 2 X 1 d 3 q t d i -   h K u.v.k.m.).vXSXHXVX",
"hX0X0X;Xt.p M B N A A C C a @ s i d i 2 o r i t t t d 2 < 3 d 5 d q 4 1 2 f y y 5 d 2 o 2 8 q t 5 d s , . * > N K N P t.aXaX:XwX",
"+X*X^ A.Z # = = > - p a - - s u i i i r o r d d t t y 4 < e d e t d 9 O @ i t t t t r @ 2 8 d t t d i - +   % , c > , Z A.OX+X*X",
"`.$.o.o.~ , * = = + & - = = p s s f i 2 X 3 i d t t y 4 < 3 d e y d 8 O @ i 5 5 5 t r @ 2 8 t t t d i u & & = = * * # m S.0.$.`.",
"#.[ |.+.~ h h M M l l M M n a C C C i 2 X 2 i 8 q 5 q 4 < 3 q 8 y y 8 O @ i t 5 5 t r o 1 8 d 5 5 8 u p l M M n n n h ~ @.o.[ } ",
"} X.#.@.` J 4.J J G G J H N l C C C f 2 X 2 8 8 q 5 q 4 < 3 q 8 y y 8 o 2 i t 5 5 5 r X 1 8 q 5 d 8 u s V F H J J G Z ' @.o.} } ",
"..[. .8.` ( f.u.u.t.e.u.u.K a C C C f 2 o 3 i e d t t 4 < 3 q 8 t y 3 O 2 i t 5 5 t i X 1 8 q 5 t d u p P r.y.u.r.t.;.` +.[ } } ",
"[.] [ xXM.j.g.x.j.j.y.u.u.D p b f f i 2 o 3 d t t t d 4 < 3 d e y y 3 O 2 i 5 5 5 q 8 X 1 8 d t t d u a r.k.x.j.v.x.d.M.o.R R R ",
"..] [ 8.C.D.K.L.n.m.i.i.r.V u i i d r 2 o 3 i i i 8 d 1 < 8 i 8 5 d 8 O 1 i 8 q q 8 7 X 1 8 q d t 3 u a h.n.Y.n.m.m.C.N.@.[ R R ",
"....#.@.N.G.T.T.D.D.k.h.i.F s 7 i d i 2 o 3 i d 8 8 d 1 < 8 i 8 5 q 8 o 1 i 8 q q 8 8 X 2 i d t d i - p k.T.R.Y.T.T.G.A.@. .} { ",
"{.| X.@.B.F.Y.R.T.D.D.x.v.P 7 8 f e e 2 < 3 i i 8 3 d < 4 1 d 8 q 5 d o 1 i t q d 3 2 O 2 r b y e s - > v.R.T.E.T.T.F.N.@.zXX.{ ",
"6.X. .9.B.C.W.C.E.C.C.E.V.H $ p 8 7 f i X 1 7 9 9 9 9 1 O 9 7 9 9 w 9 O 1 8 8 8 8 i 7 X 7 @ b @ @ X   * N D J N D D A Z _ oX9.X.",
"]..XX.0.8.A.A.Q.V.V.F.V.P.) z $ $ z z $ g g k k g k k $ $ g g k k $ g $ $ g k k k $ k . $ l pXgX& gXE.B C.V.pX;Xt.y.;X` W +.[ [ ",
"..| X.X.@.@.M.M.8.S.M.B.Z._ ~ ~ :.S.bX/ >./ / / / / =.=.=.=.=./ =.T / =.T T >.=.>.>.=./ ~ a.dXN.h Z ' m Q.-XB.A.;X' A.` W #.#. .",
"] ] { { X.X.[  .[ #.mX .+.#.! [ U zXnXo.Y $.O.O.O.O.O.MXnXXXXXO.E <.nXMX<.,.O.O.,.,.<.O.Y :X^ j j I I j W W I I j Q I I ! X.] ] ",
"| ] X.] #.! 0. .+.+._ 7.q.! [ Q ^ fXnXo.U o.@.^ ^ O.^ O.OXnXY O.O.^ @.@X^ zXO.O.<.<.O.<.Y DX%X~ W Q _ _ Q _ 7.+._ 7.W oXw.w.0. .",
"aXjXfXdXdXuX%XuX-X;XaXaXjXxX>XM.iXCXSXvXcXkXkXxXfXfXBXvXSXSXvXkXvXDXGXGXVXVXVXbXkX0XDXDX;XGXZXCXSXVXVXSXGXJXHXHXHXCXcXcXjXjXjXfX",
"AXAXvXvXCXGXlXSXAXlXAXFXJXCXVXBXNXNXAXZXGXJXSXGXZXSXSXAXAXAXZXZXZXCXJXJXAXAXCXGXSXVXZXZXFXAXCXFXZXGXGXFXZXJXGXCXJXJXJXJXGXCXFXFX"
};
