/* XPM */
static char *a6dd5e50a6394bb49b13da0260f656c6DbG01ggz6uqEuioW[] = {
/* columns rows colors chars-per-pixel */
"64 64 256 2 ",
"   c #150000",
".  c #1C0000",
"X  c #230000",
"o  c #2B0000",
"O  c #2D0A00",
"+  c #340300",
"@  c #3C0200",
"#  c #350B00",
"$  c #3D0C00",
"%  c #390D0E",
"&  c #3C1200",
"*  c #381600",
"=  c #440400",
"-  c #4C0500",
";  c #440C00",
":  c #4B0C00",
">  c #480A0C",
",  c #530501",
"<  c #530B01",
"1  c #590C00",
"2  c #550609",
"3  c #441300",
"4  c #4B1200",
"5  c #441B00",
"6  c #4B1B01",
"7  c #4B1308",
"8  c #521300",
"9  c #541B01",
"0  c #5A1C02",
"q  c #5A1606",
"w  c #4B1613",
"e  c #661C05",
"r  c #492300",
"t  c #542300",
"y  c #5B2501",
"u  c #5D2C01",
"i  c #582909",
"p  c #5C3705",
"a  c #5B2914",
"s  c #573113",
"d  c #622C02",
"f  c #672A09",
"g  c #63340B",
"h  c #683807",
"j  c #743B0B",
"k  c #692916",
"l  c #643414",
"z  c #6C3B13",
"x  c #6B3D1C",
"c  c #683717",
"v  c #763A18",
"b  c #722D1E",
"n  c #6B3A24",
"m  c #743C24",
"M  c #783A26",
"N  c #7A3A34",
"B  c #593E23",
"V  c #6B450B",
"C  c #74470C",
"Z  c #78530B",
"A  c #6B421C",
"S  c #6D4A1B",
"D  c #6A4615",
"F  c #724414",
"G  c #74431C",
"H  c #744D1B",
"J  c #7A4C1A",
"K  c #784A16",
"L  c #7C531D",
"P  c #765516",
"I  c #6B5213",
"U  c #6C4726",
"Y  c #734425",
"T  c #7A4424",
"R  c #744C24",
"E  c #7B4B22",
"W  c #7C4C2C",
"Q  c #77462B",
"!  c #745224",
"~  c #7C5323",
"^  c #7C542B",
"/  c #795728",
"(  c #7C4D3B",
")  c #7A4932",
"_  c #7C5232",
"`  c #7B5838",
"'  c #6F4330",
"]  c #5B410E",
"[  c #7C5945",
"{  c #79554D",
"}  c #7D6454",
"|  c #833C26",
" . c #824A0B",
".. c #854C1A",
"X. c #83541C",
"o. c #8B541C",
"O. c #865816",
"+. c #8D5214",
"@. c #836017",
"#. c #834524",
"$. c #834C24",
"%. c #844C2B",
"&. c #8C4C2C",
"*. c #884827",
"=. c #954C29",
"-. c #845423",
";. c #8A5423",
":. c #825A24",
">. c #83542B",
",. c #8B542C",
"<. c #835A2C",
"1. c #8C5B2B",
"2. c #8C5A24",
"3. c #94582A",
"4. c #884C36",
"5. c #835433",
"6. c #8C5234",
"7. c #8C5B34",
"8. c #83543B",
"9. c #8B543B",
"0. c #845A3C",
"q. c #8C5A3B",
"w. c #845A32",
"e. c #935434",
"r. c #935D33",
"t. c #935B3C",
"y. c #9A5D3B",
"u. c #96563A",
"i. c #964B3A",
"p. c #8A612B",
"a. c #92642C",
"s. c #8D623B",
"d. c #896538",
"f. c #926434",
"g. c #946A33",
"h. c #94633D",
"j. c #9B633C",
"k. c #9B6C3C",
"l. c #986738",
"z. c #977037",
"x. c #A4653A",
"c. c #A5713F",
"v. c #A2583F",
"b. c #964D44",
"n. c #845543",
"m. c #8C5C43",
"M. c #8D5C4C",
"N. c #885846",
"B. c #925545",
"V. c #945C44",
"C. c #9C5C43",
"Z. c #945C4B",
"A. c #9C5D4B",
"S. c #975649",
"D. c #895C54",
"F. c #945D51",
"G. c #9C5C53",
"H. c #985A58",
"J. c #894D43",
"K. c #A45C4D",
"L. c #A55A49",
"P. c #A35D53",
"I. c #A55E58",
"U. c #8C6344",
"Y. c #8D624B",
"T. c #896845",
"R. c #956343",
"E. c #9C6343",
"W. c #946B44",
"Q. c #9B6A44",
"!. c #94634B",
"~. c #9B634C",
"^. c #936B4C",
"/. c #9B6B4C",
"(. c #9C7448",
"). c #8C645C",
"_. c #886556",
"`. c #946353",
"'. c #9C6453",
"]. c #9C6A53",
"[. c #9C645B",
"{. c #9A6B5B",
"}. c #956857",
"|. c #9C7558",
" X c #A3644C",
".X c #A36A4D",
"XX c #A36744",
"oX c #A67749",
"OX c #A36454",
"+X c #AA6455",
"@X c #A36C53",
"#X c #AA6C54",
"$X c #A2645B",
"%X c #A46B5B",
"&X c #AB6B5C",
"*X c #A47354",
"=X c #AB7354",
"-X c #A47C54",
";X c #AB7C54",
":X c #A3735A",
">X c #AB755C",
",X c #AB7C5C",
"<X c #A47C5A",
"1X c #B3745C",
"2X c #B37B5C",
"3X c #B67A59",
"4X c #B37256",
"5X c #9D5F63",
"6X c #8C6764",
"7X c #996663",
"8X c #9C7866",
"9X c #9B7971",
"0X c #A46C62",
"qX c #A86662",
"wX c #A47563",
"eX c #AB7462",
"rX c #A57C63",
"tX c #AC7C63",
"yX c #AC7D6B",
"uX c #A9776A",
"iX c #B37563",
"pX c #B47D64",
"aX c #BA7D63",
"sX c #B47C6B",
"dX c #BA7C6A",
"fX c #B5746B",
"gX c #A87E74",
"hX c #B77C75",
"jX c #B16B63",
"kX c #A55D60",
"lX c #C2796E",
"zX c #AB8354",
"xX c #AC825B",
"cX c #A88558",
"vX c #B3835C",
"bX c #B68659",
"nX c #B1814E",
"mX c #9F8366",
"MX c #A68365",
"NX c #AC8363",
"BX c #AD836B",
"VX c #AB8867",
"CX c #B38264",
"ZX c #BA8265",
"AX c #B4836B",
"SX c #BA826B",
"DX c #B78A67",
"FX c #A98375",
"GX c #BA8172",
"HX c #B48573",
"JX c #BF937A",
"KX c #9F8141",
"LX c #C38567",
"PX c #C48574",
"IX c #A07C80",
"UX c #AD8880",
/* pixels */
"; : 1 =.3.O.f.Q.r.; %.d o.+. .O.-.L O.O.@.P d.^.`.M.}.!.2X6.E.T n.Y.Y.^.U.U.^.|.-XoX3 f.h ,.6.u.;.o.0 j e.: *.: 3. .2.o.O.K C 1.",
"E v 1 < 4 a.<.E >.4 z 3  .O.h g.f.5 -.P Z p xX^.HXyXU.^.*XR.t.3 !.yX}.|.MX|.<XcXxX(.H -.;X-.R.h.l.3.bX3.E 3 ; j.: 4 x.l.y 3 3 >.",
"a 9 q < 3 # 5 r W.S p 3 5 5 & & & /.$ 3 5 r x HX8XrX-XzX(./.AX; 9.2XCX,XNXNX|.cXcX/ H * d.5 d.W.K 3 oXoX5 L g.-.f 0 < < : ; ) & ",
"' ( 8 : 5.~ ! ! ! g D J H S A 8.8.T c %.J E ( ( ( _ S h & x n 5.v 4 T ; Y _ ^ R ! S R / _ R / R 3 E E F D z J ; %.&.- : M o ' n ",
"W t.;.....1.S T.xXzXxX,X|.AXtX/.6.:  X=XCX(.AXHX!.CXvX;XE <.:.g.4 : 6.4 6.7.D xXcX<X|.cXT.cXVXBXSX: y m '.~.6. XA.dX2XT aXAXtXyX",
"4 XXf.r.8 g ! cXxXCXAXsX[.uXeX2Xe.= aXE.ZX2XAX,XAXNX,XvX& F C X.K v ; Q.f.3 R xXNXCX;XDXNXVXMXyXM.; eX%X'.G.$XB.%XiX@X4 V.CX=X;X",
": ; : k = .XL g.,XAX= : w > 4 ; ; @ 8 : ; 4 9.,X8.` ^.VXR i g 6 6 $ ..-.<.A $ a 3 6 4 $ 6 3 n.HX' . s & 9.; ; n 3 7 + $ !.$ 3 E ",
"B.A.B.A.$XA.f.:.U.9.: b.H.H.B.V.9.q.9.6.6.q.R.m.U._ NX<X^.W.h.+ ;XvXbX7.W.9.!.!.m.~.m S.Z.Z.'.{.}.[ Y.U.w.s.U.m.Q N.[.F.`.m.t.y ",
"0 ZXdXiXI.fXsX;XW.>.: P.5XhX9.2X.X,X,XW.~ (.xXU.BXtXCXxXNX,XzXH xX*X!.AXyX/.,XCXSXZ.; ; %XdX$XsX%X:XZXvXa.nXbX2XpX~.0X0XAXyXAX& ",
"9.].tX`.5X7XD.HX^.^ ; A.F.[.pXDXU.BXVXrX` p MXFXBXrXxX<XMXNXd.D -X<XyXBXn.^.DX>XpXB.; $X'.~.>XsXsXhXpXDXG E vX3 =XpXsX[.tXBXrX& ",
"X . . . X X .     . ` X X X . . .     .   .       .     X . . R # X . # . . . X # X X o X X . X . o . X & X # X + + X + X X # & ",
").D.6X6X6X% 9XFX6X_.BXBX:XNXU.` U ` _.).6X6XIX6X)._.` / T.U.0.) a 3 8.& _ & Y 3 _ i 8.& & ` ` [ { 9XUX).7XhXwXHXyX8XU.) BXwXY.tX",
"0X`.m.*XR.3 Q }.|.MXtXiX+XA.eX[.7 Q pX:XBX`.7X7XwX/.,.F -.$./.9.OXA.~.4 ,.; v 6.v M &.: f v !.m ' Y.].) GXdXpX>X!.rX^.p cXDXH ;X",
"7 4 ~.T zX-.2X; ! ^ ; : 1 - : @ 4 ; E ;X;Xx N.0X4 E.,.3 4 t @X'.A.+X#.z 4 4 4 : : : 8 #.4 ; ; 3 0.$ 6 4 ; ; 3XE.l cX-X! cX<.H & ",
"W U.8.0.^ R ~ >.S I ~ :. .3.Q R J K h & C L _ n.M.c <.L ~ <.G q.R 5.w.D J J :.J -.F E >.l ^ A d._ 0.n.8.4 5.R.>.H K :.L L p.^ A ",
"CXtXyXAX^.xX;XzXzX5 g.X.3 2.h.s.~ 5 h d 3 zX:X`.`.AXW.xXxX,Xd.& |.^.q.W.h.;X7.f.zX& 4 /.].U.NXVXBXtXHX|.& _ !.;Xk.oXk.k.oXxX!.a ",
"fXSXsXpX1XZX=XpX3X3 &.; j 1.>.h.R.6.: : J oXSXfXfX+X'.eXhX`._ 3 `.7XG.G.A.jX+X X7.; u.dXqX0XwXFXgXw {.m.Y /.!.CX#Xu.aXaXaXdXjX, ",
"< = @ = 8 : : : : : @ 4 %.E d.w.V.= - : ..4 : < - 1 = = : + 3 o + > = = = < - = $ 9 ; : = o o X X 7 ; ; Q $ @ @ : : 4 @ + : = , ",
"K.G.$X$XX {.`.'.~.@X5./.E.i /.x h.h.d 9 4 d $.,.&.= < b.%.,.XX0 '.n Z.Z.+ iXOXtXNX|.m.NXyX_._.X }.A.F.0X[.J.[.[.B.OXv h.~.R.9.,X",
"S.OXP.OX$ `.sXpX~.@X/.,X=XCXs.W.p J 2.j ..3.4 ; 4 : -  Xk.l.y.L..X!.!.!.: ~.ZX,XAX<X|.tXCXrX` . ~.1XPXfXhX$XG.fXsXtXT vXt.R.-Xd.",
".X; R.; ; 4 ; 4 : : 4 t W.h./ H p 6 F 4 4 h r.6 -.,.; /.s.s.y.y.j.7.xX*X= : 3 3 $ a pXpX: 4 & o - 1 - < 1 1 = E.oXh.$ 8 : j.f.(.",
"W l i W g J $.v v ; f G A p r D H h 6 h g u t i E 4 y l Y $ 4 f j K g ; 8 z T x W 9.$ l k : c @ 8 #.v < < < z z g l ) M k G g p ",
",X,X].*XCX:X9.V.>Xo l ;X(.DXcXxX-X<.bX<.X BXn.@XE.1X X+XA.K.4.- < ..: %.e.u.6.6.i + CX@X XiX].AX,XvXpX~.@ #.iXiX].uX$XGX$XtXR d.",
"~.sXsXsXA.sXZ.~.sX; Q c >XAX:XAXCXCX>X9.. 8X}.%XdX+X+XK.K.L.< < - 3.4 z : = v 0 ; o E.>XLXA.) AXCXtXtXAXo n dXdXG.0X'.G.&XsX5.q.",
"- < - - < - - : < - 1 - : < - < : 8 : k X $ ; : : : - : 1 , - f 8 ; ; ;.y 4 8 : 2.; ; : 1 , < : : : : = o ; = : : : ; : 8 = < < ",
"&X&XP.K.K.lXq b.b.K.S.+XA.lXP.#X3Xf G.H.H.M.GXOXB.A.y.*.- u.C.u.&.=.1.-.1.e.- 3.;.f.3.e.i.i.I.P.S.M A.9.~.Q 9.t.C.u.3.;.J y.k K.",
"rX:XSXaX3XLX= *.3X3X~.~.@XaXCX;XoXi rXBXeXSXtXeXtX/.oXo.: XXXX&.K.+XC.#XE. X, v.y.7.#.S.I.qXG.G.$X; E.j.h.h.j.3.x.3.oX-.H zXZX~.",
"VXNXCX>.;X3X4 4 E.ZX;X,XR.vXvXW.xXr MXMX,X3 4 /.NXcXg.2.z >.4 d L.P.A.OX~.+X< L.j.>.: : 7 fX> 7 eX$ #.oXoX1.$.x.3.3.r.J h ^ /.~.",
"$ x 5 Y ; ; 9 $ w.g 4 %.z x 0 ; x A ] D $ Q T t D p p p D V h ~ l ; n Y x c b : z $ E z i ; 4 k 8 f : j 4 4 4 : u.= f 6 l 6 ; y ",
"/.R./.,XSXiXZXCX,X5.4 R.R.9.#XA.!.<XzX-X3 >X=XvX-XVXzXbX(.zX/ h /.m.MXY./.E.3X#XXXy 3 vXt.=X.X~.y.v 3X1X#.y.1XiXPXsXA.iX~.ZXoXG ",
"`.`.].~.iXaX&X+X#XB.@ '.dXiXiX XA.pX^.,X8.'.aX3XsXeXpXZX=XbXoXR C.&X%X`.dXP.P.L.K.4.; ,XaXaX~.@XZXR.>XeX< b aXdXpX; #X=XLX2XvXE ",
":XAXb  XdXA.8 : : : @ 4 A.OXN ; 4 >XpX,X$ ~.0 : : : ; : : : 3 x : = %Xn : : - < 1 = : v : ; 4 v ; *XyXm.= ; ; 3 x 3 W 4 : f 3 z ",
"/ ~ u y.4 6.G h.].n.tXpXtX'.`.`.Q 9.>X/.;XCX[.F.F.n.D.; %.,.7.7.9.V.~.5.7.R.+XOXB.4.y 1.-.:.X.-.m.!.n.U.n.{.N.|.` ^._.( 9.~.!.9.",
"h u ,.4 = ; G >X|.AX,XCXCX,XBX!.$ 3 ZX/.vXW.uX}.!.!.[.o =X.XE.Q./.!.!.R.r.r.E.~.t.; h a.a.g.K F 3 rXxX|.HXrX|.mXxXNXT.* Q pX~.tX",
"o.4 = v 4 : k sXsX].>XCXoXt q.,X6 -.,X!.U.!.`.].=Xy.K.: : j.y.E.R.0.].V.1 u.%.s 3 6 Z Z 3 3 # 5 $ DXzXcXCXJXVXxXNXDX|.S 3 3 3 n.",
"j j 4 f #.M = N m + Y A z V l G h z t Q n l i m d g : : f v f 4 l Q %.M 1 - z 6 j O.* Z J 6 ( ( A p l c i Y A A 6 o & ~ G m n m ",
"4Xo vXDXAXSXiXpX2X/.(.U A T.zXE ,XR.,XCX;X=X; ZXpX>XDX*XDXQ.>XaXZX; : &.3.o.8 : t Z O.Z p DXsXF.ZX].:X{.`.*XS cX*Xq.;X,X2XZXAXyX",
"6.4 CXtX{.Z.pX2XR./.xX! ` MXxXoXDX,X2X3X3XbX@ 2X,XDXzXbX;X,XAXeX>X: : : ; ..3.o.;.3 2.& A ^.fXhXpXAXHXsX!.R.z DX=X,XCXvXZXpX2XE.",
"; = q.$ 4 4 = k i $ # _ _.n.; ; = d 4 4 ; ; 4 ; d 4 3 3 u ,XMXwX4 = m 8 j.d 9 : $ 3 0 i 9.5 wX`.@X; = 4 4 ; 4 ; ; 8 : : 4 = 8 : ",
"'.m.q.q.V.B.; Z.Z.!.N.Y.n.`.M.E.j.;.;.,.u.6.;.;.;.o.o...<.0.N.N.M.F.A.6.,.<.o m.`.J.B.J.Z.N.N.Y.q.6.C.6.,.,.9.B.S.4.e.: &.6.u.6.",
"VXxXxXxXDXpXX uX].CX:XAXpXpXCXvXzXh 3 #.: C.x.;.3 1.V 1.:XsX$XH.}.yX!.:XV.`.. M.sX[.tX!.~.AX{.NXu K 3XCXE.V.[.%XpXZXpX; %XdXiX>X",
"mXMXxXNXtX8.o gXMXBXtXeXAXpX;XxXR w.5.$ ; 0 $ >.Y & ! A wX).H.7XgX{.MXY.{.{.X gX{.`.yXY.MXyXrXNX~ C bXW.tXGXF.fX].>X*X; 0X[.wX}.",
"    . # o X . O . . X + + X O . . X ' . . . . X .   . B . . . X             . . X .       . . + X . . X o + ; @ @ o o $ X X . . ",
"} . FX).6X).).[ _.).{.[ 3 }.8.0._.D._.}.D._.# [ ).FX8X8X} 6X6X).}   _.FX6XD.7X).FX8XmX[ T.U {.$ & ` 8.s.W q.4 e.3 $.E.t.$ $ D.[ ",
"6X. FXyXBXAXrXBX{.wXyXn W tXR.9.~.OXP.S.kXqX@ SXBXtXrXBXtX%XZ.GXFX. wXAXsX'.GXyXHXyX`.N._ .XA.S.< k - ; 7.~ K O.C L ;.f 8 4.< < ",
"& X rX:X-XxX;Xt s ].|.W.z 3 3 3 4 - - < , N : i AXCXNX,X5.: - 0 F.X SXY ; 4 pXCXtXrX$ 6 Q.j.R.; - - q 0 E t 3 O.Z 5 3 9 ; : < , ",
":.~ ~ ! L K L -.G ! U S H P L t n.}.n.( M.( n.N.[ ` U U R E X.g 8.6 ^ R R ` ` ` m.U ' 0.R d.` R R s.7.q.s.~ 1.J K L y h X.K >.T ",
"Z p g.& & z.l.k./.CXW.T.h.:.z.~ }.gX`.tXMXVXrXMXVX[ * ^.s.Q.r.j.!.^.T.d.* NXMX,XBXtXAX|.cXd.-X! / <.<.h.Q.h.; G >.7.4 h.g.:.W.}.",
"P L <.<.G ;  X XP.$X XiX].,XvXR %XfX@XpXeXtXSXsXGXk = [.B.'.~.tX4 Q m.m.3 !.fXdXpX.XT q.SXCX*Xg S >.g >.,.,.t i R $ :  Xt.aXF.[.",
"o & + + ; 4 : - < : = ; 4 3 & E : < = 4 @ : 4 + : < = = = : ; o + + o o + + ; ; 4 ; ; @ ; + ; E + $ o ; : ; 3 3 o X : @ @ ; 8 o ",
"= pX>X@XZ.OXdXPX1XLX-.5 P Z Z O.0 C.E.t.,.6 y ,.&.&.*.8 8 9 j 7.. ).n.yXBXyX|.n.B.eX6.; 4 u u.: %.j y o.e : 4.t.$ %.,.j.3.o...8 ",
"4 CXsXAXAXAXpXpXbXnXK V Z Z V Z C ; v v X.5 X.3 d 0 : ; 3.K C g X ).8X|.rXtXBX`.sXSX.Xr.X.h h.: y : j o.j 8 8 f h -.;.;X4 o. .o.",
". D R -XcXNXtXZXzXf.Q.3 V t H 3 h p g.g.V 5 t -.; y X.4 ; 3 F 5 X # r d.xX3 3 ; ,XbXbXX.O.O.:.~ ; : : 8 2.& @ F 9 3 Z @...9 3 6 ",
"I P * D R i 3 G g J G z F g z R L V p D L t F g $.; h h 3 l z G Y x l p E ,.G 4 4 u J h K 3 F >.; 9.b : G z 4 f v t I P K ; J u ",
"/ I p.d ; 3 H :.>.3 4 -.1.-.H & & R.SX!.Q.Q.V.~.V..X; 7.sX`.CX/.].`.pXi bX& X.a.d ..l.3.y.: +X- - jXA.OX!.:X@XA.$XpX^ * O.C X.c.",
"s.~ p.u .X4 -.j 4 j.h j : 4 ,.h d iX$XG.dX#XfXOXiXA.v %.sX'.pXsX'.'.2X4X7.F -.K 3 4 ,.4XE.k I.- < G.OX~.Z.OXiXqX'.!.5.:.X.h 3.oX",
"4 4 ; 1.>.r.4 d j.XXk : : < 1 1 , 1 , - < < - < - : k : @ 7 : : : : < < - : : : : : ; 4 >.i 3 o < , - : : - < : : 8 %.3 $ 4 : < ",
"- v e.$.7.1.$.x.y.6.A.: 8 =.=.e =.=., , i.L.b.b.jXS.y.C.G.H.qX$X- S.*.y.S.G.qXJ.A.9.B.X 5._ !.[.i.i.y.#.=.v |  XC.&. X6.4.'.P.L.",
", I.K.e..Xy.E.E.>X%XM.X 5.6 >.u : *.1 k - L.: G.G.$X~.Z.7XqXH.H.> I.$XZ.[.H.[.[.wXM.8.X '.~.~.~.+XK.S.OX XM = OXfXiXZX%X$XG.S.jX",
"- P.A.8 = y.h.,XV.$ M.X U r p H u 4 y.M f 4.A.OX'.'.tXAXM.[.[.hX- OXqX[.H.hXM.].eXY.`.3 pXE.E.6.; : ~.~.~.4.; @X*X9 tXZ.GXG.< 1X",
"c Q 3 T F F z l c Y m n t S I I d h z c v 4 l i l E F H 5 E E G ; %.= = > N F J 4 m ; 8.K h h y 3 K H 3 z T V V t R m 3 Q Q 0 *.",
"cXVXDXzXzXnXt vX-XCX2XR.DXvX(.zXbXu y.E. XC.#Xt.=Xf.l.L h oXbXk.bX3XaXiXI.A.3 O.3.e.G.~.2.o...;.X.P zXxX;XbXzXKXcXxXtX~.$ vXE.3X",
"zXzXzXvXzXzXE W SXV..XZXaX>X3XbXv l v &XI.I.P.+XA.u.E.u.: 3XLX1XdXC.M 2XGX&X: +. ...u.= < - 1 : ^ <./.pXAXNXxXzXzX(./.GX: +XE.j.",
"bXzXw.~ <.3 3 ; : : y ; ; : < =.4 = : < - 2 - < - 8 - = e < - < - < : d A. X: j  .+.: 1 , , , e 3 R 4 %XyXrXs / H p U.k - , 0 4 "
};
